<svg xmlns="http://www.w3.org/2000/svg" width="312" height="313" viewBox="0 0 312 313" fill="none"><path d="M156.211 0.846191L196.813 72.4987L278.148 59.568L247.443 135.986L308.264 191.515L229.374 215.154L223.881 297.328L156.211 250.388L88.5414 297.328L83.0491 215.154L4.15837 191.515L64.9796 135.986L34.2743 59.568L115.609 72.4987L156.211 0.846191Z" fill="#FB7558"></path><path d="M220.309 16.3083L226.013 98.4671L304.964 121.904L244.286 177.588L275.187 253.928L193.819 241.206L153.402 312.963L112.616 241.415L31.3141 254.555L61.8227 178.058L0.858825 122.686L79.6885 98.8434L84.9694 16.6564L152.76 63.4223L220.309 16.3083Z" fill="#FB7558"></path><path d="M84.8366 106L90.6566 100.33L102.597 121.75L105.087 122.95V124H86.6966V122.95L88.6766 122.02L82.1666 108.67H77.9666V106.15H82.3766L94.2266 96.61L89.6666 95.38V94.3H103.287V95.38L98.2166 96.67L84.8366 106ZM81.3266 121.81L83.6666 122.95V124H66.0566V122.95L68.7866 121.78V89.17C68.5066 88.87 68.1366 88.5 67.6766 88.06C67.2366 87.6 66.7066 87.08 66.0866 86.5C65.4666 85.92 64.7666 85.28 63.9866 84.58V83.44L80.5766 79.6H81.4466L81.3266 86.32V121.81ZM120.829 121.78L123.529 122.95V124H105.559V122.95L108.289 121.78V89.17C108.009 88.87 107.639 88.5 107.179 88.06C106.739 87.6 106.209 87.08 105.589 86.5C104.969 85.92 104.269 85.28 103.489 84.58V83.44L120.079 79.6H120.949L120.829 86.32V121.78ZM135.406 90.79C133.626 90.79 132.206 90.23 131.146 89.11C130.086 87.99 129.556 86.65 129.556 85.09C129.556 83.59 130.086 82.32 131.146 81.28C132.206 80.24 133.626 79.72 135.406 79.72C137.206 79.72 138.616 80.24 139.636 81.28C140.676 82.32 141.196 83.59 141.196 85.09C141.196 86.65 140.676 87.99 139.636 89.11C138.616 90.23 137.206 90.79 135.406 90.79ZM141.976 93.4L141.886 100.03V121.84L144.346 122.95V124H126.616V122.95L129.346 121.78V102.43C129.106 102.11 128.826 101.77 128.506 101.41C128.206 101.03 127.846 100.6 127.426 100.12C127.006 99.62 126.506 99.03 125.926 98.35V97.3L140.956 93.4H141.976ZM165.726 106L171.546 100.33L183.486 121.75L185.976 122.95V124H167.586V122.95L169.566 122.02L163.056 108.67H158.856V106.15H163.266L175.116 96.61L170.556 95.38V94.3H184.176V95.38L179.106 96.67L165.726 106ZM162.216 121.81L164.556 122.95V124H146.946V122.95L149.676 121.78V89.17C149.396 88.87 149.026 88.5 148.566 88.06C148.126 87.6 147.596 87.08 146.976 86.5C146.356 85.92 145.656 85.28 144.876 84.58V83.44L161.466 79.6H162.336L162.216 86.32V121.81ZM202.228 101.05V121.9L204.538 122.95V124H186.988V122.95L189.688 121.78V102.55C189.308 102.03 188.808 101.4 188.188 100.66C187.568 99.92 186.928 99.2 186.268 98.5V97.45L200.908 93.4H201.808L202.228 101.05ZM206.788 122.95L209.068 121.9V104.92C209.068 104 208.938 103.28 208.678 102.76C208.438 102.24 208.068 101.88 207.568 101.68C207.068 101.46 206.428 101.35 205.648 101.35C204.908 101.35 204.168 101.44 203.428 101.62C202.708 101.8 201.878 102.13 200.938 102.61L200.668 101.89C202.168 100.03 203.458 98.55 204.538 97.45C205.618 96.35 206.598 95.53 207.478 94.99C208.378 94.43 209.278 94.07 210.178 93.91C211.078 93.73 212.098 93.64 213.238 93.64C215.918 93.64 217.978 94.41 219.418 95.95C220.878 97.49 221.608 99.69 221.608 102.55V121.78L224.308 122.95V124H206.788V122.95ZM235.924 90.79C234.144 90.79 232.724 90.23 231.664 89.11C230.604 87.99 230.074 86.65 230.074 85.09C230.074 83.59 230.604 82.32 231.664 81.28C232.724 80.24 234.144 79.72 235.924 79.72C237.724 79.72 239.134 80.24 240.154 81.28C241.194 82.32 241.714 83.59 241.714 85.09C241.714 86.65 241.194 87.99 240.154 89.11C239.134 90.23 237.724 90.79 235.924 90.79ZM242.494 93.4L242.404 100.03V121.84L244.864 122.95V124H227.134V122.95L229.864 121.78V102.43C229.624 102.11 229.344 101.77 229.024 101.41C228.724 101.03 228.364 100.6 227.944 100.12C227.524 99.62 227.024 99.03 226.444 98.35V97.3L241.474 93.4H242.494ZM108.027 156.78C108.027 152.98 107.647 150.33 106.887 148.83C106.127 147.33 104.837 146.58 103.017 146.58C102.497 146.58 101.987 146.64 101.487 146.76C101.007 146.88 100.557 147.04 100.137 147.24C99.7166 147.42 99.3266 147.63 98.9666 147.87L98.7266 146.46C100.027 145.22 101.167 144.21 102.147 143.43C103.147 142.63 104.067 142.01 104.907 141.57C105.747 141.13 106.567 140.83 107.367 140.67C108.187 140.49 109.067 140.4 110.007 140.4C112.387 140.4 114.387 140.94 116.007 142.02C117.627 143.08 118.847 144.62 119.667 146.64C120.487 148.66 120.897 151.13 120.897 154.05C120.897 157.91 120.147 161.17 118.647 163.83C117.167 166.49 115.147 168.5 112.587 169.86C110.047 171.22 107.187 171.9 104.007 171.9C102.827 171.9 101.657 171.82 100.497 171.66C99.3566 171.5 98.2266 171.25 97.1066 170.91C95.9866 170.57 94.8466 170.13 93.6866 169.59H100.527V182.19L103.857 183.42V184.47H85.2566V183.42L87.9866 182.25V149.46C87.7066 149.1 87.4366 148.77 87.1766 148.47C86.9166 148.17 86.5866 147.79 86.1866 147.33C85.7866 146.87 85.2366 146.24 84.5366 145.44V144.36L99.3866 140.34H100.287L100.527 146.31V164.91C100.527 165.85 100.637 166.66 100.857 167.34C101.077 168.02 101.417 168.54 101.877 168.9C102.337 169.26 102.917 169.44 103.617 169.44C104.537 169.44 105.317 169.07 105.957 168.33C106.617 167.59 107.127 166.3 107.487 164.46C107.847 162.62 108.027 160.06 108.027 156.78ZM133.204 137.79C131.424 137.79 130.004 137.23 128.944 136.11C127.884 134.99 127.354 133.65 127.354 132.09C127.354 130.59 127.884 129.32 128.944 128.28C130.004 127.24 131.424 126.72 133.204 126.72C135.004 126.72 136.414 127.24 137.434 128.28C138.474 129.32 138.994 130.59 138.994 132.09C138.994 133.65 138.474 134.99 137.434 136.11C136.414 137.23 135.004 137.79 133.204 137.79ZM139.774 140.4L139.684 147.03V168.84L142.144 169.95V171H124.414V169.95L127.144 168.78V149.43C126.904 149.11 126.624 148.77 126.304 148.41C126.004 148.03 125.644 147.6 125.224 147.12C124.804 146.62 124.304 146.03 123.724 145.35V144.3L138.754 140.4H139.774ZM161.003 161.4C161.003 162.58 161.383 163.47 162.143 164.07C162.903 164.65 164.103 164.94 165.743 164.94C166.643 164.94 167.603 164.88 168.623 164.76C169.663 164.62 170.863 164.37 172.223 164.01V165.72C170.143 167.3 168.313 168.54 166.733 169.44C165.153 170.34 163.703 170.97 162.383 171.33C161.083 171.71 159.803 171.9 158.543 171.9C156.423 171.9 154.613 171.55 153.113 170.85C151.633 170.15 150.493 169.09 149.693 167.67C148.913 166.23 148.523 164.41 148.523 162.21V147.99L143.603 143.79V142.74C143.923 142.54 144.533 142.2 145.433 141.72C146.333 141.24 147.393 140.67 148.613 140.01C149.853 139.33 151.143 138.63 152.483 137.91C153.823 137.17 155.133 136.45 156.413 135.75C157.713 135.03 158.863 134.4 159.863 133.86H161.003V141.96V161.4ZM156.023 146.52V141.3H171.023L170.333 146.52H156.023ZM191.373 152.49L191.163 154.44C189.983 154.88 189.023 155.32 188.283 155.76C187.563 156.2 187.013 156.68 186.633 157.2C186.253 157.7 185.993 158.26 185.853 158.88C185.713 159.5 185.643 160.2 185.643 160.98C185.643 162.48 185.863 163.54 186.303 164.16C186.743 164.78 187.373 165.09 188.193 165.09C188.613 165.09 188.983 164.99 189.303 164.79C189.623 164.57 189.863 164.24 190.023 163.8C190.203 163.34 190.293 162.74 190.293 162V148.11C190.293 146.83 189.923 145.81 189.183 145.05C188.443 144.27 187.303 143.88 185.763 143.88C184.983 143.88 184.293 143.91 183.693 143.97C183.093 144.01 182.553 144.08 182.073 144.18L183.093 142.02C182.893 143.68 182.703 144.98 182.523 145.92C182.363 146.84 182.193 147.55 182.013 148.05C181.833 148.53 181.623 148.93 181.383 149.25C181.043 149.73 180.523 150.13 179.823 150.45C179.143 150.77 178.363 150.93 177.483 150.93C176.303 150.93 175.443 150.75 174.903 150.39C174.383 150.01 174.123 149.51 174.123 148.89C174.123 147.95 174.593 146.99 175.533 146.01C176.493 145.01 177.773 144.09 179.373 143.25C180.993 142.39 182.833 141.7 184.893 141.18C186.953 140.66 189.093 140.4 191.313 140.4C194.173 140.4 196.443 140.82 198.123 141.66C199.823 142.48 201.033 143.64 201.753 145.14C202.473 146.64 202.833 148.41 202.833 150.45V165.09C202.833 165.51 202.893 165.86 203.013 166.14C203.153 166.42 203.353 166.63 203.613 166.77C203.873 166.91 204.193 166.98 204.573 166.98C204.953 166.98 205.333 166.94 205.713 166.86C206.113 166.76 206.523 166.62 206.943 166.44V168.39C205.463 169.57 203.993 170.45 202.533 171.03C201.093 171.61 199.463 171.9 197.643 171.9C195.943 171.9 194.573 171.6 193.533 171C192.493 170.42 191.733 169.51 191.253 168.27C190.773 167.01 190.503 165.4 190.443 163.44L190.983 163.77C190.543 165.69 189.923 167.24 189.123 168.42C188.343 169.6 187.403 170.46 186.303 171C185.203 171.56 183.953 171.84 182.553 171.84C179.633 171.84 177.433 171.13 175.953 169.71C174.493 168.29 173.763 166.38 173.763 163.98C173.763 162.8 173.973 161.73 174.393 160.77C174.833 159.81 175.653 158.9 176.853 158.04C178.073 157.18 179.843 156.3 182.163 155.4C184.503 154.5 187.573 153.53 191.373 152.49ZM217.339 137.79C215.559 137.79 214.139 137.23 213.079 136.11C212.039 134.99 211.519 133.65 211.519 132.09C211.519 130.59 212.039 129.32 213.079 128.28C214.139 127.24 215.559 126.72 217.339 126.72C219.159 126.72 220.579 127.24 221.599 128.28C222.639 129.32 223.159 130.59 223.159 132.09C223.159 133.65 222.639 134.99 221.599 136.11C220.579 137.23 219.159 137.79 217.339 137.79ZM211.279 149.43C211.039 149.11 210.769 148.77 210.469 148.41C210.169 148.03 209.809 147.6 209.389 147.12C208.969 146.62 208.459 146.03 207.859 145.35V144.3L222.919 140.4H223.939L223.819 147.03V167.1C223.819 168.52 223.719 169.77 223.519 170.85C223.339 171.93 222.959 172.95 222.379 173.91C221.799 174.89 220.929 175.9 219.769 176.94C218.629 177.98 217.109 179.15 215.209 180.45C213.309 181.77 210.929 183.34 208.069 185.16L207.319 184.2C208.239 183.02 208.959 182.02 209.479 181.2C210.019 180.38 210.409 179.62 210.649 178.92C210.909 178.24 211.079 177.52 211.159 176.76C211.239 176.02 211.279 175.13 211.279 174.09V149.43ZM75.1434 187.4C76.9834 187.4 78.5634 187.52 79.8834 187.76C81.2234 187.98 82.5934 188.33 83.9934 188.81L85.1334 197H83.8434L78.7134 189.08L81.5634 191.63C80.5234 190.85 79.5134 190.3 78.5334 189.98C77.5534 189.64 76.5834 189.47 75.6234 189.47C73.9234 189.47 72.6534 189.73 71.8134 190.25C70.9934 190.77 70.5834 191.57 70.5834 192.65C70.5834 193.27 70.7534 193.83 71.0934 194.33C71.4534 194.83 72.1534 195.32 73.1934 195.8C74.2534 196.28 75.8634 196.81 78.0234 197.39C79.6434 197.83 81.0134 198.38 82.1334 199.04C83.2534 199.68 84.1534 200.43 84.8334 201.29C85.5334 202.15 86.0434 203.11 86.3634 204.17C86.6834 205.23 86.8434 206.4 86.8434 207.68C86.8434 209.94 86.2334 211.91 85.0134 213.59C83.8134 215.27 82.1334 216.58 79.9734 217.52C77.8134 218.44 75.2934 218.9 72.4134 218.9C70.3134 218.9 68.4934 218.75 66.9534 218.45C65.4334 218.17 64.1534 217.79 63.1134 217.31L61.7634 208.04H63.1134L68.8434 217.25L66.2934 215.3C66.9134 215.64 67.5534 215.93 68.2134 216.17C68.8734 216.39 69.5534 216.56 70.2534 216.68C70.9534 216.78 71.6334 216.83 72.2934 216.83C74.0334 216.83 75.4234 216.47 76.4634 215.75C77.5034 215.01 78.0234 213.88 78.0234 212.36C78.0234 211.76 77.9034 211.23 77.6634 210.77C77.4234 210.29 77.0234 209.85 76.4634 209.45C75.9234 209.03 75.1734 208.63 74.2134 208.25C73.2534 207.85 72.0434 207.46 70.5834 207.08C68.6434 206.58 67.0334 205.93 65.7534 205.13C64.4934 204.33 63.5534 203.35 62.9334 202.19C62.3134 201.03 62.0034 199.67 62.0034 198.11C62.0034 195.95 62.5634 194.07 63.6834 192.47C64.8234 190.87 66.3834 189.63 68.3634 188.75C70.3434 187.85 72.6034 187.4 75.1434 187.4ZM107.53 199.49L107.32 201.44C106.14 201.88 105.18 202.32 104.44 202.76C103.72 203.2 103.17 203.68 102.79 204.2C102.41 204.7 102.15 205.26 102.01 205.88C101.87 206.5 101.8 207.2 101.8 207.98C101.8 209.48 102.02 210.54 102.46 211.16C102.9 211.78 103.53 212.09 104.35 212.09C104.77 212.09 105.14 211.99 105.46 211.79C105.78 211.57 106.02 211.24 106.18 210.8C106.36 210.34 106.45 209.74 106.45 209V195.11C106.45 193.83 106.08 192.81 105.34 192.05C104.6 191.27 103.46 190.88 101.92 190.88C101.14 190.88 100.45 190.91 99.8498 190.97C99.2498 191.01 98.7098 191.08 98.2298 191.18L99.2498 189.02C99.0498 190.68 98.8598 191.98 98.6798 192.92C98.5198 193.84 98.3498 194.55 98.1698 195.05C97.9898 195.53 97.7798 195.93 97.5398 196.25C97.1998 196.73 96.6798 197.13 95.9798 197.45C95.2998 197.77 94.5198 197.93 93.6398 197.93C92.4598 197.93 91.5998 197.75 91.0598 197.39C90.5398 197.01 90.2798 196.51 90.2798 195.89C90.2798 194.95 90.7498 193.99 91.6898 193.01C92.6498 192.01 93.9298 191.09 95.5298 190.25C97.1498 189.39 98.9898 188.7 101.05 188.18C103.11 187.66 105.25 187.4 107.47 187.4C110.33 187.4 112.6 187.82 114.28 188.66C115.98 189.48 117.19 190.64 117.91 192.14C118.63 193.64 118.99 195.41 118.99 197.45V212.09C118.99 212.51 119.05 212.86 119.17 213.14C119.31 213.42 119.51 213.63 119.77 213.77C120.03 213.91 120.35 213.98 120.73 213.98C121.11 213.98 121.49 213.94 121.87 213.86C122.27 213.76 122.68 213.62 123.1 213.44V215.39C121.62 216.57 120.15 217.45 118.69 218.03C117.25 218.61 115.62 218.9 113.8 218.9C112.1 218.9 110.73 218.6 109.69 218C108.65 217.42 107.89 216.51 107.41 215.27C106.93 214.01 106.66 212.4 106.6 210.44L107.14 210.77C106.7 212.69 106.08 214.24 105.28 215.42C104.5 216.6 103.56 217.46 102.46 218C101.36 218.56 100.11 218.84 98.7098 218.84C95.7898 218.84 93.5898 218.13 92.1098 216.71C90.6498 215.29 89.9198 213.38 89.9198 210.98C89.9198 209.8 90.1298 208.73 90.5498 207.77C90.9898 206.81 91.8098 205.9 93.0098 205.04C94.2298 204.18 95.9998 203.3 98.3198 202.4C100.66 201.5 103.73 200.53 107.53 199.49ZM124.766 218V216.68L141.116 189.17L146.786 190.49L126.506 190.73L131.096 189.26L125.816 198.83H124.346L126.476 186.23H126.986L130.136 188.3H153.536V189.65L136.766 217.76L129.716 215.81L150.596 215.57L146.726 217.25L154.136 205.82H155.576L152.396 218H124.766ZM172.979 195.05V215.9L175.289 216.95V218H157.739V216.95L160.439 215.78V196.55C160.059 196.03 159.559 195.4 158.939 194.66C158.319 193.92 157.679 193.2 157.019 192.5V191.45L171.659 187.4H172.559L172.979 195.05ZM177.539 216.95L179.819 215.9V198.92C179.819 198 179.689 197.28 179.429 196.76C179.189 196.24 178.819 195.88 178.319 195.68C177.819 195.46 177.179 195.35 176.399 195.35C175.659 195.35 174.919 195.44 174.179 195.62C173.459 195.8 172.629 196.13 171.689 196.61L171.419 195.89C172.919 194.03 174.209 192.55 175.289 191.45C176.369 190.35 177.349 189.53 178.229 188.99C179.129 188.43 180.029 188.07 180.929 187.91C181.829 187.73 182.849 187.64 183.989 187.64C186.669 187.64 188.729 188.41 190.169 189.95C191.629 191.49 192.359 193.69 192.359 196.55V215.78L195.059 216.95V218H177.539V216.95ZM215.196 199.49L214.986 201.44C213.806 201.88 212.846 202.32 212.106 202.76C211.386 203.2 210.836 203.68 210.456 204.2C210.076 204.7 209.816 205.26 209.676 205.88C209.536 206.5 209.466 207.2 209.466 207.98C209.466 209.48 209.686 210.54 210.126 211.16C210.566 211.78 211.196 212.09 212.016 212.09C212.436 212.09 212.806 211.99 213.126 211.79C213.446 211.57 213.686 211.24 213.846 210.8C214.026 210.34 214.116 209.74 214.116 209V195.11C214.116 193.83 213.746 192.81 213.006 192.05C212.266 191.27 211.126 190.88 209.586 190.88C208.806 190.88 208.116 190.91 207.516 190.97C206.916 191.01 206.376 191.08 205.896 191.18L206.916 189.02C206.716 190.68 206.526 191.98 206.346 192.92C206.186 193.84 206.016 194.55 205.836 195.05C205.656 195.53 205.446 195.93 205.206 196.25C204.866 196.73 204.346 197.13 203.646 197.45C202.966 197.77 202.186 197.93 201.306 197.93C200.126 197.93 199.266 197.75 198.726 197.39C198.206 197.01 197.946 196.51 197.946 195.89C197.946 194.95 198.416 193.99 199.356 193.01C200.316 192.01 201.596 191.09 203.196 190.25C204.816 189.39 206.656 188.7 208.716 188.18C210.776 187.66 212.916 187.4 215.136 187.4C217.996 187.4 220.266 187.82 221.946 188.66C223.646 189.48 224.856 190.64 225.576 192.14C226.296 193.64 226.656 195.41 226.656 197.45V212.09C226.656 212.51 226.716 212.86 226.836 213.14C226.976 213.42 227.176 213.63 227.436 213.77C227.696 213.91 228.016 213.98 228.396 213.98C228.776 213.98 229.156 213.94 229.536 213.86C229.936 213.76 230.346 213.62 230.766 213.44V215.39C229.286 216.57 227.816 217.45 226.356 218.03C224.916 218.61 223.286 218.9 221.466 218.9C219.766 218.9 218.396 218.6 217.356 218C216.316 217.42 215.556 216.51 215.076 215.27C214.596 214.01 214.326 212.4 214.266 210.44L214.806 210.77C214.366 212.69 213.746 214.24 212.946 215.42C212.166 216.6 211.226 217.46 210.126 218C209.026 218.56 207.776 218.84 206.376 218.84C203.456 218.84 201.256 218.13 199.776 216.71C198.316 215.29 197.586 213.38 197.586 210.98C197.586 209.8 197.796 208.73 198.216 207.77C198.656 206.81 199.476 205.9 200.676 205.04C201.896 204.18 203.666 203.3 205.986 202.4C208.326 201.5 211.396 200.53 215.196 199.49ZM241.162 184.79C239.382 184.79 237.962 184.23 236.902 183.11C235.862 181.99 235.342 180.65 235.342 179.09C235.342 177.59 235.862 176.32 236.902 175.28C237.962 174.24 239.382 173.72 241.162 173.72C242.982 173.72 244.402 174.24 245.422 175.28C246.462 176.32 246.982 177.59 246.982 179.09C246.982 180.65 246.462 181.99 245.422 183.11C244.402 184.23 242.982 184.79 241.162 184.79ZM235.102 196.43C234.862 196.11 234.592 195.77 234.292 195.41C233.992 195.03 233.632 194.6 233.212 194.12C232.792 193.62 232.282 193.03 231.682 192.35V191.3L246.742 187.4H247.762L247.642 194.03V214.1C247.642 215.52 247.542 216.77 247.342 217.85C247.162 218.93 246.782 219.95 246.202 220.91C245.622 221.89 244.752 222.9 243.592 223.94C242.452 224.98 240.932 226.15 239.032 227.45C237.132 228.77 234.752 230.34 231.892 232.16L231.142 231.2C232.062 230.02 232.782 229.02 233.302 228.2C233.842 227.38 234.232 226.62 234.472 225.92C234.732 225.24 234.902 224.52 234.982 223.76C235.062 223.02 235.102 222.13 235.102 221.09V196.43Z" fill="white"></path></svg>