<svg xmlns="http://www.w3.org/2000/svg" width="167" height="279" viewBox="0 0 167 279" fill="none"><path d="M115.324 96.9453H133.084" stroke="white" stroke-linecap="round" stroke-linejoin="round"></path><path d="M133.078 93.7383H113.031" stroke="white" stroke-linecap="round" stroke-linejoin="round"></path><path d="M115.324 132.465H133.084" stroke="white" stroke-linecap="round" stroke-linejoin="round"></path><path d="M115.324 163.18H133.084" stroke="white" stroke-linecap="round" stroke-linejoin="round"></path><path d="M138.082 122.381H128.082V111.667L133.082 104.488L138.082 111.667V122.381Z" stroke="white" stroke-linecap="round" stroke-linejoin="round"></path><path d="M120.627 99.125V101.557H118.195V103.989H120.627V106.422H118.195V108.854H120.627V111.286H118.195V113.718H120.627V116.15H118.195V118.583H120.627V121.016H118.195V123.449H120.627V125.881H118.195V128.313H120.627V130.746" stroke="white" stroke-linecap="round" stroke-linejoin="round"></path><path d="M120.627 134.41V136.842H118.195V139.275H120.627V141.707H118.195V144.139H120.627V146.572H118.195V149.004H120.627V151.437H118.195V153.869H120.627V156.301H118.195V158.734H120.627V161.166" stroke="white" stroke-linecap="round" stroke-linejoin="round"></path><path d="M130.102 116.196C130.104 115.802 130.261 115.424 130.54 115.145C130.819 114.866 131.197 114.709 131.592 114.707C132.409 114.707 133.081 115.379 133.082 116.196V122.385H130.103L130.102 116.196Z" stroke="white" stroke-linecap="round" stroke-linejoin="round"></path><path d="M133.083 116.196C133.085 115.802 133.243 115.424 133.521 115.145C133.8 114.867 134.178 114.709 134.572 114.707C134.966 114.709 135.344 114.867 135.623 115.145C135.902 115.424 136.06 115.802 136.062 116.196V122.385H133.082L133.083 116.196Z" stroke="white" stroke-linecap="round" stroke-linejoin="round"></path><path d="M131.594 52.1423C131.594 51.3253 132.267 50.6523 133.084 50.6523H133.085C133.902 50.6523 134.574 51.3243 134.574 52.1413V57.5273H131.595L131.594 52.1423Z" stroke="white" stroke-linecap="round" stroke-linejoin="round"></path><path d="M128.614 57.5273L128.613 52.1413C128.613 51.3243 129.285 50.6523 130.102 50.6523H130.103C130.92 50.6523 131.593 51.3253 131.593 52.1423V57.5273H128.614Z" stroke="white" stroke-linecap="round" stroke-linejoin="round"></path><path d="M130.102 111.668H136.061" stroke="white" stroke-linecap="round" stroke-linejoin="round"></path><path d="M138.082 152.31H128.082V141.596L133.082 134.418L138.082 141.596V152.31Z" stroke="white" stroke-linecap="round" stroke-linejoin="round"></path><path d="M130.102 146.119C130.104 145.724 130.262 145.347 130.541 145.068C130.819 144.789 131.197 144.631 131.592 144.629C131.986 144.631 132.364 144.789 132.643 145.068C132.921 145.347 133.079 145.724 133.082 146.119V152.307H130.103L130.102 146.119Z" stroke="white" stroke-linecap="round" stroke-linejoin="round"></path><path d="M84.2734 172.869C84.2734 172.369 84.6854 171.957 85.1854 171.957C85.6854 171.957 86.0974 172.369 86.0974 172.869V176.656H84.2744L84.2734 172.869Z" stroke="white" stroke-linecap="round" stroke-linejoin="round"></path><path d="M133.083 146.119C133.085 145.725 133.243 145.347 133.521 145.068C133.8 144.789 134.178 144.631 134.572 144.629C134.966 144.631 135.344 144.789 135.623 145.068C135.902 145.347 136.06 145.724 136.062 146.119V152.307H133.082L133.083 146.119Z" stroke="white" stroke-linecap="round" stroke-linejoin="round"></path><path d="M130.102 141.594H136.061" stroke="white" stroke-linecap="round" stroke-linejoin="round"></path><path d="M120.02 86.1758H133.083" stroke="white" stroke-linecap="round" stroke-linejoin="round"></path><path d="M133.083 82.2773H120.02" stroke="white" stroke-linecap="round" stroke-linejoin="round"></path><path d="M126.781 57.5273H133.081" stroke="white" stroke-linecap="round" stroke-linejoin="round"></path><path d="M129.188 61.6562H133.088" stroke="white" stroke-linecap="round" stroke-linejoin="round"></path><path d="M126.781 47.1016H133.081" stroke="white" stroke-linecap="round" stroke-linejoin="round"></path><path d="M150.843 96.9453H133.082" stroke="white" stroke-linecap="round" stroke-linejoin="round"></path><path d="M133.082 93.7383H153.134" stroke="white" stroke-linecap="round" stroke-linejoin="round"></path><path d="M147.958 172.57H133.082" stroke="white" stroke-linecap="round" stroke-linejoin="round"></path><path d="M150.843 132.465H133.082" stroke="white" stroke-linecap="round" stroke-linejoin="round"></path><path d="M150.843 163.18H133.082" stroke="white" stroke-linecap="round" stroke-linejoin="round"></path><path d="M145.54 99.125V101.557H147.972V103.989H145.539V106.422H147.972V108.854H145.539V111.286H147.972V113.718H145.539V116.15H147.972V118.583H145.539V121.016H147.972V123.449H145.539V125.881H147.972V128.313H145.539V130.746" stroke="white" stroke-linecap="round" stroke-linejoin="round"></path><path d="M145.54 134.41V136.842H147.972V139.275H145.539V141.707H147.972V144.139H145.539V146.572H147.972V149.004H145.539V151.437H147.972V153.869H145.539V156.301H147.972V158.734H145.539V161.166" stroke="white" stroke-linecap="round" stroke-linejoin="round"></path><path d="M137.549 52.1423C137.549 51.3253 136.877 50.6533 136.06 50.6523C135.243 50.6523 134.57 51.3253 134.57 52.1423V57.5273H137.549V52.1423Z" stroke="white" stroke-linecap="round" stroke-linejoin="round"></path><path d="M146.145 86.1758H133.082" stroke="white" stroke-linecap="round" stroke-linejoin="round"></path><path d="M133.082 82.2773H146.145" stroke="white" stroke-linecap="round" stroke-linejoin="round"></path><path d="M139.39 57.5273H133.09" stroke="white" stroke-linecap="round" stroke-linejoin="round"></path><path d="M136.978 61.6562H133.078" stroke="white" stroke-linecap="round" stroke-linejoin="round"></path><path d="M139.39 47.1016H133.09" stroke="white" stroke-linecap="round" stroke-linejoin="round"></path><path d="M117.556 277.301H58.6641" stroke="white" stroke-linecap="round" stroke-linejoin="round"></path><path d="M115.324 201.473V270.421" stroke="white" stroke-linecap="round" stroke-linejoin="round"></path><path d="M58.6641 191.016L70.3511 213.703H76.0231V221.09L73.7881 223.668V270.417L76.0231 271.448V277.294" stroke="white" stroke-linecap="round" stroke-linejoin="round"></path><path d="M76.0231 221.094H58.6641" stroke="white" stroke-linecap="round" stroke-linejoin="round"></path><path d="M73.7881 223.672H58.6641" stroke="white" stroke-linecap="round" stroke-linejoin="round"></path><path d="M60.6388 217.659V208.722C60.6904 207.873 60.5375 207.024 60.1929 206.247C59.8484 205.469 59.3223 204.786 58.6589 204.254C57.9958 204.786 57.4702 205.47 57.1262 206.248C56.7822 207.025 56.6298 207.874 56.6818 208.723V217.66L60.6388 217.659Z" stroke="white" stroke-linecap="round" stroke-linejoin="round"></path><path d="M68.3907 277.301V251.691C68.3907 236.037 58.6607 229.691 58.6607 229.691C58.6607 229.691 48.9297 236.037 48.9297 251.691V277.301H68.3907Z" stroke="white" stroke-linecap="round" stroke-linejoin="round"></path><path d="M100.207 259.212V244.335C100.207 235.242 94.5554 231.555 94.5554 231.555C94.5554 231.555 88.9023 235.241 88.9023 244.335V259.212H100.207Z" stroke="white" stroke-linecap="round" stroke-linejoin="round"></path><path d="M97.3829 234.535C95.4578 237.435 94.4708 240.856 94.5558 244.335V259.212" stroke="white" stroke-linecap="round" stroke-linejoin="round"></path><path d="M52.1758 260.616C52.1758 257.057 55.1038 254.129 58.6628 254.129C62.2218 254.129 65.1508 257.057 65.1508 260.616V277.301H52.1758V260.616Z" stroke="white" stroke-linecap="round" stroke-linejoin="round"></path><path d="M70.6937 231.225C70.6911 231.834 70.448 232.418 70.0172 232.848C69.5864 233.279 69.0029 233.522 68.3938 233.525C67.7846 233.522 67.2011 233.279 66.7703 232.848C66.3395 232.418 66.0964 231.834 66.0938 231.225V227.5H70.6998L70.6937 231.225Z" stroke="white" stroke-linecap="round" stroke-linejoin="round"></path><path d="M98.6016 182.876C98.6006 190.237 92.5446 196.293 85.1836 196.294C77.8226 196.293 71.7666 190.237 71.7656 182.876V164.32H98.6016V182.876Z" stroke="white" stroke-linecap="round" stroke-linejoin="round"></path><path d="M52.1758 265.527V237.527" stroke="white" stroke-linecap="round" stroke-linejoin="round"></path><path d="M55.418 254.998V232.715" stroke="white" stroke-linecap="round" stroke-linejoin="round"></path><path d="M58.6641 254.125V229.688" stroke="white" stroke-linecap="round" stroke-linejoin="round"></path><path d="M61.9062 255V232.715" stroke="white" stroke-linecap="round" stroke-linejoin="round"></path><path d="M65.1484 265.527V237.527" stroke="white" stroke-linecap="round" stroke-linejoin="round"></path><path d="M115.323 221.094H76.0234" stroke="white" stroke-linecap="round" stroke-linejoin="round"></path><path d="M64.0469 201.473H115.323" stroke="white" stroke-linecap="round" stroke-linejoin="round"></path><path d="M76.0195 213.703H115.32" stroke="white" stroke-linecap="round" stroke-linejoin="round"></path><path d="M78.1992 215.711V219.091" stroke="white" stroke-linecap="round" stroke-linejoin="round"></path><path d="M81.0625 215.711V219.091" stroke="white" stroke-linecap="round" stroke-linejoin="round"></path><path d="M83.9258 215.711V219.091" stroke="white" stroke-linecap="round" stroke-linejoin="round"></path><path d="M86.793 215.711V219.091" stroke="white" stroke-linecap="round" stroke-linejoin="round"></path><path d="M89.6562 215.711V219.091" stroke="white" stroke-linecap="round" stroke-linejoin="round"></path><path d="M92.5195 215.711V219.091" stroke="white" stroke-linecap="round" stroke-linejoin="round"></path><path d="M95.3828 215.711V219.091" stroke="white" stroke-linecap="round" stroke-linejoin="round"></path><path d="M98.2539 215.711V219.091" stroke="white" stroke-linecap="round" stroke-linejoin="round"></path><path d="M101.113 215.711V219.091" stroke="white" stroke-linecap="round" stroke-linejoin="round"></path><path d="M103.98 215.711V219.091" stroke="white" stroke-linecap="round" stroke-linejoin="round"></path><path d="M106.844 215.711V219.091" stroke="white" stroke-linecap="round" stroke-linejoin="round"></path><path d="M109.707 215.711V219.091" stroke="white" stroke-linecap="round" stroke-linejoin="round"></path><path d="M112.57 215.711V219.091" stroke="white" stroke-linecap="round" stroke-linejoin="round"></path><path d="M71.75 204.254L73.695 207.445L71.75 210.638H76.937L74.993 207.445L76.937 204.254H71.75Z" stroke="white" stroke-linecap="round" stroke-linejoin="round"></path><path d="M79.9961 204.254L81.9401 207.445L79.9961 210.638H85.1841L83.2391 207.445L85.1841 204.254H79.9961Z" stroke="white" stroke-linecap="round" stroke-linejoin="round"></path><path d="M88.2422 204.255L90.1872 207.446L88.2422 210.639H93.4302L91.4852 207.445L93.4302 204.254L88.2422 204.255Z" stroke="white" stroke-linecap="round" stroke-linejoin="round"></path><path d="M96.4922 204.254L98.4372 207.445L96.4922 210.638H101.68L99.7352 207.445L101.68 204.254H96.4922Z" stroke="white" stroke-linecap="round" stroke-linejoin="round"></path><path d="M109.926 204.254H104.738L106.683 207.445L104.738 210.638H109.926L107.981 207.445L109.926 204.254Z" stroke="white" stroke-linecap="round" stroke-linejoin="round"></path><path d="M73.7852 259.211H109.923" stroke="white" stroke-linecap="round" stroke-linejoin="round"></path><path d="M91.7266 234.535C93.6516 237.435 94.6386 240.856 94.5536 244.335V259.212" stroke="white" stroke-linecap="round" stroke-linejoin="round"></path><path d="M129.751 259.213V237.949C129.751 233.401 126.925 231.559 126.925 231.559C126.925 231.559 124.098 233.401 124.098 237.949V259.216L129.751 259.213Z" stroke="white" stroke-linecap="round" stroke-linejoin="round"></path><path d="M128.336 233.043C127.375 234.493 126.882 236.203 126.924 237.943V259.21" stroke="white" stroke-linecap="round" stroke-linejoin="round"></path><path d="M125.512 233.043C126.475 234.492 126.969 236.203 126.926 237.943V259.21" stroke="white" stroke-linecap="round" stroke-linejoin="round"></path><path d="M154.869 259.212V229.254C154.869 222.734 150.815 220.09 150.815 220.09C150.815 220.09 146.762 222.733 146.762 229.254V259.212H154.869Z" stroke="white" stroke-linecap="round" stroke-linejoin="round"></path><path d="M152.843 222.227C151.463 224.306 150.755 226.759 150.816 229.255" stroke="white" stroke-linecap="round" stroke-linejoin="round"></path><path d="M148.789 222.227C150.168 224.307 150.875 226.76 150.815 229.255C150.815 235.775 150.867 259.212 150.867 259.212" stroke="white" stroke-linecap="round" stroke-linejoin="round"></path><path d="M115.322 270.423V227.5H109.922V277.3" stroke="white" stroke-linecap="round" stroke-linejoin="round"></path><path d="M75.082 186.637L77.1 188.859L79.119 186.637L81.14 188.859L83.161 186.637L85.181 188.859L87.201 186.637L89.222 188.859L91.243 186.637L93.266 188.859L95.289 186.637" stroke="white" stroke-linecap="round" stroke-linejoin="round"></path><path d="M75.082 181.977L77.1 184.2L79.119 181.977L81.14 184.2L83.161 181.977L85.181 184.2L87.201 181.977L89.222 184.2L91.243 181.977L93.266 184.2L95.289 181.977" stroke="white" stroke-linecap="round" stroke-linejoin="round"></path><path d="M75.082 179.617V171.465H78.642V174.817H81.606V171.465L80.618 170.52V167.641H85.185" stroke="white" stroke-linecap="round" stroke-linejoin="round"></path><path d="M95.2904 179.617V171.465H91.7304V174.817H88.7694V171.465L89.7584 170.52V167.641H85.1914" stroke="white" stroke-linecap="round" stroke-linejoin="round"></path><path d="M58.6641 181.676L68.8641 201.476" stroke="white" stroke-linecap="round" stroke-linejoin="round"></path><path d="M58.7578 172.52L73.6728 201.475" stroke="white" stroke-linecap="round" stroke-linejoin="round"></path><path d="M58.6641 162.996L78.4881 201.478" stroke="white" stroke-linecap="round" stroke-linejoin="round"></path><path d="M80.0703 195.211L83.2943 201.472" stroke="white" stroke-linecap="round" stroke-linejoin="round"></path><path d="M59.0508 154.41L71.7638 179.089" stroke="white" stroke-linecap="round" stroke-linejoin="round"></path><path d="M85.4414 196.293L88.1104 201.476" stroke="white" stroke-linecap="round" stroke-linejoin="round"></path><path d="M63.8633 154.406L71.7633 169.748" stroke="white" stroke-linecap="round" stroke-linejoin="round"></path><path d="M89.8281 195.469L92.9211 201.469" stroke="white" stroke-linecap="round" stroke-linejoin="round"></path><path d="M68.6797 154.41L73.7797 164.318" stroke="white" stroke-linecap="round" stroke-linejoin="round"></path><path d="M93.5547 193.359L97.7347 201.471" stroke="white" stroke-linecap="round" stroke-linejoin="round"></path><path d="M73.4883 154.406L78.5973 164.324" stroke="white" stroke-linecap="round" stroke-linejoin="round"></path><path d="M96.5977 189.93L102.548 201.479" stroke="white" stroke-linecap="round" stroke-linejoin="round"></path><path d="M78.3008 154.41L83.4008 164.318" stroke="white" stroke-linecap="round" stroke-linejoin="round"></path><path d="M98.5234 184.324L107.357 201.473" stroke="white" stroke-linecap="round" stroke-linejoin="round"></path><path d="M83.1172 154.41L88.2172 164.32" stroke="white" stroke-linecap="round" stroke-linejoin="round"></path><path d="M98.6016 175.133L112.172 201.475" stroke="white" stroke-linecap="round" stroke-linejoin="round"></path><path d="M87.9258 154.41L93.0258 164.318" stroke="white" stroke-linecap="round" stroke-linejoin="round"></path><path d="M98.6016 165.789L115.322 198.243" stroke="white" stroke-linecap="round" stroke-linejoin="round"></path><path d="M92.7422 154.41L97.8422 164.319" stroke="white" stroke-linecap="round" stroke-linejoin="round"></path><path d="M97.5508 154.41L115.322 188.91" stroke="white" stroke-linecap="round" stroke-linejoin="round"></path><path d="M102.363 154.41L115.32 179.562" stroke="white" stroke-linecap="round" stroke-linejoin="round"></path><path d="M107.18 154.41L115.325 170.222" stroke="white" stroke-linecap="round" stroke-linejoin="round"></path><path d="M111.988 154.41L115.32 160.879" stroke="white" stroke-linecap="round" stroke-linejoin="round"></path><path d="M33.0466 172.869C33.0466 172.369 32.6347 171.957 32.1347 171.957C31.6347 171.957 31.2227 172.369 31.2227 172.869V176.656H33.0457L33.0466 172.869Z" stroke="white" stroke-linecap="round" stroke-linejoin="round"></path><path d="M58.6608 191.016L46.9728 213.703H41.3008V221.09L43.5358 223.668V270.417L41.3008 271.448V277.294" stroke="white" stroke-linecap="round" stroke-linejoin="round"></path><path d="M41.3008 221.094H58.6608" stroke="white" stroke-linecap="round" stroke-linejoin="round"></path><path d="M43.5391 223.672H58.6641" stroke="white" stroke-linecap="round" stroke-linejoin="round"></path><path d="M17.1172 259.212V244.335C17.1172 235.242 22.7702 231.555 22.7702 231.555C22.7702 231.555 28.4222 235.241 28.4222 244.335V259.212H17.1172Z" stroke="white" stroke-linecap="round" stroke-linejoin="round"></path><path d="M19.9414 234.535C21.8665 237.435 22.8534 240.856 22.7684 244.335V259.212" stroke="white" stroke-linecap="round" stroke-linejoin="round"></path><path d="M48.9331 249.883H43.5391" stroke="white" stroke-linecap="round" stroke-linejoin="round"></path><path d="M46.6271 231.225C46.6297 231.834 46.8729 232.418 47.3036 232.848C47.7344 233.279 48.3179 233.522 48.9271 233.525C49.5363 233.522 50.1198 233.279 50.5505 232.848C50.9813 232.418 51.2245 231.834 51.2271 231.225V227.5H46.6211L46.6271 231.225Z" stroke="white" stroke-linecap="round" stroke-linejoin="round"></path><path d="M18.7188 182.876C18.7198 190.237 24.7757 196.293 32.1367 196.294C39.4977 196.294 45.5547 190.237 45.5557 182.876V164.32H18.7188V182.876Z" stroke="white" stroke-linecap="round" stroke-linejoin="round"></path><path d="M53.274 201.473H2" stroke="white" stroke-linecap="round" stroke-linejoin="round"></path><path d="M41.3039 213.703H2.00391" stroke="white" stroke-linecap="round" stroke-linejoin="round"></path><path d="M41.3039 221.094H2.00391" stroke="white" stroke-linecap="round" stroke-linejoin="round"></path><path d="M39.125 215.711V219.091" stroke="white" stroke-linecap="round" stroke-linejoin="round"></path><path d="M36.2617 215.711V219.091" stroke="white" stroke-linecap="round" stroke-linejoin="round"></path><path d="M33.3984 215.711V219.091" stroke="white" stroke-linecap="round" stroke-linejoin="round"></path><path d="M30.5312 215.711V219.091" stroke="white" stroke-linecap="round" stroke-linejoin="round"></path><path d="M27.668 215.711V219.091" stroke="white" stroke-linecap="round" stroke-linejoin="round"></path><path d="M24.8047 215.711V219.091" stroke="white" stroke-linecap="round" stroke-linejoin="round"></path><path d="M21.9375 215.711V219.091" stroke="white" stroke-linecap="round" stroke-linejoin="round"></path><path d="M19.0742 215.711V219.091" stroke="white" stroke-linecap="round" stroke-linejoin="round"></path><path d="M16.207 215.711V219.091" stroke="white" stroke-linecap="round" stroke-linejoin="round"></path><path d="M13.3438 215.711V219.091" stroke="white" stroke-linecap="round" stroke-linejoin="round"></path><path d="M10.4766 215.711V219.091" stroke="white" stroke-linecap="round" stroke-linejoin="round"></path><path d="M7.61719 215.711V219.091" stroke="white" stroke-linecap="round" stroke-linejoin="round"></path><path d="M4.75 215.711V219.091" stroke="white" stroke-linecap="round" stroke-linejoin="round"></path><path d="M45.5708 204.254H40.3828L42.3278 207.445L40.3828 210.638H45.5708L43.6248 207.445L45.5708 204.254Z" stroke="white" stroke-linecap="round" stroke-linejoin="round"></path><path d="M32.1406 204.255L34.0856 207.446L32.1406 210.638H37.3296L35.3846 207.445L37.3296 204.254L32.1406 204.255Z" stroke="white" stroke-linecap="round" stroke-linejoin="round"></path><path d="M23.8906 204.254L25.8366 207.445L23.8906 210.638H29.0786L27.1346 207.445L29.0786 204.254H23.8906Z" stroke="white" stroke-linecap="round" stroke-linejoin="round"></path><path d="M15.6445 204.254L17.5885 207.445L15.6445 210.638H20.8325L18.8865 207.445L20.8325 204.254H15.6445Z" stroke="white" stroke-linecap="round" stroke-linejoin="round"></path><path d="M7.39844 204.255L9.34344 207.446L7.39844 210.639H12.5864L10.6414 207.445L12.5864 204.254L7.39844 204.255Z" stroke="white" stroke-linecap="round" stroke-linejoin="round"></path><path d="M43.5364 259.211H7.39844" stroke="white" stroke-linecap="round" stroke-linejoin="round"></path><path d="M25.5967 234.535C23.6724 237.435 22.6858 240.856 22.7707 244.335V259.212" stroke="white" stroke-linecap="round" stroke-linejoin="round"></path><path d="M2 227.5H7.40001V277.3H2V227.5Z" stroke="white" stroke-linecap="round" stroke-linejoin="round"></path><path d="M42.2383 186.637L40.2203 188.859L38.2013 186.637L36.1803 188.859L34.1603 186.637L32.1393 188.859L30.1193 186.637L28.0993 188.859L26.0783 186.637L24.0543 188.859L22.0312 186.637" stroke="white" stroke-linecap="round" stroke-linejoin="round"></path><path d="M42.2383 181.977L40.2203 184.2L38.2013 181.977L36.1803 184.2L34.1603 181.977L32.1393 184.2L30.1193 181.977L28.0993 184.2L26.0783 181.977L24.0543 184.2L22.0312 181.977" stroke="white" stroke-linecap="round" stroke-linejoin="round"></path><path d="M42.2406 179.617V171.465H38.6816V174.817H35.7166V171.465L36.7056 170.52V167.641H32.1406" stroke="white" stroke-linecap="round" stroke-linejoin="round"></path><path d="M22.0352 179.617V171.465H25.5972V174.817H28.5612V171.465L27.5732 170.52V167.641H32.1402" stroke="white" stroke-linecap="round" stroke-linejoin="round"></path><path d="M58.6609 181.676L48.4609 201.476" stroke="white" stroke-linecap="round" stroke-linejoin="round"></path><path d="M58.5644 172.52L43.6484 201.475" stroke="white" stroke-linecap="round" stroke-linejoin="round"></path><path d="M58.6609 162.996L38.8359 201.478" stroke="white" stroke-linecap="round" stroke-linejoin="round"></path><path d="M37.2484 195.211L34.0234 201.472" stroke="white" stroke-linecap="round" stroke-linejoin="round"></path><path d="M58.2716 154.41L45.5586 179.089" stroke="white" stroke-linecap="round" stroke-linejoin="round"></path><path d="M31.8809 196.293L29.2109 201.476" stroke="white" stroke-linecap="round" stroke-linejoin="round"></path><path d="M53.4586 154.406L45.5586 169.748" stroke="white" stroke-linecap="round" stroke-linejoin="round"></path><path d="M27.4953 195.469L24.4023 201.469" stroke="white" stroke-linecap="round" stroke-linejoin="round"></path><path d="M48.6469 154.41L43.5469 164.318" stroke="white" stroke-linecap="round" stroke-linejoin="round"></path><path d="M23.7728 193.359L19.5938 201.471" stroke="white" stroke-linecap="round" stroke-linejoin="round"></path><path d="M43.8346 154.406L38.7266 164.324" stroke="white" stroke-linecap="round" stroke-linejoin="round"></path><path d="M20.7224 189.93L14.7734 201.479" stroke="white" stroke-linecap="round" stroke-linejoin="round"></path><path d="M39.0219 154.41L33.9219 164.318" stroke="white" stroke-linecap="round" stroke-linejoin="round"></path><path d="M18.7988 184.324L9.96484 201.473" stroke="white" stroke-linecap="round" stroke-linejoin="round"></path><path d="M34.2094 154.41L29.1094 164.32" stroke="white" stroke-linecap="round" stroke-linejoin="round"></path><path d="M18.7184 175.133L5.14844 201.475" stroke="white" stroke-linecap="round" stroke-linejoin="round"></path><path d="M29.3969 154.41L24.2969 164.318" stroke="white" stroke-linecap="round" stroke-linejoin="round"></path><path d="M18.7219 165.789L2.00391 198.243" stroke="white" stroke-linecap="round" stroke-linejoin="round"></path><path d="M24.5844 154.41L19.4844 164.319" stroke="white" stroke-linecap="round" stroke-linejoin="round"></path><path d="M19.772 154.41L2 188.91M14.96 154.41L2.002 179.562M10.147 154.41L2.00101 170.222M5.33501 154.41L2.002 160.879" stroke="white" stroke-linecap="round" stroke-linejoin="round"></path><path d="M115.324 270.422L117.559 271.453V277.299" stroke="white" stroke-linecap="round" stroke-linejoin="round"></path><path d="M136.293 261.828H117.844" stroke="white" stroke-linecap="round" stroke-linejoin="round"></path><path d="M117.836 259.211H136.286" stroke="white" stroke-linecap="round" stroke-linejoin="round"></path><path d="M162.415 261.828H140.523" stroke="white" stroke-linecap="round" stroke-linejoin="round"></path><path d="M140.523 259.211H162.412" stroke="white" stroke-linecap="round" stroke-linejoin="round"></path><path d="M136.293 221.094H117.844" stroke="white" stroke-linecap="round" stroke-linejoin="round"></path><path d="M120.82 271.453H133.883" stroke="white" stroke-linecap="round" stroke-linejoin="round"></path><path d="M141.215 271.453H160.928" stroke="white" stroke-linecap="round" stroke-linejoin="round"></path><path d="M79.0625 271.453H106.671" stroke="white" stroke-linecap="round" stroke-linejoin="round"></path><path d="M10.6484 271.453H38.2584" stroke="white" stroke-linecap="round" stroke-linejoin="round"></path><path d="M150.843 162.996L139.27 201.472H150.843" stroke="white" stroke-linecap="round" stroke-linejoin="round"></path><path d="M144.539 201.473H115.32" stroke="white" stroke-linecap="round" stroke-linejoin="round"></path><path d="M142.211 204.219H149.626V211.634H142.211V204.219Z" stroke="white" stroke-linecap="round" stroke-linejoin="round"></path><path d="M146.903 206.939C146.902 206.678 146.797 206.428 146.612 206.243C146.428 206.059 146.177 205.954 145.916 205.953C145.655 205.954 145.405 206.058 145.22 206.243C145.036 206.428 144.931 206.678 144.93 206.939C144.669 206.94 144.419 207.045 144.235 207.229C144.05 207.414 143.946 207.664 143.945 207.925V207.927C143.945 208.467 144.39 208.912 144.93 208.912C144.931 209.173 145.036 209.423 145.22 209.608C145.405 209.793 145.655 209.897 145.916 209.898C146.177 209.897 146.428 209.793 146.612 209.608C146.797 209.423 146.902 209.173 146.903 208.912C147.164 208.911 147.414 208.806 147.599 208.622C147.783 208.437 147.887 208.187 147.888 207.926C147.887 207.665 147.783 207.415 147.599 207.23C147.414 207.045 147.164 206.941 146.903 206.939Z" stroke="white" stroke-linecap="round" stroke-linejoin="round"></path><path d="M162.416 201.473H150.844" stroke="white" stroke-linecap="round" stroke-linejoin="round"></path><path d="M152.066 204.219H159.481V211.634H152.066V204.219Z" stroke="white" stroke-linecap="round" stroke-linejoin="round"></path><path d="M154.783 206.939C154.784 206.678 154.888 206.428 155.073 206.243C155.258 206.058 155.508 205.954 155.769 205.953C156.03 205.954 156.28 206.058 156.465 206.243C156.65 206.428 156.754 206.678 156.755 206.939C157.016 206.941 157.266 207.045 157.451 207.23C157.635 207.415 157.74 207.665 157.741 207.926C157.74 208.187 157.636 208.437 157.451 208.622C157.266 208.807 157.016 208.911 156.755 208.912C156.754 209.173 156.65 209.423 156.465 209.608C156.28 209.793 156.03 209.897 155.769 209.898C155.508 209.897 155.258 209.793 155.073 209.608C154.888 209.423 154.784 209.173 154.783 208.912C154.522 208.911 154.272 208.807 154.087 208.622C153.902 208.437 153.798 208.187 153.797 207.926C153.798 207.665 153.902 207.414 154.087 207.229C154.272 207.044 154.522 206.94 154.783 206.939Z" stroke="white" stroke-linecap="round" stroke-linejoin="round"></path><path d="M150.815 180.305L147.887 191.532H150.815" stroke="white" stroke-linecap="round" stroke-linejoin="round"></path><path d="M147.887 191.531V201.475" stroke="white" stroke-linecap="round" stroke-linejoin="round"></path><path d="M150.867 180.305L153.795 191.532H150.867" stroke="white" stroke-linecap="round" stroke-linejoin="round"></path><path d="M153.797 191.531V201.475" stroke="white" stroke-linecap="round" stroke-linejoin="round"></path><path d="M141.552 193.879L137.605 201.472" stroke="white" stroke-linecap="round" stroke-linejoin="round"></path><path d="M147.85 172.512L132.793 201.478" stroke="white" stroke-linecap="round" stroke-linejoin="round"></path><path d="M143.006 172.57L127.977 201.477" stroke="white" stroke-linecap="round" stroke-linejoin="round"></path><path d="M138.191 172.57L123.168 201.47" stroke="white" stroke-linecap="round" stroke-linejoin="round"></path><path d="M133.381 172.57L118.359 201.478" stroke="white" stroke-linecap="round" stroke-linejoin="round"></path><path d="M128.597 172.57L115.297 198.234" stroke="white" stroke-linecap="round" stroke-linejoin="round"></path><path d="M123.774 172.57L115.305 188.899" stroke="white" stroke-linecap="round" stroke-linejoin="round"></path><path d="M118.951 172.57L115.32 179.562M115.324 172.57H133.084" stroke="white" stroke-linecap="round" stroke-linejoin="round"></path><path d="M115.324 172.57V201.47" stroke="white" stroke-width="3" stroke-linecap="round" stroke-linejoin="round"></path><path d="M115.324 201.473L136.293 221.095" stroke="white" stroke-width="3" stroke-linecap="round" stroke-linejoin="round"></path><path d="M136.297 221.094V259.21" stroke="white" stroke-width="3" stroke-linecap="round" stroke-linejoin="round"></path><path d="M136.297 261.828V270.422L138.531 271.453V277.299" stroke="white" stroke-width="3" stroke-linecap="round" stroke-linejoin="round"></path><path d="M136.297 259.211L138.531 261.829H136.297" stroke="white" stroke-width="3" stroke-linecap="round" stroke-linejoin="round"></path><path d="M115.324 154.41V172.57" stroke="white" stroke-width="3" stroke-linecap="round" stroke-linejoin="round"></path><path d="M115.321 96.9458V154.41H2V277.3H164.647V271.454L162.412 270.423V261.834H164.646L162.411 259.216V201.476L150.839 163V96.9508L153.13 93.7428C148.89 93.7428 153.13 86.1798 146.141 86.1798C146.657 86.1774 147.151 85.9714 147.516 85.6066C147.881 85.2418 148.087 84.7477 148.089 84.2318C148.086 83.7161 147.88 83.2224 147.515 82.8579C147.15 82.4933 146.657 82.2874 146.141 82.2848C150.151 82.2848 152.72 75.4098 145.534 71.8568C138.348 68.3038 139.381 57.5338 139.381 57.5338V47.1068L136.981 40.6868C136.981 40.6868 141.965 39.4258 138.081 34.4988C135.138 30.7618 133.081 26.5938 133.081 17.4258C133.081 26.5938 131.023 30.7618 128.081 34.4988C124.201 39.4258 129.181 40.6868 129.181 40.6868L126.775 47.1038V57.5338C126.775 57.5338 127.806 68.3048 120.62 71.8568C113.434 75.4088 116.003 82.2848 120.013 82.2848C119.497 82.2871 119.003 82.493 118.639 82.8577C118.274 83.2223 118.068 83.7161 118.066 84.2318V84.2328C118.066 85.3008 118.945 86.1798 120.013 86.1798C113.025 86.1798 117.263 93.7428 113.025 93.7428L115.321 96.9458Z" stroke="white" stroke-width="3" stroke-linecap="round" stroke-linejoin="round"></path><path d="M134.574 15.6501V15.6512C134.574 16.4682 133.902 17.1402 133.085 17.1402H133.084C132.267 17.1402 131.594 16.4671 131.594 15.6501C131.596 15.2557 131.754 14.8781 132.033 14.5992C132.312 14.3203 132.689 14.1625 133.084 14.1602C133.901 14.1602 134.574 14.8331 134.574 15.6501Z" stroke="white" stroke-linecap="round" stroke-linejoin="round"></path><path d="M133.082 14.1586V9.05859" stroke="white" stroke-linecap="round" stroke-linejoin="round"></path><path d="M133.082 14.16V1" stroke="white" stroke-linecap="round" stroke-linejoin="round"></path><path d="M129.189 5.50781L136.98 5.50781" stroke="white" stroke-linecap="round" stroke-linejoin="round"></path></svg>