<svg xmlns="http://www.w3.org/2000/svg" width="167" height="279" viewBox="0 0 167 279" fill="none"><path d="M51.3242 96.9453H33.5642" stroke="white" stroke-linecap="round" stroke-linejoin="round"></path><path d="M33.5702 93.7383H53.6172" stroke="white" stroke-linecap="round" stroke-linejoin="round"></path><path d="M51.3242 132.465H33.5642" stroke="white" stroke-linecap="round" stroke-linejoin="round"></path><path d="M51.3242 163.18H33.5642" stroke="white" stroke-linecap="round" stroke-linejoin="round"></path><path d="M28.5664 122.381H38.5664V111.667L33.5664 104.488L28.5664 111.667V122.381Z" stroke="white" stroke-linecap="round" stroke-linejoin="round"></path><path d="M46.0211 99.125V101.557H48.4531V103.989H46.0211V106.422H48.4531V108.854H46.0211V111.286H48.4531V113.718H46.0211V116.15H48.4531V118.583H46.0211V121.016H48.4531V123.449H46.0211V125.881H48.4531V128.313H46.0211V130.746" stroke="white" stroke-linecap="round" stroke-linejoin="round"></path><path d="M46.0211 134.41V136.842H48.4531V139.275H46.0211V141.707H48.4531V144.139H46.0211V146.572H48.4531V149.004H46.0211V151.437H48.4531V153.869H46.0211V156.301H48.4531V158.734H46.0211V161.166" stroke="white" stroke-linecap="round" stroke-linejoin="round"></path><path d="M36.5469 116.196C36.5448 115.802 36.3871 115.424 36.1081 115.145C35.8291 114.866 35.4513 114.709 35.0569 114.707C34.2399 114.707 33.5679 115.379 33.5669 116.196V122.385H36.5459L36.5469 116.196Z" stroke="white" stroke-linecap="round" stroke-linejoin="round"></path><path d="M33.5654 116.196C33.5633 115.802 33.4057 115.424 33.127 115.145C32.8482 114.867 32.4706 114.709 32.0764 114.707C31.682 114.709 31.3044 114.867 31.0255 115.145C30.7465 115.424 30.5888 115.802 30.5864 116.196V122.385H33.5664L33.5654 116.196Z" stroke="white" stroke-linecap="round" stroke-linejoin="round"></path><path d="M35.0547 52.1423C35.0547 51.3253 34.3817 50.6523 33.5647 50.6523H33.5637C32.7467 50.6523 32.0747 51.3243 32.0747 52.1413V57.5273H35.0537L35.0547 52.1423Z" stroke="white" stroke-linecap="round" stroke-linejoin="round"></path><path d="M38.0341 57.5273L38.0352 52.1413C38.0352 51.3243 37.3631 50.6523 36.5461 50.6523H36.5451C35.7281 50.6523 35.0551 51.3253 35.0551 52.1423V57.5273H38.0341Z" stroke="white" stroke-linecap="round" stroke-linejoin="round"></path><path d="M36.5469 111.668H30.5879" stroke="white" stroke-linecap="round" stroke-linejoin="round"></path><path d="M28.5664 152.31H38.5664V141.596L33.5664 134.418L28.5664 141.596V152.31Z" stroke="white" stroke-linecap="round" stroke-linejoin="round"></path><path d="M36.5469 146.119C36.5445 145.724 36.3868 145.347 36.1079 145.068C35.829 144.789 35.4513 144.631 35.0569 144.629C34.6624 144.631 34.2848 144.789 34.0059 145.068C33.727 145.347 33.5693 145.724 33.5669 146.119V152.307H36.5459L36.5469 146.119Z" stroke="white" stroke-linecap="round" stroke-linejoin="round"></path><path d="M82.375 172.869C82.375 172.369 81.963 171.957 81.463 171.957C80.963 171.957 80.551 172.369 80.551 172.869V176.656H82.374L82.375 172.869Z" stroke="white" stroke-linecap="round" stroke-linejoin="round"></path><path d="M33.5654 146.119C33.5633 145.725 33.4058 145.347 33.127 145.068C32.8483 144.789 32.4707 144.631 32.0764 144.629C31.6819 144.631 31.3043 144.789 31.0254 145.068C30.7465 145.347 30.5888 145.724 30.5864 146.119V152.307H33.5664L33.5654 146.119Z" stroke="white" stroke-linecap="round" stroke-linejoin="round"></path><path d="M36.5469 141.594H30.5879" stroke="white" stroke-linecap="round" stroke-linejoin="round"></path><path d="M46.6289 86.1758H33.5659" stroke="white" stroke-linecap="round" stroke-linejoin="round"></path><path d="M33.5659 82.2773H46.6289" stroke="white" stroke-linecap="round" stroke-linejoin="round"></path><path d="M39.8672 57.5273H33.5672" stroke="white" stroke-linecap="round" stroke-linejoin="round"></path><path d="M37.4609 61.6562H33.5609" stroke="white" stroke-linecap="round" stroke-linejoin="round"></path><path d="M39.8672 47.1016H33.5672" stroke="white" stroke-linecap="round" stroke-linejoin="round"></path><path d="M15.8054 96.9453H33.5664" stroke="white" stroke-linecap="round" stroke-linejoin="round"></path><path d="M33.5664 93.7383H13.5144" stroke="white" stroke-linecap="round" stroke-linejoin="round"></path><path d="M18.6904 172.57H33.5664" stroke="white" stroke-linecap="round" stroke-linejoin="round"></path><path d="M15.8054 132.465H33.5664" stroke="white" stroke-linecap="round" stroke-linejoin="round"></path><path d="M15.8054 163.18H33.5664" stroke="white" stroke-linecap="round" stroke-linejoin="round"></path><path d="M21.1084 99.125V101.557H18.6764V103.989H21.1094V106.422H18.6764V108.854H21.1094V111.286H18.6764V113.718H21.1094V116.15H18.6764V118.583H21.1094V121.016H18.6764V123.449H21.1094V125.881H18.6764V128.313H21.1094V130.746" stroke="white" stroke-linecap="round" stroke-linejoin="round"></path><path d="M21.1084 134.41V136.842H18.6764V139.275H21.1094V141.707H18.6764V144.139H21.1094V146.572H18.6764V149.004H21.1094V151.437H18.6764V153.869H21.1094V156.301H18.6764V158.734H21.1094V161.166" stroke="white" stroke-linecap="round" stroke-linejoin="round"></path><path d="M29.0991 52.1423C29.0991 51.3253 29.7711 50.6533 30.5881 50.6523C31.4051 50.6523 32.0781 51.3253 32.0781 52.1423V57.5273H29.0991V52.1423Z" stroke="white" stroke-linecap="round" stroke-linejoin="round"></path><path d="M20.5034 86.1758H33.5664" stroke="white" stroke-linecap="round" stroke-linejoin="round"></path><path d="M33.5664 82.2773H20.5034" stroke="white" stroke-linecap="round" stroke-linejoin="round"></path><path d="M27.2586 57.5273H33.5586" stroke="white" stroke-linecap="round" stroke-linejoin="round"></path><path d="M29.6703 61.6562H33.5703" stroke="white" stroke-linecap="round" stroke-linejoin="round"></path><path d="M27.2586 47.1016H33.5586" stroke="white" stroke-linecap="round" stroke-linejoin="round"></path><path d="M49.0924 277.301H107.984" stroke="white" stroke-linecap="round" stroke-linejoin="round"></path><path d="M51.3242 201.473V270.421" stroke="white" stroke-linecap="round" stroke-linejoin="round"></path><path d="M107.984 191.016L96.2974 213.703H90.6254V221.09L92.8604 223.668V270.417L90.6254 271.448V277.294" stroke="white" stroke-linecap="round" stroke-linejoin="round"></path><path d="M90.6254 221.094H107.984" stroke="white" stroke-linecap="round" stroke-linejoin="round"></path><path d="M92.8604 223.672H107.984" stroke="white" stroke-linecap="round" stroke-linejoin="round"></path><path d="M106.01 217.659V208.722C105.958 207.873 106.111 207.024 106.455 206.247C106.8 205.469 107.326 204.786 107.99 204.254C108.653 204.786 109.178 205.47 109.522 206.248C109.866 207.025 110.019 207.874 109.967 208.723V217.66L106.01 217.659Z" stroke="white" stroke-linecap="round" stroke-linejoin="round"></path><path d="M98.2577 277.301V251.691C98.2577 236.037 107.988 229.691 107.988 229.691C107.988 229.691 117.719 236.037 117.719 251.691V277.301H98.2577Z" stroke="white" stroke-linecap="round" stroke-linejoin="round"></path><path d="M66.4411 259.212V244.335C66.4411 235.242 72.0931 231.555 72.0931 231.555C72.0931 231.555 77.7461 235.241 77.7461 244.335V259.212H66.4411Z" stroke="white" stroke-linecap="round" stroke-linejoin="round"></path><path d="M69.2656 234.535C71.1906 237.435 72.1776 240.856 72.0926 244.335V259.212" stroke="white" stroke-linecap="round" stroke-linejoin="round"></path><path d="M114.473 260.616C114.473 257.057 111.545 254.129 107.986 254.129C104.427 254.129 101.498 257.057 101.498 260.616V277.301H114.473V260.616Z" stroke="white" stroke-linecap="round" stroke-linejoin="round"></path><path d="M95.9547 231.225C95.9573 231.834 96.2005 232.418 96.6312 232.848C97.062 233.279 97.6455 233.522 98.2547 233.525C98.8639 233.522 99.4474 233.279 99.8781 232.848C100.309 232.418 100.552 231.834 100.555 231.225V227.5H95.9487L95.9547 231.225Z" stroke="white" stroke-linecap="round" stroke-linejoin="round"></path><path d="M68.0468 182.876C68.0478 190.237 74.1038 196.293 81.4648 196.294C88.8258 196.293 94.8818 190.237 94.8828 182.876V164.32H68.0468V182.876Z" stroke="white" stroke-linecap="round" stroke-linejoin="round"></path><path d="M114.473 265.527V237.527" stroke="white" stroke-linecap="round" stroke-linejoin="round"></path><path d="M111.23 254.998V232.715" stroke="white" stroke-linecap="round" stroke-linejoin="round"></path><path d="M107.984 254.125V229.688" stroke="white" stroke-linecap="round" stroke-linejoin="round"></path><path d="M104.742 255V232.715" stroke="white" stroke-linecap="round" stroke-linejoin="round"></path><path d="M101.5 265.527V237.527" stroke="white" stroke-linecap="round" stroke-linejoin="round"></path><path d="M51.325 221.094H90.625" stroke="white" stroke-linecap="round" stroke-linejoin="round"></path><path d="M102.602 201.473H51.3256" stroke="white" stroke-linecap="round" stroke-linejoin="round"></path><path d="M90.6289 213.703H51.3289" stroke="white" stroke-linecap="round" stroke-linejoin="round"></path><path d="M88.4492 215.711V219.091" stroke="white" stroke-linecap="round" stroke-linejoin="round"></path><path d="M85.5859 215.711V219.091" stroke="white" stroke-linecap="round" stroke-linejoin="round"></path><path d="M82.7227 215.711V219.091" stroke="white" stroke-linecap="round" stroke-linejoin="round"></path><path d="M79.8555 215.711V219.091" stroke="white" stroke-linecap="round" stroke-linejoin="round"></path><path d="M76.9922 215.711V219.091" stroke="white" stroke-linecap="round" stroke-linejoin="round"></path><path d="M74.1289 215.711V219.091" stroke="white" stroke-linecap="round" stroke-linejoin="round"></path><path d="M71.2656 215.711V219.091" stroke="white" stroke-linecap="round" stroke-linejoin="round"></path><path d="M68.3945 215.711V219.091" stroke="white" stroke-linecap="round" stroke-linejoin="round"></path><path d="M65.5352 215.711V219.091" stroke="white" stroke-linecap="round" stroke-linejoin="round"></path><path d="M62.668 215.711V219.091" stroke="white" stroke-linecap="round" stroke-linejoin="round"></path><path d="M59.8047 215.711V219.091" stroke="white" stroke-linecap="round" stroke-linejoin="round"></path><path d="M56.9414 215.711V219.091" stroke="white" stroke-linecap="round" stroke-linejoin="round"></path><path d="M54.0781 215.711V219.091" stroke="white" stroke-linecap="round" stroke-linejoin="round"></path><path d="M94.8984 204.254L92.9534 207.445L94.8984 210.638H89.7114L91.6554 207.445L89.7114 204.254H94.8984Z" stroke="white" stroke-linecap="round" stroke-linejoin="round"></path><path d="M86.6523 204.254L84.7083 207.445L86.6523 210.638H81.4644L83.4093 207.445L81.4644 204.254H86.6523Z" stroke="white" stroke-linecap="round" stroke-linejoin="round"></path><path d="M78.4062 204.255L76.4612 207.446L78.4062 210.639H73.2183L75.1632 207.445L73.2183 204.254L78.4062 204.255Z" stroke="white" stroke-linecap="round" stroke-linejoin="round"></path><path d="M70.1562 204.254L68.2112 207.445L70.1562 210.638H64.9682L66.9132 207.445L64.9682 204.254H70.1562Z" stroke="white" stroke-linecap="round" stroke-linejoin="round"></path><path d="M56.7221 204.254H61.9102L59.9651 207.445L61.9102 210.638H56.7221L58.6671 207.445L56.7221 204.254Z" stroke="white" stroke-linecap="round" stroke-linejoin="round"></path><path d="M92.8633 259.211H56.7253" stroke="white" stroke-linecap="round" stroke-linejoin="round"></path><path d="M74.9219 234.535C72.9968 237.435 72.0099 240.856 72.0949 244.335V259.212" stroke="white" stroke-linecap="round" stroke-linejoin="round"></path><path d="M36.8978 259.213V237.949C36.8978 233.401 39.7238 231.559 39.7238 231.559C39.7238 231.559 42.5508 233.401 42.5508 237.949V259.216L36.8978 259.213Z" stroke="white" stroke-linecap="round" stroke-linejoin="round"></path><path d="M38.312 233.043C39.2739 234.493 39.7669 236.203 39.724 237.943V259.21" stroke="white" stroke-linecap="round" stroke-linejoin="round"></path><path d="M41.1367 233.043C40.1736 234.492 39.6799 236.203 39.7227 237.943V259.21" stroke="white" stroke-linecap="round" stroke-linejoin="round"></path><path d="M11.7797 259.212V229.254C11.7797 222.734 15.8337 220.09 15.8337 220.09C15.8337 220.09 19.8867 222.733 19.8867 229.254V259.212H11.7797Z" stroke="white" stroke-linecap="round" stroke-linejoin="round"></path><path d="M13.8053 222.227C15.1855 224.306 15.8932 226.759 15.8323 229.255" stroke="white" stroke-linecap="round" stroke-linejoin="round"></path><path d="M17.8594 222.227C16.4805 224.307 15.7733 226.76 15.8334 229.255C15.8334 235.775 15.7814 259.212 15.7814 259.212" stroke="white" stroke-linecap="round" stroke-linejoin="round"></path><path d="M51.3266 270.423V227.5H56.7266V277.3" stroke="white" stroke-linecap="round" stroke-linejoin="round"></path><path d="M91.5664 186.637L89.5484 188.859L87.5294 186.637L85.5084 188.859L83.4874 186.637L81.4674 188.859L79.4474 186.637L77.4264 188.859L75.4054 186.637L73.3824 188.859L71.3594 186.637" stroke="white" stroke-linecap="round" stroke-linejoin="round"></path><path d="M91.5664 181.977L89.5484 184.2L87.5294 181.977L85.5084 184.2L83.4874 181.977L81.4674 184.2L79.4474 181.977L77.4264 184.2L75.4054 181.977L73.3824 184.2L71.3594 181.977" stroke="white" stroke-linecap="round" stroke-linejoin="round"></path><path d="M91.5664 179.617V171.465H88.0064V174.817H85.0424V171.465L86.0304 170.52V167.641H81.4634" stroke="white" stroke-linecap="round" stroke-linejoin="round"></path><path d="M71.358 179.617V171.465H74.918V174.817H77.879V171.465L76.89 170.52V167.641H81.457" stroke="white" stroke-linecap="round" stroke-linejoin="round"></path><path d="M107.984 181.676L97.7844 201.476" stroke="white" stroke-linecap="round" stroke-linejoin="round"></path><path d="M107.891 172.52L92.9756 201.475" stroke="white" stroke-linecap="round" stroke-linejoin="round"></path><path d="M107.984 162.996L88.1604 201.478" stroke="white" stroke-linecap="round" stroke-linejoin="round"></path><path d="M86.5781 195.211L83.3541 201.472" stroke="white" stroke-linecap="round" stroke-linejoin="round"></path><path d="M107.598 154.41L94.8847 179.089" stroke="white" stroke-linecap="round" stroke-linejoin="round"></path><path d="M81.207 196.293L78.538 201.476" stroke="white" stroke-linecap="round" stroke-linejoin="round"></path><path d="M102.785 154.406L94.8851 169.748" stroke="white" stroke-linecap="round" stroke-linejoin="round"></path><path d="M76.8203 195.469L73.7273 201.469" stroke="white" stroke-linecap="round" stroke-linejoin="round"></path><path d="M97.9688 154.41L92.8688 164.318" stroke="white" stroke-linecap="round" stroke-linejoin="round"></path><path d="M73.0938 193.359L68.9138 201.471" stroke="white" stroke-linecap="round" stroke-linejoin="round"></path><path d="M93.1602 154.406L88.0512 164.324" stroke="white" stroke-linecap="round" stroke-linejoin="round"></path><path d="M70.0508 189.93L64.1008 201.479" stroke="white" stroke-linecap="round" stroke-linejoin="round"></path><path d="M88.3477 154.41L83.2477 164.318" stroke="white" stroke-linecap="round" stroke-linejoin="round"></path><path d="M68.125 184.324L59.291 201.473" stroke="white" stroke-linecap="round" stroke-linejoin="round"></path><path d="M83.5312 154.41L78.4312 164.32" stroke="white" stroke-linecap="round" stroke-linejoin="round"></path><path d="M68.0469 175.133L54.4769 201.475" stroke="white" stroke-linecap="round" stroke-linejoin="round"></path><path d="M78.7227 154.41L73.6227 164.318" stroke="white" stroke-linecap="round" stroke-linejoin="round"></path><path d="M68.0469 165.789L51.3269 198.243" stroke="white" stroke-linecap="round" stroke-linejoin="round"></path><path d="M73.9062 154.41L68.8062 164.319" stroke="white" stroke-linecap="round" stroke-linejoin="round"></path><path d="M69.0977 154.41L51.3267 188.91" stroke="white" stroke-linecap="round" stroke-linejoin="round"></path><path d="M64.2852 154.41L51.3282 179.562" stroke="white" stroke-linecap="round" stroke-linejoin="round"></path><path d="M59.4688 154.41L51.3237 170.222" stroke="white" stroke-linecap="round" stroke-linejoin="round"></path><path d="M54.6602 154.41L51.3282 160.879" stroke="white" stroke-linecap="round" stroke-linejoin="round"></path><path d="M133.602 172.869C133.602 172.369 134.014 171.957 134.514 171.957C135.014 171.957 135.426 172.369 135.426 172.869V176.656H133.603L133.602 172.869Z" stroke="white" stroke-linecap="round" stroke-linejoin="round"></path><path d="M107.988 191.016L119.676 213.703H125.348V221.09L123.113 223.668V270.417L125.348 271.448V277.294" stroke="white" stroke-linecap="round" stroke-linejoin="round"></path><path d="M125.348 221.094H107.988" stroke="white" stroke-linecap="round" stroke-linejoin="round"></path><path d="M123.109 223.672H107.984" stroke="white" stroke-linecap="round" stroke-linejoin="round"></path><path d="M149.531 259.212V244.335C149.531 235.242 143.878 231.555 143.878 231.555C143.878 231.555 138.226 235.241 138.226 244.335V259.212H149.531Z" stroke="white" stroke-linecap="round" stroke-linejoin="round"></path><path d="M146.707 234.535C144.782 237.435 143.795 240.856 143.88 244.335V259.212" stroke="white" stroke-linecap="round" stroke-linejoin="round"></path><path d="M117.715 249.883H123.109" stroke="white" stroke-linecap="round" stroke-linejoin="round"></path><path d="M120.021 231.225C120.019 231.834 119.776 232.418 119.345 232.848C118.914 233.279 118.331 233.522 117.721 233.525C117.112 233.522 116.529 233.279 116.098 232.848C115.667 232.418 115.424 231.834 115.421 231.225V227.5H120.027L120.021 231.225Z" stroke="white" stroke-linecap="round" stroke-linejoin="round"></path><path d="M147.93 182.876C147.929 190.237 141.873 196.293 134.512 196.294C127.151 196.294 121.094 190.237 121.093 182.876V164.32H147.93V182.876Z" stroke="white" stroke-linecap="round" stroke-linejoin="round"></path><path d="M113.374 201.473H164.648" stroke="white" stroke-linecap="round" stroke-linejoin="round"></path><path d="M125.345 213.703H164.645" stroke="white" stroke-linecap="round" stroke-linejoin="round"></path><path d="M125.345 221.094H164.645" stroke="white" stroke-linecap="round" stroke-linejoin="round"></path><path d="M127.523 215.711V219.091" stroke="white" stroke-linecap="round" stroke-linejoin="round"></path><path d="M130.387 215.711V219.091" stroke="white" stroke-linecap="round" stroke-linejoin="round"></path><path d="M133.25 215.711V219.091" stroke="white" stroke-linecap="round" stroke-linejoin="round"></path><path d="M136.117 215.711V219.091" stroke="white" stroke-linecap="round" stroke-linejoin="round"></path><path d="M138.98 215.711V219.091" stroke="white" stroke-linecap="round" stroke-linejoin="round"></path><path d="M141.844 215.711V219.091" stroke="white" stroke-linecap="round" stroke-linejoin="round"></path><path d="M144.711 215.711V219.091" stroke="white" stroke-linecap="round" stroke-linejoin="round"></path><path d="M147.574 215.711V219.091" stroke="white" stroke-linecap="round" stroke-linejoin="round"></path><path d="M150.441 215.711V219.091" stroke="white" stroke-linecap="round" stroke-linejoin="round"></path><path d="M153.305 215.711V219.091" stroke="white" stroke-linecap="round" stroke-linejoin="round"></path><path d="M156.172 215.711V219.091" stroke="white" stroke-linecap="round" stroke-linejoin="round"></path><path d="M159.031 215.711V219.091" stroke="white" stroke-linecap="round" stroke-linejoin="round"></path><path d="M161.898 215.711V219.091" stroke="white" stroke-linecap="round" stroke-linejoin="round"></path><path d="M121.078 204.254H126.266L124.321 207.445L126.266 210.638H121.078L123.024 207.445L121.078 204.254Z" stroke="white" stroke-linecap="round" stroke-linejoin="round"></path><path d="M134.508 204.255L132.563 207.446L134.508 210.638H129.319L131.264 207.445L129.319 204.254L134.508 204.255Z" stroke="white" stroke-linecap="round" stroke-linejoin="round"></path><path d="M142.758 204.254L140.812 207.445L142.758 210.638H137.57L139.514 207.445L137.57 204.254H142.758Z" stroke="white" stroke-linecap="round" stroke-linejoin="round"></path><path d="M151.004 204.254L149.06 207.445L151.004 210.638H145.816L147.762 207.445L145.816 204.254H151.004Z" stroke="white" stroke-linecap="round" stroke-linejoin="round"></path><path d="M159.25 204.255L157.305 207.446L159.25 210.639H154.062L156.007 207.445L154.062 204.254L159.25 204.255Z" stroke="white" stroke-linecap="round" stroke-linejoin="round"></path><path d="M123.112 259.211H159.25" stroke="white" stroke-linecap="round" stroke-linejoin="round"></path><path d="M141.052 234.535C142.976 237.435 143.963 240.856 143.878 244.335V259.212" stroke="white" stroke-linecap="round" stroke-linejoin="round"></path><path d="M164.648 227.5H159.248V277.3H164.648V227.5Z" stroke="white" stroke-linecap="round" stroke-linejoin="round"></path><path d="M124.41 186.637L126.428 188.859L128.447 186.637L130.468 188.859L132.488 186.637L134.509 188.859L136.529 186.637L138.549 188.859L140.57 186.637L142.594 188.859L144.617 186.637" stroke="white" stroke-linecap="round" stroke-linejoin="round"></path><path d="M124.41 181.977L126.428 184.2L128.447 181.977L130.468 184.2L132.488 181.977L134.509 184.2L136.529 181.977L138.549 184.2L140.57 181.977L142.594 184.2L144.617 181.977" stroke="white" stroke-linecap="round" stroke-linejoin="round"></path><path d="M124.408 179.617V171.465H127.967V174.817H130.932V171.465L129.943 170.52V167.641H134.508" stroke="white" stroke-linecap="round" stroke-linejoin="round"></path><path d="M144.613 179.617V171.465H141.051V174.817H138.087V171.465L139.075 170.52V167.641H134.508" stroke="white" stroke-linecap="round" stroke-linejoin="round"></path><path d="M107.987 181.676L118.188 201.476" stroke="white" stroke-linecap="round" stroke-linejoin="round"></path><path d="M108.084 172.52L123 201.475" stroke="white" stroke-linecap="round" stroke-linejoin="round"></path><path d="M107.988 162.996L127.812 201.478" stroke="white" stroke-linecap="round" stroke-linejoin="round"></path><path d="M129.4 195.211L132.625 201.472" stroke="white" stroke-linecap="round" stroke-linejoin="round"></path><path d="M108.377 154.41L121.09 179.089" stroke="white" stroke-linecap="round" stroke-linejoin="round"></path><path d="M134.768 196.293L137.438 201.476" stroke="white" stroke-linecap="round" stroke-linejoin="round"></path><path d="M113.19 154.406L121.09 169.748" stroke="white" stroke-linecap="round" stroke-linejoin="round"></path><path d="M139.153 195.469L142.246 201.469" stroke="white" stroke-linecap="round" stroke-linejoin="round"></path><path d="M118.002 154.41L123.102 164.318" stroke="white" stroke-linecap="round" stroke-linejoin="round"></path><path d="M142.876 193.359L147.055 201.471" stroke="white" stroke-linecap="round" stroke-linejoin="round"></path><path d="M122.814 154.406L127.922 164.324" stroke="white" stroke-linecap="round" stroke-linejoin="round"></path><path d="M145.926 189.93L151.875 201.479" stroke="white" stroke-linecap="round" stroke-linejoin="round"></path><path d="M127.627 154.41L132.727 164.318" stroke="white" stroke-linecap="round" stroke-linejoin="round"></path><path d="M147.85 184.324L156.684 201.473" stroke="white" stroke-linecap="round" stroke-linejoin="round"></path><path d="M132.439 154.41L137.539 164.32" stroke="white" stroke-linecap="round" stroke-linejoin="round"></path><path d="M147.93 175.133L161.5 201.475" stroke="white" stroke-linecap="round" stroke-linejoin="round"></path><path d="M137.252 154.41L142.352 164.318" stroke="white" stroke-linecap="round" stroke-linejoin="round"></path><path d="M147.927 165.789L164.645 198.243" stroke="white" stroke-linecap="round" stroke-linejoin="round"></path><path d="M142.064 154.41L147.164 164.319" stroke="white" stroke-linecap="round" stroke-linejoin="round"></path><path d="M146.876 154.41L164.648 188.91M151.688 154.41L164.646 179.562M156.501 154.41L164.647 170.222M161.313 154.41L164.646 160.879" stroke="white" stroke-linecap="round" stroke-linejoin="round"></path><path d="M51.3242 270.422L49.0892 271.453V277.299" stroke="white" stroke-linecap="round" stroke-linejoin="round"></path><path d="M30.3557 261.828H48.8047" stroke="white" stroke-linecap="round" stroke-linejoin="round"></path><path d="M48.8125 259.211H30.3625" stroke="white" stroke-linecap="round" stroke-linejoin="round"></path><path d="M4.233 261.828H26.125" stroke="white" stroke-linecap="round" stroke-linejoin="round"></path><path d="M26.125 259.211H4.23599" stroke="white" stroke-linecap="round" stroke-linejoin="round"></path><path d="M30.3557 221.094H48.8047" stroke="white" stroke-linecap="round" stroke-linejoin="round"></path><path d="M45.8281 271.453H32.7651" stroke="white" stroke-linecap="round" stroke-linejoin="round"></path><path d="M25.4336 271.453H5.72058" stroke="white" stroke-linecap="round" stroke-linejoin="round"></path><path d="M87.5859 271.453H59.9779" stroke="white" stroke-linecap="round" stroke-linejoin="round"></path><path d="M156 271.453H128.39" stroke="white" stroke-linecap="round" stroke-linejoin="round"></path><path d="M15.8059 162.996L27.3789 201.472H15.8059" stroke="white" stroke-linecap="round" stroke-linejoin="round"></path><path d="M22.1091 201.473H51.3281" stroke="white" stroke-linecap="round" stroke-linejoin="round"></path><path d="M24.4375 204.219H17.0225V211.634H24.4375V204.219Z" stroke="white" stroke-linecap="round" stroke-linejoin="round"></path><path d="M19.7451 206.939C19.7467 206.678 19.8512 206.428 20.036 206.243C20.2208 206.059 20.471 205.954 20.7321 205.953C20.9933 205.954 21.2435 206.058 21.4282 206.243C21.6129 206.428 21.7171 206.678 21.7181 206.939C21.9791 206.94 22.2291 207.045 22.4135 207.229C22.598 207.414 22.7021 207.664 22.7031 207.925V207.927C22.7031 208.467 22.2581 208.912 21.7181 208.912C21.7171 209.173 21.6129 209.423 21.4282 209.608C21.2435 209.793 20.9933 209.897 20.7321 209.898C20.471 209.897 20.2208 209.793 20.036 209.608C19.8512 209.423 19.7467 209.173 19.7451 208.912C19.4841 208.911 19.2342 208.806 19.0497 208.622C18.8653 208.437 18.7612 208.187 18.7601 207.926C18.7612 207.665 18.8652 207.415 19.0497 207.23C19.2341 207.045 19.4841 206.941 19.7451 206.939Z" stroke="white" stroke-linecap="round" stroke-linejoin="round"></path><path d="M4.2327 201.473H15.8047" stroke="white" stroke-linecap="round" stroke-linejoin="round"></path><path d="M14.582 204.219H7.16705V211.634H14.582V204.219Z" stroke="white" stroke-linecap="round" stroke-linejoin="round"></path><path d="M11.8656 206.939C11.8645 206.678 11.7603 206.428 11.5756 206.243C11.3909 206.058 11.1407 205.954 10.8795 205.953C10.6184 205.954 10.3682 206.058 10.1835 206.243C9.99882 206.428 9.89461 206.678 9.89355 206.939C9.63236 206.941 9.38235 207.045 9.19775 207.23C9.01315 207.415 8.90887 207.665 8.90756 207.926C8.90862 208.187 9.01283 208.437 9.19751 208.622C9.38219 208.807 9.63238 208.911 9.89355 208.912C9.89461 209.173 9.99882 209.423 10.1835 209.608C10.3682 209.793 10.6184 209.897 10.8795 209.898C11.1407 209.897 11.3909 209.793 11.5756 209.608C11.7603 209.423 11.8645 209.173 11.8656 208.912C12.1267 208.911 12.3769 208.807 12.5616 208.622C12.7463 208.437 12.8505 208.187 12.8516 207.926C12.8505 207.665 12.7463 207.414 12.5616 207.229C12.3769 207.044 12.1267 206.94 11.8656 206.939Z" stroke="white" stroke-linecap="round" stroke-linejoin="round"></path><path d="M15.8337 180.305L18.7617 191.532H15.8337" stroke="white" stroke-linecap="round" stroke-linejoin="round"></path><path d="M18.7617 191.531V201.475" stroke="white" stroke-linecap="round" stroke-linejoin="round"></path><path d="M15.7812 180.305L12.8532 191.532H15.7812" stroke="white" stroke-linecap="round" stroke-linejoin="round"></path><path d="M12.8516 191.531V201.475" stroke="white" stroke-linecap="round" stroke-linejoin="round"></path><path d="M25.096 193.879L29.043 201.472" stroke="white" stroke-linecap="round" stroke-linejoin="round"></path><path d="M18.7985 172.512L33.8555 201.478" stroke="white" stroke-linecap="round" stroke-linejoin="round"></path><path d="M23.6429 172.57L38.6719 201.477" stroke="white" stroke-linecap="round" stroke-linejoin="round"></path><path d="M28.4575 172.57L43.4805 201.47" stroke="white" stroke-linecap="round" stroke-linejoin="round"></path><path d="M33.2671 172.57L48.2891 201.478" stroke="white" stroke-linecap="round" stroke-linejoin="round"></path><path d="M38.0516 172.57L51.3516 198.234" stroke="white" stroke-linecap="round" stroke-linejoin="round"></path><path d="M42.8748 172.57L51.3438 188.899" stroke="white" stroke-linecap="round" stroke-linejoin="round"></path><path d="M47.6971 172.57L51.3281 179.562M51.3241 172.57H33.5641" stroke="white" stroke-linecap="round" stroke-linejoin="round"></path><path d="M51.3242 172.57V201.47" stroke="white" stroke-width="3" stroke-linecap="round" stroke-linejoin="round"></path><path d="M51.3242 201.473L30.3552 221.095" stroke="white" stroke-width="3" stroke-linecap="round" stroke-linejoin="round"></path><path d="M30.3516 221.094V259.21" stroke="white" stroke-width="3" stroke-linecap="round" stroke-linejoin="round"></path><path d="M30.3516 261.828V270.422L28.1176 271.453V277.299" stroke="white" stroke-width="3" stroke-linecap="round" stroke-linejoin="round"></path><path d="M30.3516 259.211L28.1176 261.829H30.3516" stroke="white" stroke-width="3" stroke-linecap="round" stroke-linejoin="round"></path><path d="M51.3242 154.41V172.57" stroke="white" stroke-width="3" stroke-linecap="round" stroke-linejoin="round"></path><path d="M51.3274 96.9458V154.41H164.648V277.3H2.00145V271.454L4.23643 270.423V261.834H2.00243L4.23744 259.216V201.476L15.8094 163V96.9508L13.5184 93.7428C17.7584 93.7428 13.5184 86.1798 20.5074 86.1798C19.9915 86.1774 19.4974 85.9714 19.1326 85.6066C18.7678 85.2418 18.5618 84.7477 18.5594 84.2318C18.5623 83.7161 18.7685 83.2224 19.1333 82.8579C19.498 82.4933 19.9918 82.2874 20.5074 82.2848C16.4974 82.2848 13.9284 75.4098 21.1144 71.8568C28.3004 68.3038 27.2674 57.5338 27.2674 57.5338V47.1068L29.6674 40.6868C29.6674 40.6868 24.6834 39.4258 28.5674 34.4988C31.5104 30.7618 33.5674 26.5938 33.5674 17.4258C33.5674 26.5938 35.6254 30.7618 38.5674 34.4988C42.4474 39.4258 37.4674 40.6868 37.4674 40.6868L39.8734 47.1038V57.5338C39.8734 57.5338 38.8424 68.3048 46.0284 71.8568C53.2144 75.4088 50.6454 82.2848 46.6354 82.2848C47.1511 82.2871 47.6449 82.493 48.0096 82.8577C48.3742 83.2223 48.5801 83.7161 48.5824 84.2318V84.2328C48.5824 85.3008 47.7034 86.1798 46.6354 86.1798C53.6234 86.1798 49.3854 93.7428 53.6234 93.7428L51.3274 96.9458Z" stroke="white" stroke-width="3" stroke-linecap="round" stroke-linejoin="round"></path><path d="M32.0747 15.6501V15.6512C32.0747 16.4682 32.7467 17.1402 33.5637 17.1402H33.5647C34.3817 17.1402 35.0547 16.4671 35.0547 15.6501C35.0523 15.2557 34.8946 14.8781 34.6157 14.5992C34.3367 14.3203 33.9591 14.1625 33.5647 14.1602C32.7477 14.1602 32.0747 14.8331 32.0747 15.6501Z" stroke="white" stroke-linecap="round" stroke-linejoin="round"></path><path d="M33.5664 14.1586V9.05859" stroke="white" stroke-linecap="round" stroke-linejoin="round"></path><path d="M33.5664 14.16V1" stroke="white" stroke-linecap="round" stroke-linejoin="round"></path><path d="M37.459 5.50781L29.668 5.50781" stroke="white" stroke-linecap="round" stroke-linejoin="round"></path></svg>