<svg xmlns="http://www.w3.org/2000/svg" width="804" height="1157" viewBox="0 0 804 1157" fill="none"><mask id="mask0_82_67" style="mask-type:alpha" maskUnits="userSpaceOnUse" x="0" y="0" width="804" height="1157"><path d="M519.492 1041.1C530.819 1070.69 549.016 1109.79 558.791 1134.09C560.574 1138.55 562.919 1144.13 568.467 1146.97C583.096 1154.47 601.425 1133.27 631.939 1115.57C669.454 1093.8 680.583 1103.32 742.998 1077.66C779.358 1062.73 794.813 1061.11 795.474 1052.62C796.365 1040.83 766.379 1028.35 755.977 1024.12C727.048 1012.47 686.197 993.742 615.889 1000.71" stroke="black" stroke-width="16.512" stroke-miterlimit="10"></path><path d="M347.138 1006.52C348.194 1038.19 346.576 1081.29 347.006 1107.48C347.072 1112.3 347.105 1118.34 343.109 1123.1C332.508 1135.68 307.41 1123.26 272.437 1118.77C229.407 1113.25 222.835 1126.37 155.367 1126.93C116.069 1127.26 101.208 1131.78 97.3113 1124.22C91.8954 1113.72 114.682 1090.57 122.674 1082.64C144.8 1060.68 191.463 1023.89 258.964 1003.02" stroke="black" stroke-width="16.512" stroke-miterlimit="10"></path><path d="M614.836 814.883L691.188 968.18L453.778 1071.58C427.194 991.363 400.576 911.148 373.992 830.932" stroke="black" stroke-width="16.512" stroke-miterlimit="10"></path><path d="M118.023 809.994L89.1602 996.414C174.824 1000.74 260.522 1005.07 346.186 1009.39C339.746 991.56 329.245 954.837 336.543 909.264C341.893 875.91 358.636 842.226 367.783 827.365" stroke="black" stroke-width="16.512" stroke-miterlimit="10"></path><path d="M634.022 457.88C641.287 387.605 647.826 328.294 644.226 312.211C643.698 309.899 641.188 300.619 646.01 294.18C651.69 286.551 661.696 290.712 674.641 284.174C688.346 277.205 694.357 263.798 696.107 259.835C697.527 256.632 705.75 237.346 697.527 219.744C695.942 216.342 689.866 204.685 670.117 196.363C583.627 159.838 195.497 170.274 99.2317 192.763C96.92 193.292 87.4752 195.603 77.7001 202.571C65.7124 211.091 50.7525 228.396 54.7814 242.662C56.5317 248.838 60.7918 250.621 76.247 262.708C88.0696 271.955 97.3493 280.046 103.459 285.627" stroke="black" stroke-width="16.512" stroke-miterlimit="10"></path><path d="M103.989 606.997L103.395 725.289C98.9366 725.982 82.6888 729.054 70.569 743.65C68.4225 746.226 55.4771 762.375 59.1097 783.741C59.6711 786.978 62.313 802.466 74.8622 810.953C85.628 818.218 98.2762 816.699 101.513 816.402C143.948 812.439 532.409 837.868 646.012 818.119C652.121 817.063 666.222 814.322 671.771 803.82C677.781 792.394 672.068 774.858 661.764 765.182C654.07 757.95 645.582 756.728 641.983 755.506C624.348 749.595 618.965 708.447 619.527 653.33" stroke="black" stroke-width="16.512" stroke-miterlimit="10"></path><path d="M105.631 282.058L104.938 415.574" stroke="black" stroke-width="16.512" stroke-miterlimit="10"></path><path d="M491.818 175.028C507.108 171.395 527.583 160.101 537.524 138.471C538.217 136.984 552.021 105.579 533.263 76.9138C515.001 48.9425 481.845 48.216 475.372 48.249C438.749 48.4472 403.347 77.7724 406.187 96.0677C407.673 105.678 419.991 114.033 429.337 112.514C441.523 110.565 449.416 91.8076 448.524 77.178C446.939 50.8249 423.36 22.9196 410.645 16.1167C394.959 7.69556 363.487 6.04436 338.851 14.9939C297.406 30.0198 281.687 98.8748 299.817 116.146C308.535 124.468 327.491 123.147 331.817 115.552C338.554 103.63 313.39 69.0211 280.036 57.0334C276.964 55.9436 245.79 50.1644 215.243 78.4329C186.347 105.215 189.055 149.17 208.704 169.744" stroke="black" stroke-width="16.512" stroke-miterlimit="10" stroke-linecap="round"></path><path d="M653.702 457.581C675.762 469.272 705.616 510.221 709.216 537.334C712.881 564.876 701.818 587.035 698.252 593.937C677.513 633.83 634.416 650.936 635.044 651.927C635.209 652.224 638.577 650.705 656.08 640.369" stroke="black" stroke-width="16.512" stroke-miterlimit="10"></path><path d="M653.704 457.582C649.609 455.468 622.661 441.004 611.929 442.523C607.735 443.117 601.163 444.042 595.813 449.326C588.383 456.657 588.812 467.026 588.911 469.371C589.307 479.344 594.855 486.577 600.106 493.479C602.22 496.253 604.498 498.63 609.023 503.386C614.207 508.835 618.533 512.831 622.232 516.265C624.742 518.61 628.771 522.309 634.253 526.899C638.678 530.631 643.368 534.362 643.301 534.461C643.136 534.66 616.618 514.977 586.566 503.089C581.91 501.239 573.885 501.966 569.361 505.466C566.455 507.712 560.775 507.91 559.487 519.535C557.34 539.052 563.119 540.009 564.936 542.684C569.988 549.983 565.893 545.26 581.448 559.494C589.671 567.023 600.172 571.151 607.636 574.916C609.023 575.609 613.349 580.497 619.623 584.163C624.28 586.87 625.27 587.729 625.303 587.663C625.468 587.432 609.848 571.415 587.953 566.924C581.117 565.537 573.291 563.919 565.629 567.915C554.632 573.661 550.339 587.63 550.867 597.967C551.726 614.677 565.365 627.028 572.366 630.627C575.999 632.51 578.905 634.194 584.717 637.562C588.713 639.874 589.968 640.634 591.289 641.921C595.879 646.446 617.939 658.896 635.012 651.961" stroke="black" stroke-width="16.512" stroke-miterlimit="10"></path><path d="M65.2479 417.259C43.1878 428.949 13.3342 469.899 9.73455 497.012C6.06889 524.554 17.1319 546.713 20.6985 553.615C41.4376 593.508 84.5339 595.456 83.9064 596.447" stroke="black" stroke-width="16.512" stroke-miterlimit="10"></path><path d="M101.775 402.396C103.756 402.066 105.54 401.967 107.026 402.198C111.22 402.793 117.792 403.717 123.142 409.001C130.572 416.333 130.143 426.702 130.044 429.047C129.647 439.02 124.099 446.252 118.848 453.154C116.735 455.928 114.456 458.306 109.932 463.061C104.747 468.51 100.421 472.506 96.7223 475.941C94.2125 478.286 90.1836 481.984 84.7016 486.575C80.2764 490.306 75.587 494.038 75.653 494.137C75.8182 494.335 102.336 474.653 132.388 462.764C137.045 460.915 145.069 461.641 149.594 465.142C152.5 467.388 158.18 467.586 159.468 479.21C161.614 498.727 155.835 499.685 154.019 502.36C148.966 509.658 153.061 504.936 137.507 519.169C129.284 526.699 118.782 530.827 111.319 534.591C109.932 535.285 105.606 540.172 99.3312 543.838C94.6748 546.546 93.6841 547.405 93.6511 547.339C93.486 547.107 109.106 531.091 131.001 526.6C137.837 525.213 145.664 523.594 153.325 527.59C164.322 533.336 168.616 547.306 168.087 557.642C167.229 574.352 153.59 586.703 146.589 590.303C142.956 592.185 140.05 593.869 134.238 597.238C130.242 599.55 129.02 600.342 127.666 601.597C123.538 605.461 84.2723 597.7 78.4601 595.091" stroke="black" stroke-width="16.512" stroke-miterlimit="10"></path><path d="M65.2441 417.258C68.7777 415.442 89.2856 404.445 101.736 402.397" stroke="black" stroke-width="16.512" stroke-miterlimit="10"></path></mask><g mask="url(#mask0_82_67)"><rect x="-252" y="-65" width="1200" height="1367" fill="white"></rect></g></svg>