<svg xmlns="http://www.w3.org/2000/svg" width="394" height="159" viewBox="0 0 394 159" fill="none"><path d="M28.3827 143.632L3.85667 143.103C3.09207 143.103 2.70977 142.074 2.70977 140.015C2.70977 137.898 3.15089 136.251 4.03312 135.075C4.91535 132.722 7.35618 129.281 11.3556 124.753C12.6496 123.282 15.061 120.636 18.5899 116.813C22.1188 112.99 24.442 110.372 25.5595 108.961L20.8837 108.696C20.0015 110.813 18.7075 112.548 17.0019 113.901C15.3551 115.195 13.5024 115.842 11.4438 115.842C9.09123 115.842 7.17974 115.166 5.70935 113.813C4.23897 112.401 3.50378 110.461 3.50378 107.99C3.50378 105.52 4.3566 103.55 6.06224 102.079C7.76789 100.609 10.1205 99.8738 13.1201 99.8738L37.6461 100.403C38.4107 100.403 38.793 101.403 38.793 103.403C38.793 105.461 38.4107 107.049 37.6461 108.167C36.9403 109.461 35.911 110.843 34.5583 112.313C33.2643 113.725 31.3528 115.636 28.8238 118.048C26.2947 120.4 24.5303 122.077 23.5304 123.076C19.5898 127.017 16.649 130.811 14.7081 134.457L20.619 134.81C21.5013 132.693 22.7658 130.987 24.4126 129.693C26.1183 128.34 28.0004 127.664 30.0589 127.664C32.4115 127.664 34.323 128.37 35.7934 129.781C37.2638 131.134 37.999 133.046 37.999 135.516C37.999 137.986 37.1461 139.956 35.4405 141.427C33.7349 142.897 31.3822 143.632 28.3827 143.632ZM12.4143 108.079C10.3558 108.079 9.3265 108.755 9.3265 110.108C9.3265 111.46 10.0911 112.137 11.6203 112.137C13.9141 112.137 15.7374 110.902 17.0901 108.431L13.473 108.167C13.1201 108.108 12.7672 108.079 12.4143 108.079ZM29.0884 135.428C31.147 135.428 32.1762 134.751 32.1762 133.399C32.1762 132.046 31.4116 131.369 29.8824 131.369C27.5886 131.369 25.7654 132.605 24.4126 135.075L28.0298 135.339C28.3827 135.398 28.7355 135.428 29.0884 135.428ZM82.2448 143.279C76.8338 143.279 73.2461 141.397 71.4816 137.633C68.4233 141.456 64.4826 143.368 59.6598 143.368C54.8957 143.368 50.8669 141.75 47.5732 138.515C44.3384 135.281 42.721 131.017 42.721 125.723C42.721 118.018 44.9853 111.872 49.5141 107.285C54.0429 102.697 59.7774 100.403 66.7176 100.403C66.8941 100.403 67.0705 100.403 67.2469 100.403C70.1877 100.403 72.8932 100.903 75.3635 101.903C76.9515 100.903 78.863 100.403 81.098 100.403C83.3917 100.403 85.0386 100.697 86.0384 101.285C85.5091 105.638 84.9504 109.931 84.3622 114.166C83.774 118.342 83.3623 121.312 83.1271 123.076C82.5977 127.076 82.3331 129.958 82.3331 131.722C82.3331 134.075 83.2741 135.251 85.1562 135.251C86.6266 135.251 88.1852 134.281 89.832 132.34C91.4789 130.34 92.9198 127.223 94.155 122.988C95.8606 124.517 97.0369 126.223 97.6839 128.105C95.9782 133.693 93.6844 137.633 90.8025 139.927C87.9205 142.162 85.068 143.279 82.2448 143.279ZM68.0409 107.285C64.2768 107.285 61.2772 108.725 59.0422 111.607C56.866 114.431 55.5721 118.665 55.1604 124.312C55.1016 124.841 55.0722 125.341 55.0722 125.811C55.0722 128.693 55.7485 130.987 57.1013 132.693C58.5129 134.398 60.3067 135.251 62.4829 135.251C66.1883 135.251 68.982 132.634 70.8641 127.399L72.9814 108.343C71.2758 107.637 69.629 107.285 68.0409 107.285ZM151.904 111.078C151.904 117.195 148.257 121.871 140.964 125.106C141.141 126.164 141.405 127.429 141.758 128.899C142.817 133.251 144.581 135.486 147.052 135.604C147.228 135.604 147.404 135.604 147.581 135.604C152.286 135.604 155.786 131.458 158.079 123.165C159.315 124.282 160.491 125.958 161.608 128.193C160.785 131.369 159.609 134.045 158.079 136.222C156.609 138.398 154.992 139.956 153.227 140.897C150.11 142.544 147.169 143.368 144.405 143.368C137.935 143.368 133.406 139.751 130.818 132.516C129.819 129.634 129.142 126.694 128.789 123.694C132.142 122.871 134.789 121.518 136.729 119.636C138.67 117.695 139.641 115.636 139.641 113.46C139.641 109.696 137.759 107.814 133.995 107.814C131.936 107.814 130.172 108.608 128.701 110.196C127.231 111.725 126.26 113.578 125.79 115.754C125.437 118.754 124.849 123.488 124.025 129.958C123.261 136.369 122.761 140.662 122.526 142.838H110.792C115.027 106.785 117.585 84.6406 118.467 76.4065C119.702 75.936 121.379 75.7007 123.496 75.7007C128.084 75.7007 130.377 77.0534 130.377 79.759V80.2883C129.201 90.9339 128.113 99.0798 127.113 104.726C130.348 101.726 134.406 100.227 139.288 100.227C142.934 100.227 145.934 101.168 148.287 103.05C150.698 104.932 151.904 107.608 151.904 111.078ZM195.671 101.285C193.259 120.342 192.053 130.487 192.053 131.722C192.053 134.075 192.906 135.251 194.612 135.251C196.141 135.251 197.788 134.222 199.552 132.163C201.376 130.046 202.817 126.899 203.875 122.724C205.816 124.841 206.993 126.488 207.404 127.664C206.052 133.369 203.905 137.398 200.964 139.751C198.023 142.103 194.994 143.279 191.877 143.279C186.76 143.279 183.319 141.309 181.555 137.369C178.497 141.309 174.409 143.279 169.292 143.279C165.057 143.279 161.793 142.221 159.499 140.103C157.205 137.986 156.059 135.222 156.059 131.811C156.059 130.987 156.206 129.546 156.5 127.488C157.852 116.548 158.882 107.843 159.587 101.374C161.411 100.727 163.087 100.403 164.616 100.403C166.145 100.403 167.292 100.462 168.057 100.58C168.821 100.697 169.557 101.138 170.262 101.903C170.968 102.668 171.321 103.756 171.321 105.167L168.41 127.664C168.292 128.37 168.233 129.017 168.233 129.605C168.233 133.075 169.821 134.81 172.997 134.81C175.938 134.81 178.379 133.369 180.32 130.487C180.32 129.84 180.379 128.811 180.496 127.399L183.408 103.932C183.819 102.932 184.702 102.109 186.054 101.462C187.407 100.756 189.083 100.403 191.083 100.403C193.142 100.403 194.671 100.697 195.671 101.285ZM213.477 143.456C209.889 143.456 207.066 142.456 205.008 140.456C202.949 138.398 201.92 135.604 201.92 132.075C201.92 131.134 203.508 117.165 206.684 90.1693C207.507 83.2291 209.713 78.8473 213.301 77.024C214.948 76.1418 216.918 75.7007 219.212 75.7007C226.975 75.7007 230.857 79.2884 230.857 86.4639C230.857 87.0521 230.828 87.6696 230.769 88.3166C230.181 96.1978 225.24 104.226 215.947 112.401C215.653 115.283 215.33 118.077 214.977 120.783C214.271 126.841 213.918 130.193 213.918 130.84C213.918 133.898 215.242 135.428 217.888 135.428C220.77 135.428 223.446 133.781 225.917 130.487C228.446 127.135 230.387 122.871 231.739 117.695C232.269 117.871 233.004 118.371 233.945 119.195C234.886 119.959 235.533 120.636 235.886 121.224C234.945 126.105 232.827 130.781 229.534 135.251C227.887 137.545 225.799 139.427 223.27 140.897C220.388 142.603 217.124 143.456 213.477 143.456ZM216.918 103.579C222.329 97.6388 225.034 92.316 225.034 87.6108C225.034 84.7877 223.976 83.3761 221.858 83.3761C220.506 83.4937 219.594 84.376 219.123 86.0228C218.712 87.6696 218.3 90.3457 217.888 94.0511C217.535 97.7564 217.3 100.05 217.183 100.932L216.918 103.579ZM249.178 81.4352C249.178 81.7881 248.384 88.1107 246.796 100.403H259.765V107.196H245.914L245.649 109.402C252.53 115.166 255.971 121.459 255.971 128.282C255.971 133.634 254.589 137.486 251.825 139.839C249.119 142.191 245.855 143.368 242.032 143.368C238.209 143.368 235.415 142.368 233.651 140.368C231.886 138.31 231.004 135.839 231.004 132.957C231.004 132.31 231.063 131.605 231.18 130.84L233.915 107.373L233.562 107.196H226.416C226.358 106.608 226.328 105.667 226.328 104.373C226.328 103.02 226.593 101.697 227.122 100.403H234.709L237.532 76.4065C238.768 75.936 240.414 75.7007 242.473 75.7007C246.943 75.7007 249.178 77.6122 249.178 81.4352ZM250.06 128.193C250.06 124.135 248.296 120.136 244.767 116.195C243.708 124.959 243.179 130.017 243.179 131.369C243.179 134.016 244.032 135.339 245.737 135.339C246.972 135.339 248.002 134.781 248.825 133.663C249.648 132.487 250.06 130.664 250.06 128.193ZM299.531 101.285C297.12 120.342 295.914 130.487 295.914 131.722C295.914 134.075 296.767 135.251 298.472 135.251C300.002 135.251 301.648 134.222 303.413 132.163C305.236 130.046 306.677 126.899 307.736 122.724C309.677 124.841 310.853 126.488 311.265 127.664C309.912 133.369 307.765 137.398 304.825 139.751C301.884 142.103 298.855 143.279 295.738 143.279C290.621 143.279 287.18 141.309 285.415 137.369C282.357 141.309 278.269 143.279 273.152 143.279C268.918 143.279 265.654 142.221 263.36 140.103C261.066 137.986 259.919 135.222 259.919 131.811C259.919 130.987 260.066 129.546 260.36 127.488C261.713 116.548 262.742 107.843 263.448 101.374C265.271 100.727 266.947 100.403 268.477 100.403C270.006 100.403 271.153 100.462 271.917 100.58C272.682 100.697 273.417 101.138 274.123 101.903C274.829 102.668 275.182 103.756 275.182 105.167L272.27 127.664C272.153 128.37 272.094 129.017 272.094 129.605C272.094 133.075 273.682 134.81 276.858 134.81C279.799 134.81 282.239 133.369 284.18 130.487C284.18 129.84 284.239 128.811 284.357 127.399L287.268 103.932C287.68 102.932 288.562 102.109 289.915 101.462C291.268 100.756 292.944 100.403 294.944 100.403C297.002 100.403 298.531 100.697 299.531 101.285ZM331.542 111.96C331.542 109.372 330.336 108.079 327.924 108.079C325.572 108.079 323.69 109.608 322.278 112.666C328.63 117.665 331.806 123.282 331.806 129.517C331.806 134.045 330.542 137.486 328.013 139.839C325.484 142.191 322.308 143.368 318.485 143.368C314.662 143.368 311.868 142.191 310.103 139.839C308.339 137.427 307.457 134.398 307.457 130.752C307.457 129.634 307.486 128.811 307.545 128.282L310.633 101.374C312.75 100.727 314.897 100.403 317.073 100.403C320.661 100.403 322.455 101.726 322.455 104.373V104.55C324.807 101.785 327.807 100.403 331.453 100.403C334.1 100.403 336.159 101.021 337.629 102.256C339.099 103.432 339.835 105.02 339.835 107.02C339.835 109.02 339.07 110.666 337.541 111.96C336.07 113.195 334.129 113.813 331.718 113.813C331.6 113.813 331.483 113.813 331.365 113.813C331.483 113.166 331.542 112.548 331.542 111.96ZM326.072 129.076C326.072 125.664 324.307 122.253 320.778 118.842C319.72 127.311 319.19 131.575 319.19 131.634C319.19 134.104 320.19 135.339 322.19 135.339C324.778 135.339 326.072 133.251 326.072 129.076ZM381.838 101.285C379.427 120.342 378.221 130.487 378.221 131.722C378.221 134.075 379.074 135.251 380.78 135.251C382.309 135.251 383.956 134.222 385.72 132.163C387.543 130.046 388.984 126.899 390.043 122.724C391.984 124.841 393.16 126.488 393.572 127.664C392.219 133.369 390.072 137.398 387.132 139.751C384.191 142.103 381.162 143.279 378.045 143.279C372.928 143.279 369.487 141.309 367.723 137.369C364.664 141.309 360.577 143.279 355.46 143.279C351.225 143.279 347.961 142.221 345.667 140.103C343.373 137.986 342.226 135.222 342.226 131.811C342.226 130.987 342.373 129.546 342.667 127.488C344.02 116.548 345.049 107.843 345.755 101.374C347.578 100.727 349.255 100.403 350.784 100.403C352.313 100.403 353.46 100.462 354.225 100.58C354.989 100.697 355.724 101.138 356.43 101.903C357.136 102.668 357.489 103.756 357.489 105.167L354.577 127.664C354.46 128.37 354.401 129.017 354.401 129.605C354.401 133.075 355.989 134.81 359.165 134.81C362.106 134.81 364.547 133.369 366.488 130.487C366.488 129.84 366.546 128.811 366.664 127.399L369.575 103.932C369.987 102.932 370.869 102.109 372.222 101.462C373.575 100.756 375.251 100.403 377.251 100.403C379.309 100.403 380.838 100.697 381.838 101.285Z" fill="black"></path><path d="M147.321 65.3689C146.841 63.8323 146.481 62.0075 146.241 59.8946C146.048 57.7817 146 55.6689 146.097 53.556C146.193 51.4431 146.433 49.6903 146.817 48.2977C147.921 48.0096 148.93 47.2653 149.842 46.0648C150.754 44.8163 151.211 42.7514 151.211 39.8702C151.211 37.4212 150.947 35.5244 150.418 34.1798C149.938 32.7872 149.386 31.8028 148.762 31.2265C148.137 30.6503 147.585 30.3382 147.105 30.2901C146.625 28.7055 146.289 26.8327 146.097 24.6718C145.952 22.4628 145.976 20.2779 146.169 18.117C146.409 15.9561 146.817 14.1794 147.393 12.7868C149.65 13.0749 152.195 13.315 155.028 13.5071C157.861 13.6511 154.41 13.7232 157.388 13.7232C160.365 13.7232 163.294 13.6991 166.175 13.6511C169.056 13.5551 171.433 13.459 173.306 13.363C172.826 13.8912 172.322 14.6836 171.794 15.74C171.265 16.7484 170.785 17.8529 170.353 19.0534C169.969 20.2539 169.681 21.4064 169.489 22.5109C169.297 23.5673 169.273 24.3837 169.417 24.9599C170.233 22.6549 171.505 20.494 173.234 18.4772C174.963 16.4603 177.196 14.8276 179.933 13.5791C182.718 12.2826 186.008 11.6343 189.801 11.6343C194.699 11.6343 198.589 13.0029 201.47 15.74C204.351 18.4772 205.792 22.775 205.792 28.6334C205.792 34.2998 204.135 38.7417 200.822 41.9591C197.557 45.1764 193.139 46.7851 187.568 46.7851C184.063 46.7851 181.254 45.9448 179.141 44.264C177.076 42.5353 176.067 40.0863 176.115 36.9169H174.027C173.979 39.6061 174.459 41.839 175.467 43.6158C176.524 45.3925 178.084 46.9052 180.149 48.1537C180.485 49.1621 180.701 50.4346 180.797 51.9713C180.941 53.5079 180.989 55.1406 180.941 56.8694C180.893 58.5501 180.749 60.1588 180.509 61.6954C180.269 63.184 179.957 64.4085 179.573 65.3689C177.988 65.2249 175.971 65.0568 173.522 64.8647C171.073 64.7207 168.48 64.5766 165.743 64.4326C163.006 64.3365 160.389 64.2885 157.892 64.2885C154.29 64.2885 157.405 64.4085 154.524 64.6486C151.691 64.8887 149.29 65.1288 147.321 65.3689Z" fill="black"></path><path d="M91.7197 65.8012C87.59 65.8012 84.2285 65.249 81.6354 64.1445C79.0424 63.0401 77.1936 60.7831 76.0891 57.3737C75.4648 55.3568 75.1527 53.388 75.1527 51.4672C75.2007 49.5464 75.3448 47.6256 75.5849 45.7048C75.825 43.784 75.9451 41.8391 75.9451 39.8703C75.9451 37.4213 75.6809 35.5245 75.1527 34.1799C74.6725 32.7873 74.1203 31.8029 73.496 31.2267C72.8718 30.6504 72.3195 30.3383 71.8393 30.2903C71.3591 28.7056 71.023 26.8328 70.8309 24.6719C70.6868 22.463 70.7108 20.278 70.9029 18.1171C71.143 15.9562 71.5512 14.1795 72.1274 12.7869C74.3844 13.075 76.9295 13.3151 79.7627 13.5072C82.5958 13.6512 85.5011 13.7233 88.4783 13.7233C92.0318 13.7233 95.2972 13.6032 98.2745 13.3631C101.3 13.123 100.129 13.3391 101.906 13.147V44.2642L108.071 40.4465V30.5064C107.782 28.8256 107.59 26.8328 107.494 24.5278C107.446 22.2229 107.494 19.9899 107.638 17.829C107.782 15.6681 108.023 13.9634 108.359 12.7148C109.511 12.8109 110.76 12.9549 112.104 13.147C113.449 13.3391 115.106 13.5072 117.074 13.6512C119.043 13.7473 121.492 13.7953 124.422 13.7953C128.023 13.7953 131.12 13.6752 133.713 13.4351C136.307 13.195 138.059 12.979 138.972 12.7869C139.404 14.1314 139.692 15.428 139.836 16.6765C139.98 17.877 140.052 19.0775 140.052 20.278C140.052 22.535 139.812 24.7199 139.332 26.8328C138.9 28.8977 133.154 32.115 132.674 34.1799C132.242 36.1968 132.674 38.2856 132.674 40.4465C132.674 42.5114 134.186 44.5539 134.618 45.8025C136.985 48.3699 135.484 47.4901 137.937 48.7609C140.39 50.0318 141.109 48.0818 141.781 48.3699C142.117 49.3303 142.333 50.5788 142.429 52.1155C142.573 53.6041 142.621 55.1888 142.573 56.8695C142.573 58.5502 142.453 60.1589 142.213 61.6955C141.973 63.1841 141.661 64.4087 141.277 65.3691C139.356 65.129 137.291 64.8889 135.082 64.6488C132.873 64.4567 130.496 64.3606 127.951 64.3606C124.542 64.3606 121.732 64.3846 119.523 64.4327C117.315 64.4807 115.49 64.5287 114.049 64.5767C112.609 64.6728 111.312 64.7688 110.159 64.8648C111.12 63.7124 111.912 62.0797 112.536 59.9668C113.161 57.8539 113.377 55.669 113.185 53.412C112.705 55.669 111.6 57.7578 109.871 59.6787C108.191 61.5514 105.838 63.0401 102.812 64.1445C99.8351 65.249 96.1376 65.8012 91.7197 65.8012Z" fill="black"></path><path d="M228.993 64.1479C224.863 64.1479 221.502 63.5957 218.909 62.4912C216.316 61.3868 214.467 59.1298 213.363 55.7204C212.738 53.7035 212.426 51.7347 212.426 49.8139C212.474 47.8931 212.618 45.9723 212.858 44.0514C213.098 42.1306 213.218 40.1858 213.218 38.217C213.218 35.768 212.954 33.8711 212.426 32.5266C211.946 31.134 211.394 30.1496 210.769 29.5733C210.145 28.9971 209.593 28.685 209.113 28.6369C208.633 27.0523 208.296 25.1795 208.104 23.0186C207.96 20.8096 207.984 18.6247 208.176 16.4638C208.416 14.3029 208.825 12.5261 209.401 11.1336C211.658 11.4217 214.203 11.6618 217.036 11.8539C219.869 11.9979 222.775 12.0699 225.752 12.0699C229.305 12.0699 232.571 11.9499 235.548 11.7098C238.573 11.4697 237.403 11.6858 239.18 11.4937V42.6108L245.344 38.7932V28.853C245.056 27.1723 244.864 25.1795 244.768 22.8745C244.72 20.5695 244.768 18.3366 244.912 16.1757C245.056 14.0148 245.296 12.3101 245.632 11.0615C246.785 11.1576 248.033 11.3016 249.378 11.4937C250.722 11.6858 252.379 11.8539 254.348 11.9979C256.317 12.094 258.766 12.142 261.695 12.142C265.296 12.142 268.394 12.0219 270.987 11.7818C273.58 11.5417 275.333 11.3256 276.245 11.1336C276.677 12.4781 276.965 13.7747 277.109 15.0232C277.254 16.2237 277.326 17.4242 277.326 18.6247C277.326 20.8817 277.085 23.0666 276.605 25.1795C276.173 27.2444 270.428 30.4617 269.948 32.5266C269.516 34.5434 269.948 36.6323 269.948 38.7932C269.948 40.8581 271.46 42.9006 271.892 44.1491C274.259 46.7166 272.757 45.8367 275.21 47.1076C277.663 48.3785 278.382 46.4284 279.054 46.7166C279.39 47.677 279.607 48.9255 279.703 50.4621C279.847 51.9508 279.895 53.5354 279.847 55.2162C279.847 56.8969 279.727 58.5055 279.486 60.0422C279.246 61.5308 278.934 62.7553 278.55 63.7157C276.629 63.4756 274.564 63.2355 272.355 62.9954C270.147 62.8034 267.769 62.7073 265.224 62.7073C261.815 62.7073 259.006 62.7313 256.797 62.7793C254.588 62.8274 252.763 62.8754 251.323 62.9234C249.882 63.0194 248.585 63.1155 247.433 63.2115C248.393 62.059 249.186 60.4264 249.81 58.3135C250.434 56.2006 250.65 54.0156 250.458 51.7587C249.978 54.0156 248.874 56.1045 247.145 58.0253C245.464 59.8981 243.111 61.3868 240.086 62.4912C237.109 63.5957 233.411 64.1479 228.993 64.1479Z" fill="black"></path><path d="M20.3846 76.0679C13.9019 76.0679 8.88375 74.8194 5.33025 72.3223C1.77675 69.8253 0 65.6956 0 59.9331C0 57.5321 0.456193 55.1311 1.36858 52.7301C2.32898 50.3291 3.74558 48.2402 5.61837 46.4634C7.2182 51.9419 12.628 53.6324 19.9819 51.9419L15.5586 48.4803C10.3969 44.5345 8.23548 45.9832 5.97852 44.1585C3.72157 42.3337 2.16091 40.2448 1.29655 37.8918C0.432182 35.5388 0 33.0898 0 30.5447C0 27.0873 0.840355 23.9179 2.52106 21.0367C4.20177 18.1075 6.77086 15.7545 10.2283 13.9777C13.6858 12.201 18.0796 11.3126 23.4099 11.3126C26.2431 11.3126 28.5721 11.6247 30.3968 12.249C32.2216 12.8733 33.6862 13.6656 34.7907 14.626C35.8952 15.5384 36.6875 16.5228 37.1677 17.5793C37.6479 13.6896 38.7283 10.4963 40.4091 7.99921C42.1378 5.50216 44.2747 3.65338 46.8198 2.45287C49.3648 1.20434 52.126 0.580078 55.1033 0.580078C57.6003 0.580078 59.8573 1.13231 61.8741 2.23678C63.891 3.29322 65.4756 4.82987 66.6281 6.84672C67.8286 8.86357 68.4289 11.3126 68.4289 14.1938C68.4289 17.027 67.9007 19.38 66.8442 21.2528C65.8358 23.1256 64.4672 24.5422 62.7385 25.5026C61.0098 26.415 59.0889 26.8712 56.976 26.8712C55.0552 26.8712 53.3265 26.7271 51.7899 26.439C50.2532 26.1029 48.9086 25.6707 47.7562 25.1424L46.7477 26.9432C47.6121 27.4234 48.1674 30.2566 49.3199 30.5447C51.1447 31.0729 53.2785 31.5112 55.1033 31.6552C56.928 31.7993 58.7768 29.3682 60.3615 29.4643C61.9461 29.5123 63.3387 29.7284 64.5392 30.1125C65.7878 30.4967 66.7482 31.193 67.4205 32.2014C68.1408 33.2099 68.5009 34.7225 68.5009 36.7393C68.5009 39.8126 67.2764 42.3817 64.8274 44.4466C62.4263 46.4634 59.137 48.0001 54.9592 49.0565C50.7814 50.065 46.0274 50.6892 40.6972 50.9293L40.7692 53.0182C44.2747 52.9702 47.468 52.9942 50.3493 53.0902C53.2785 53.1863 55.8716 53.5704 58.1285 54.2427C60.3855 54.915 62.2823 56.0435 63.8189 57.6282C65.3556 59.2128 66.5081 61.4218 67.2764 64.255C68.0927 67.1362 68.5009 70.8097 68.5009 75.2756C65.8598 75.8999 63.0266 76.212 60.0013 76.212C57.0241 76.26 54.1428 75.9959 51.3577 75.4197C50.3493 74.6994 54.9592 69.4391 48.5592 68.0866C46.7824 68.0386 41.8542 67.7985 39.2611 68.0866C36.668 68.4228 37.1677 68.0866 32.3417 69.4391C25.6522 72.3223 24.5143 76.0679 20.3846 76.0679ZM25.5148 35.4055H30.3968V31.6552H25.5148V35.4055Z" fill="black"></path></svg>