<svg xmlns="http://www.w3.org/2000/svg" width="1149" height="1006" viewBox="0 0 1149 1006" fill="none"><mask id="mask0_68_34" style="mask-type:alpha" maskUnits="userSpaceOnUse" x="0" y="0" width="1149" height="1006"><path d="M548.269 590.83C568.694 602.34 591.572 602.608 607.237 590.83C616.498 583.852 627.865 569.122 624.49 555.167C620.854 540.108 601.987 533.578 591.428 529.91C564.136 520.428 546.076 529.046 541.085 519.504C538.229 514.017 543.537 509.932 549.711 486.793C554.096 470.333 556.289 462.103 554.039 454.082C550.144 440.306 534.94 426.231 516.649 427.334C500.349 428.318 486.675 441.051 483.588 454.082C480.328 467.768 490.108 475.879 485.03 491.236C482.722 498.213 477.01 511.393 473.519 507.576C444.092 475.253 360.544 429.72 345.369 402.257C335.156 383.799 401.568 408.549 434.197 354.368C436.995 349.746 451.565 312.413 442.621 263.302C438.265 239.417 453.411 231.724 455.805 229.16C492.848 189.68 533.353 158.281 523.371 148.948C503.032 129.894 389.826 143.044 360.63 130.788C356.101 128.88 365.39 123.9 371.449 110.661C378.892 94.3796 383.277 67.9901 371.449 43.5687C370.641 41.869 352.985 7.07066 315.192 3.31352C278.322 -0.324357 254.752 28.7786 250.28 34.6231C225.094 67.5428 225.989 120.203 243.789 130.758C253.136 136.305 268.888 131.265 274.081 121.813C280.803 109.527 270.042 89.0123 256.771 79.3212C232.855 61.8773 192.35 63.0104 177.666 69.5109C159.519 77.5321 136.295 104.518 126.977 132.995C111.311 180.854 160.038 244.188 187.561 240.312C200.803 238.463 212.776 220.542 209.198 211.239C203.573 196.687 156.144 194.421 122.678 215.712C119.62 217.65 92.9917 241.445 96.3671 289.006C99.5406 334.062 139.469 363.075 170.915 360.243C189.003 358.602 217.767 337.461 216.613 348.792C199.88 512.705 259.772 550.962 217.882 656.192C189.725 726.922 100.262 729.188 73.3451 732.17C73.1431 732.17 73.0277 732.409 73.1143 732.617L124.121 853.83L95.5017 993.352C94.6073 997.705 90.7126 1000.72 86.414 1000.33L80.5575 999.822C78.1918 999.613 76.1147 998.033 75.2492 995.737L3.5577 807.641C2.51911 804.957 2.95185 801.886 4.68284 799.59L9.73153 792.881C11.2029 790.943 13.1646 789.482 15.4149 788.647L78.1053 766.104" fill="#0332F4"></path><path d="M548.269 590.83C568.694 602.34 591.572 602.608 607.237 590.83C616.498 583.852 627.865 569.122 624.49 555.167C620.854 540.108 601.987 533.578 591.428 529.91C564.136 520.428 546.076 529.046 541.085 519.504C538.229 514.017 543.537 509.932 549.711 486.793C554.096 470.333 556.289 462.103 554.039 454.082C550.144 440.306 534.94 426.231 516.649 427.334C500.349 428.318 486.675 441.051 483.588 454.082C480.328 467.768 490.108 475.879 485.03 491.236C482.722 498.213 477.01 511.393 473.519 507.576C444.092 475.253 360.544 429.72 345.369 402.257C335.156 383.799 401.568 408.549 434.197 354.368C436.995 349.746 451.565 312.413 442.621 263.302C438.265 239.417 453.411 231.724 455.805 229.16C492.848 189.68 533.353 158.281 523.371 148.948C503.032 129.894 389.826 143.044 360.63 130.788C356.101 128.88 365.39 123.9 371.449 110.661C378.892 94.3796 383.277 67.9901 371.449 43.5687C370.641 41.869 352.985 7.07066 315.192 3.31352C278.322 -0.324357 254.752 28.7786 250.28 34.6231C225.094 67.5428 225.989 120.203 243.789 130.758C253.136 136.305 268.888 131.265 274.081 121.813C280.803 109.527 270.042 89.0123 256.771 79.3212C232.855 61.8773 192.35 63.0104 177.666 69.5109C159.519 77.5321 136.295 104.518 126.977 132.995C111.311 180.854 160.038 244.188 187.561 240.312C200.803 238.463 212.776 220.542 209.198 211.239C203.573 196.687 156.144 194.421 122.678 215.712C119.62 217.65 92.9917 241.445 96.3671 289.006C99.5406 334.062 139.469 363.075 170.915 360.243C189.003 358.602 217.767 337.461 216.613 348.792C199.88 512.705 259.772 550.962 217.882 656.192C189.725 726.922 100.262 729.188 73.3451 732.17C73.1431 732.17 73.0277 732.409 73.1143 732.617L124.121 853.83L95.5017 993.352C94.6073 997.705 90.7126 1000.72 86.414 1000.33L80.5575 999.822C78.1918 999.613 76.1147 998.033 75.2492 995.737L3.5577 807.641C2.51911 804.957 2.95185 801.886 4.68284 799.59L9.73153 792.881C11.2029 790.943 13.1646 789.482 15.4149 788.647L78.1053 766.104" stroke="black" stroke-width="5.39908" stroke-miterlimit="10" stroke-linecap="round"></path><path d="M285.109 535.812L415.972 638.359C457.631 688.216 498.482 701.127 519.513 705.242C526.495 706.614 561.316 712.876 566.971 700.769C573.952 685.8 531.918 652.075 536.765 645.784C539.708 641.967 554.421 655.027 574.154 654.699C590.281 654.431 615.092 647.781 620.17 629.443C623.689 616.8 616.246 604.395 613.073 599.714" fill="#0332F4"></path><path d="M285.109 535.812L415.972 638.359C457.631 688.216 498.482 701.127 519.513 705.242C526.495 706.614 561.316 712.876 566.971 700.769C573.952 685.8 531.918 652.075 536.765 645.784C539.708 641.967 554.421 655.027 574.154 654.699C590.281 654.431 615.092 647.781 620.17 629.443C623.689 616.8 616.246 604.395 613.073 599.714" stroke="black" stroke-width="5.39908" stroke-miterlimit="10" stroke-linecap="round"></path><path d="M410.168 709.145L502.285 769.707L553.926 802.895L570.745 801.971L643.158 693.371" fill="#0332F4"></path><path d="M410.168 709.145L502.285 769.707L553.926 802.895L570.745 801.971L643.158 693.371" stroke="black" stroke-width="5.39908" stroke-miterlimit="10"></path><path d="M375.888 607.502C350.99 624.171 313.515 650.56 298.484 662.994C268.249 688.042 257.892 700.715 253.825 717.801C252.296 724.182 248.747 739.032 256.623 749.528C260.662 754.925 271.106 762.141 305.466 755.313C329.699 750.482 394.611 727.373 457.446 678.44" fill="#0332F4"></path><path d="M375.888 607.502C350.99 624.171 313.515 650.56 298.484 662.994C268.249 688.042 257.892 700.715 253.825 717.801C252.296 724.182 248.747 739.032 256.623 749.528C260.662 754.925 271.106 762.141 305.466 755.313C329.699 750.482 394.611 727.373 457.446 678.44" stroke="black" stroke-width="6.47889" stroke-miterlimit="10"></path><path d="M548.938 498.542C595.53 473.733 652.825 440.545 684.098 425.159C762.454 386.544 795.17 373.453 815.711 365.7C843.666 355.145 867.323 347.541 883.969 342.531" fill="#0332F4"></path><path d="M548.938 498.542C595.53 473.733 652.825 440.545 684.098 425.159C762.454 386.544 795.17 373.453 815.711 365.7C843.666 355.145 867.323 347.541 883.969 342.531" stroke="black" stroke-width="5.39908" stroke-miterlimit="10"></path><path d="M587.277 917.221C601.991 941.464 624.176 972.922 636.639 992.782C638.947 996.42 641.861 1000.95 647.083 1002.5C660.902 1006.59 673.019 984.611 696.185 963.619C724.688 937.796 735.824 944.297 785.013 910.691C813.661 891.13 826.643 887.015 825.778 879.381C824.566 868.766 796.755 862.922 787.119 861.013C760.375 855.705 708.619 851.68 649.535 870.108" fill="#0332F4"></path><path d="M587.277 917.221C601.991 941.464 624.176 972.922 636.639 992.782C638.947 996.42 641.861 1000.95 647.083 1002.5C660.902 1006.59 673.019 984.611 696.185 963.619C724.688 937.796 735.824 944.297 785.013 910.691C813.661 891.13 826.643 887.015 825.778 879.381C824.566 868.766 796.755 862.922 787.119 861.013C760.375 855.705 708.619 851.68 649.535 870.108" stroke="black" stroke-width="5.39908" stroke-miterlimit="10"></path><path d="M898.81 360.093C892.665 342.828 887.847 342.649 886.837 335.343C882.942 307.254 948.662 267.894 1007.49 252.537C1014.09 250.808 1042.89 248.213 1100.5 243.025C1122.51 241.027 1142.88 239.387 1145.62 246.842C1147.61 252.239 1138.67 257.785 1126.29 275.408C1115.36 290.973 1116.51 294.939 1104.19 317.303C1094.84 334.27 1086.88 348.732 1072.89 363.94C1065.5 371.961 1051.25 387.168 1027.77 398.201C1007.66 407.654 990.494 409.473 978.954 410.576C955.384 412.872 939.69 409.264 933.833 407.713C922.091 404.642 916.062 403.062 910.811 397.247C902.791 388.331 905.791 379.654 898.838 360.123L898.81 360.093Z" fill="#0332F4" stroke="black" stroke-width="5.39908" stroke-miterlimit="10"></path><path d="M869.754 471.77C875.236 498.487 862.196 552.25 842.636 574.256C822.729 596.62 797.255 602.882 789.206 604.731C742.758 615.287 699.628 591.074 699.253 592.326C699.137 592.684 702.628 594.414 722.909 601.898" fill="#0332F4"></path><path d="M869.754 471.77C875.236 498.487 862.196 552.25 842.636 574.256C822.729 596.62 797.255 602.882 789.206 604.731C742.758 615.287 699.628 591.074 699.253 592.326C699.137 592.684 702.628 594.414 722.909 601.898" stroke="black" stroke-width="5.39908" stroke-miterlimit="10"></path><path d="M923.018 404.104C903.631 414.689 869.185 438.663 863.098 445.969Z" fill="#0332F4"></path><path d="M923.018 404.104C903.631 414.689 869.185 438.663 863.098 445.969" stroke="black" stroke-width="5.39908" stroke-miterlimit="10"></path><path d="M869.735 471.77C868.668 466.88 862.148 434.109 853.666 426.147C850.348 423.046 845.126 418.156 837.193 417.381C826.201 416.307 818.094 423.911 816.248 425.64C808.43 432.976 806.295 442.697 804.275 451.94C803.467 455.668 803.063 459.216 802.285 466.373C801.39 474.573 801.044 480.954 800.784 486.47C800.611 490.228 800.323 496.161 800.294 504.004C800.294 510.325 800.409 516.885 800.294 516.885C800.005 516.885 798.015 480.835 787.312 447.289C785.667 442.1 779.638 435.868 773.723 434.526C769.915 433.662 765.934 429.01 755.606 436.077C738.296 447.945 741.412 453.491 740.517 456.89C738.008 466.253 739.104 459.485 738.065 482.534C737.517 494.73 741.296 506.419 743.287 515.335C743.662 516.975 742.652 524.042 743.922 531.854C744.874 537.669 744.845 539.07 744.931 539.07C745.22 539.07 747.643 514.709 736.45 493.18C732.959 486.47 728.949 478.747 720.496 475.139C708.379 469.951 694.127 476.123 686.078 483.817C673.067 496.251 672.317 516.349 674.105 524.758C675.057 529.141 675.663 532.749 676.875 539.995C677.712 544.945 677.914 546.555 677.798 548.553C677.452 554.725 685.068 563.015 682.76 565.818" fill="#0332F4"></path><path d="M869.735 471.77C868.668 466.88 862.148 434.109 853.666 426.147C850.348 423.046 845.126 418.156 837.193 417.381C826.201 416.307 818.094 423.911 816.248 425.64C808.43 432.976 806.295 442.697 804.275 451.94C803.467 455.668 803.063 459.216 802.285 466.373C801.39 474.573 801.044 480.954 800.784 486.47C800.611 490.228 800.323 496.161 800.294 504.004C800.294 510.325 800.409 516.885 800.294 516.885C800.005 516.885 798.015 480.835 787.312 447.289C785.667 442.1 779.638 435.868 773.723 434.526C769.915 433.662 765.934 429.01 755.606 436.077C738.296 447.945 741.412 453.491 740.517 456.89C738.008 466.253 739.104 459.485 738.065 482.534C737.517 494.73 741.296 506.419 743.287 515.335C743.662 516.975 742.652 524.042 743.922 531.854C744.874 537.669 744.845 539.07 744.931 539.07C745.22 539.07 747.643 514.709 736.45 493.18C732.959 486.47 728.949 478.747 720.496 475.139C708.379 469.951 694.127 476.123 686.078 483.817C673.067 496.251 672.317 516.349 674.105 524.758C675.057 529.141 675.663 532.749 676.875 539.995C677.712 544.945 677.914 546.555 677.798 548.553C677.452 554.725 685.068 563.015 682.76 565.818" stroke="black" stroke-width="5.39908" stroke-miterlimit="10"></path><path d="M294.738 229.487C306.653 251.97 333.743 260.558 355.092 249.436C375.287 238.91 384.98 213.504 376.816 190.812" fill="#0332F4"></path><path d="M294.738 229.487C306.653 251.97 333.743 260.558 355.092 249.436C375.287 238.91 384.98 213.504 376.816 190.812" stroke="black" stroke-width="5.39908" stroke-miterlimit="10" stroke-linecap="round"></path><path d="M363.488 305.646C387.058 321.599 408.378 330.754 436.94 326.102Z" fill="#0332F4"></path><path d="M363.488 305.646C387.058 321.599 408.378 330.754 436.94 326.102" stroke="black" stroke-width="5.39908" stroke-miterlimit="10" stroke-linecap="round"></path><path d="M607.2 590.828C632.617 581.405 658.005 572.013 683.421 562.59L699.231 592.319L643.147 693.374L729.437 819.716L538.192 944.566C450.056 782.234 410.446 702.708 400.146 726.085C386.414 757.276 370.373 798.545 312.414 859.852C269.919 904.818 202.785 923.008 167.647 931.118C163.175 932.162 158.617 929.836 156.655 925.542L124.055 853.918" fill="#0332F4"></path><path d="M607.2 590.828C632.617 581.405 658.005 572.013 683.421 562.59L699.231 592.319L643.147 693.374L729.437 819.716L538.192 944.566C450.056 782.234 410.446 702.708 400.146 726.085C386.414 757.276 370.373 798.545 312.414 859.852C269.919 904.818 202.785 923.008 167.647 931.118C163.175 932.162 158.617 929.836 156.655 925.542L124.055 853.918" stroke="black" stroke-width="5.39908" stroke-miterlimit="10"></path><path d="M321.416 652.94L274.016 630.188C286.421 608.6 307.799 592.02 320.204 570.432" fill="#0332F4"></path><path d="M321.416 652.94L274.016 630.188C286.421 608.6 307.799 592.02 320.204 570.432" stroke="black" stroke-width="5.39908" stroke-miterlimit="10"></path><path d="M724.639 409.117C701.184 401.096 652.63 370.472 617.635 347.482C565.244 313.042 528.345 259.905 518.536 283.104C508.237 307.466 501.688 348.138 460.116 407.865C445.172 429.334 430.112 444.9 419.582 454.829" fill="#0332F4"></path><path d="M724.639 409.117C701.184 401.096 652.63 370.472 617.635 347.482C565.244 313.042 528.345 259.905 518.536 283.104C508.237 307.466 501.688 348.138 460.116 407.865C445.172 429.334 430.112 444.9 419.582 454.829" stroke="black" stroke-width="5.39908" stroke-miterlimit="10"></path></mask><g mask="url(#mask0_68_34)"><rect x="-184.012" y="-24.6172" width="1693.19" height="1208.54" fill="#0332F4"></rect></g></svg>