<svg xmlns="http://www.w3.org/2000/svg" width="300" height="300" viewBox="0 0 300 300" fill="none"><g clip-path="url(#clip0_34_79)"><path d="M287.143 12.8569H12.8571C5.76857 12.8569 0 18.6255 0 25.7141V214.285C0 221.374 5.76857 227.143 12.8571 227.143H64.2857C66.6514 227.143 68.5714 229.071 68.5714 231.428V282.857C68.5714 284.468 69.4714 285.934 70.9029 286.671C71.52 286.98 72.1886 287.143 72.8571 287.143C73.74 287.143 74.6143 286.877 75.36 286.337L156.626 227.948C157.363 227.417 158.229 227.143 159.129 227.143H287.143C294.231 227.143 300 221.374 300 214.285V25.7141C300 18.6255 294.231 12.8569 287.143 12.8569ZM291.429 214.285C291.429 216.643 289.509 218.571 287.143 218.571H159.129C156.429 218.571 153.831 219.411 151.629 220.98L77.1429 274.5V231.428C77.1429 224.34 71.3743 218.571 64.2857 218.571H12.8571C10.4914 218.571 8.57143 216.643 8.57143 214.285V25.7141C8.57143 23.3569 10.4914 21.4284 12.8571 21.4284H287.143C289.509 21.4284 291.429 23.3569 291.429 25.7141V214.285Z" fill="#0332F4"></path><mask id="mask0_34_79" style="mask-type:alpha" maskUnits="userSpaceOnUse" x="53" y="34" width="194" height="176"><path d="M154.476 136.931C151.122 138.888 147.366 138.934 144.794 136.931C143.274 135.745 141.407 133.241 141.961 130.869C142.558 128.309 145.656 127.199 147.39 126.575C151.871 124.963 154.836 126.428 155.655 124.806C156.124 123.873 155.253 123.179 154.239 119.245C153.519 116.447 153.159 115.048 153.528 113.684C154.168 111.342 156.664 108.95 159.667 109.137C162.343 109.304 164.588 111.469 165.095 113.684C165.631 116.011 164.025 117.39 164.858 120C165.237 121.187 166.175 123.427 166.748 122.778C171.58 117.283 185.297 109.543 187.789 104.874C189.465 101.736 178.562 105.944 173.204 96.7328C172.745 95.9471 170.353 89.6005 171.821 81.2515C172.537 77.1911 170.05 75.8833 169.657 75.4473C163.575 68.7357 156.925 63.3979 158.563 61.8112C161.903 58.572 180.489 60.8075 185.283 58.7241C186.027 58.3996 184.501 57.5531 183.507 55.3024C182.285 52.5346 181.565 48.0484 183.507 43.8967C183.639 43.6078 186.538 37.692 192.743 37.0533C198.797 36.4349 202.666 41.3824 203.401 42.3759C207.536 47.9723 207.389 56.9245 204.466 58.719C202.932 59.6619 200.345 58.8052 199.493 57.1982C198.389 55.1097 200.156 51.6221 202.335 49.9747C206.262 47.0092 212.912 47.2018 215.323 48.3069C218.302 49.6705 222.115 54.2581 223.645 59.0992C226.217 67.2352 218.217 78.0022 213.698 77.3432C211.524 77.0289 209.558 73.9823 210.146 72.4007C211.069 69.927 218.856 69.5417 224.351 73.1611C224.853 73.4906 229.225 77.5358 228.671 85.6212C228.15 93.2807 221.594 98.213 216.431 97.7315C213.461 97.4527 208.739 93.8586 208.928 95.7849C211.676 123.65 201.842 130.154 208.72 148.043C213.343 160.067 228.031 160.452 232.45 160.959C232.484 160.959 232.503 161 232.488 161.035L224.114 181.642L228.813 205.36C228.96 206.101 229.599 206.612 230.305 206.547L231.266 206.46C231.655 206.425 231.996 206.156 232.138 205.766L243.908 173.79C244.079 173.333 244.008 172.811 243.724 172.421L242.895 171.28C242.653 170.951 242.331 170.702 241.962 170.56L231.669 166.728" fill="#0332F4"></path><path d="M154.476 136.931C151.122 138.888 147.366 138.934 144.794 136.931C143.274 135.745 141.407 133.241 141.961 130.869C142.558 128.309 145.656 127.199 147.39 126.575C151.871 124.963 154.836 126.428 155.655 124.806C156.124 123.873 155.253 123.179 154.239 119.245C153.519 116.447 153.159 115.048 153.528 113.684C154.168 111.342 156.664 108.95 159.667 109.137C162.343 109.304 164.588 111.469 165.095 113.684C165.631 116.011 164.025 117.39 164.858 120C165.237 121.187 166.175 123.427 166.748 122.778C171.58 117.283 185.297 109.543 187.789 104.874C189.465 101.736 178.562 105.944 173.204 96.7328C172.745 95.9471 170.353 89.6005 171.821 81.2515C172.537 77.1911 170.05 75.8833 169.657 75.4473C163.575 68.7357 156.925 63.3979 158.563 61.8112C161.903 58.572 180.489 60.8075 185.283 58.7241C186.027 58.3996 184.501 57.5531 183.507 55.3024C182.285 52.5346 181.565 48.0484 183.507 43.8967C183.639 43.6078 186.538 37.692 192.743 37.0533C198.797 36.4349 202.666 41.3824 203.401 42.3759C207.536 47.9723 207.389 56.9245 204.466 58.719C202.932 59.6619 200.345 58.8052 199.493 57.1982C198.389 55.1097 200.156 51.6221 202.335 49.9747C206.262 47.0092 212.912 47.2018 215.323 48.3069C218.302 49.6705 222.115 54.2581 223.645 59.0992C226.217 67.2352 218.217 78.0022 213.698 77.3432C211.524 77.0289 209.558 73.9823 210.146 72.4007C211.069 69.927 218.856 69.5417 224.351 73.1611C224.853 73.4906 229.225 77.5358 228.671 85.6212C228.15 93.2807 221.594 98.213 216.431 97.7315C213.461 97.4527 208.739 93.8586 208.928 95.7849C211.676 123.65 201.842 130.154 208.72 148.043C213.343 160.067 228.031 160.452 232.45 160.959C232.484 160.959 232.503 161 232.488 161.035L224.114 181.642L228.813 205.36C228.96 206.101 229.599 206.612 230.305 206.547L231.266 206.46C231.655 206.425 231.996 206.156 232.138 205.766L243.908 173.79C244.079 173.333 244.008 172.811 243.724 172.421L242.895 171.28C242.653 170.951 242.331 170.702 241.962 170.56L231.669 166.728" stroke="black" stroke-width="5.39908" stroke-miterlimit="10" stroke-linecap="round"></path><path d="M197.688 127.58L176.202 145.013C169.362 153.488 162.655 155.683 159.202 156.383C158.056 156.616 152.339 157.68 151.41 155.622C150.264 153.078 157.165 147.344 156.37 146.275C155.887 145.626 153.471 147.846 150.231 147.79C147.583 147.745 143.51 146.614 142.676 143.497C142.098 141.347 143.32 139.239 143.841 138.443" fill="#0332F4"></path><path d="M197.688 127.58L176.202 145.013C169.362 153.488 162.655 155.683 159.202 156.383C158.056 156.616 152.339 157.68 151.41 155.622C150.264 153.078 157.165 147.344 156.37 146.275C155.887 145.626 153.471 147.846 150.231 147.79C147.583 147.745 143.51 146.614 142.676 143.497C142.098 141.347 143.32 139.239 143.841 138.443" stroke="black" stroke-width="5.39908" stroke-miterlimit="10" stroke-linecap="round"></path><path d="M177.168 157.044L162.044 167.339L153.565 172.981L150.804 172.824L138.915 154.362" fill="#0332F4"></path><path d="M177.168 157.044L162.044 167.339L153.565 172.981L150.804 172.824L138.915 154.362" stroke="black" stroke-width="5.39908" stroke-miterlimit="10"></path><path d="M182.773 139.765C186.861 142.598 193.014 147.085 195.481 149.198C200.446 153.457 202.146 155.611 202.814 158.516C203.065 159.6 203.647 162.125 202.354 163.909C201.691 164.827 199.977 166.053 194.335 164.893C190.356 164.071 179.699 160.143 169.383 151.824" fill="#0332F4"></path><path d="M182.773 139.765C186.861 142.598 193.014 147.085 195.481 149.198C200.446 153.457 202.146 155.611 202.814 158.516C203.065 159.6 203.647 162.125 202.354 163.909C201.691 164.827 199.977 166.053 194.335 164.893C190.356 164.071 179.699 160.143 169.383 151.824" stroke="black" stroke-width="6.47889" stroke-miterlimit="10"></path><path d="M154.371 121.245C146.721 117.027 137.314 111.385 132.18 108.769C119.315 102.205 113.944 99.9794 110.571 98.6614C105.981 96.8669 102.097 95.5743 99.3643 94.7227" fill="#0332F4"></path><path d="M154.371 121.245C146.721 117.027 137.314 111.385 132.18 108.769C119.315 102.205 113.944 99.9794 110.571 98.6614C105.981 96.8669 102.097 95.5743 99.3643 94.7227" stroke="black" stroke-width="5.39908" stroke-miterlimit="10"></path><path d="M148.055 192.418C145.639 196.54 141.997 201.888 139.95 205.264C139.571 205.882 139.093 206.653 138.236 206.916C135.967 207.611 133.977 203.875 130.174 200.306C125.494 195.916 123.666 197.021 115.59 191.308C110.886 187.983 108.755 187.283 108.897 185.986C109.096 184.181 113.662 183.187 115.244 182.863C119.635 181.961 128.132 181.276 137.833 184.409" fill="#0332F4"></path><path d="M148.055 192.418C145.639 196.54 141.997 201.888 139.95 205.264C139.571 205.882 139.093 206.653 138.236 206.916C135.967 207.611 133.977 203.875 130.174 200.306C125.494 195.916 123.666 197.021 115.59 191.308C110.886 187.983 108.755 187.283 108.897 185.986C109.096 184.181 113.662 183.187 115.244 182.863C119.635 181.961 128.132 181.276 137.833 184.409" stroke="black" stroke-width="5.39908" stroke-miterlimit="10"></path><path d="M96.9173 97.7066C97.9262 94.7716 98.7173 94.7412 98.883 93.4992C99.5225 88.724 88.7324 82.0327 79.0744 79.4221C77.9897 79.1281 73.2625 78.6871 63.8034 77.805C60.1893 77.4654 56.8453 77.1866 56.3953 78.4539C56.0685 79.3714 57.5368 80.3143 59.5688 83.3102C61.364 85.9563 61.1746 86.6305 63.1971 90.4324C64.7318 93.3167 66.0391 95.7753 68.3364 98.3606C69.549 99.7242 71.8889 102.309 75.7445 104.185C79.0459 105.792 81.8643 106.101 83.7589 106.289C87.6288 106.679 90.2055 106.066 91.167 105.802C93.0949 105.28 94.0848 105.011 94.9469 104.023C96.2637 102.507 95.7711 101.032 96.9126 97.7117L96.9173 97.7066Z" fill="#0332F4" stroke="black" stroke-width="5.39908" stroke-miterlimit="10"></path><path d="M101.674 116.69C100.774 121.232 102.915 130.372 106.126 134.113C109.395 137.915 113.577 138.98 114.899 139.294C122.525 141.088 129.606 136.972 129.668 137.185C129.686 137.246 129.113 137.54 125.783 138.812" fill="#0332F4"></path><path d="M101.674 116.69C100.774 121.232 102.915 130.372 106.126 134.113C109.395 137.915 113.577 138.98 114.899 139.294C122.525 141.088 129.606 136.972 129.668 137.185C129.686 137.246 129.113 137.54 125.783 138.812" stroke="black" stroke-width="5.39908" stroke-miterlimit="10"></path><path d="M92.9628 105.188C96.1458 106.988 101.801 111.064 102.801 112.306Z" fill="#0332F4"></path><path d="M92.9628 105.188C96.1458 106.988 101.801 111.064 102.801 112.306" stroke="black" stroke-width="5.39908" stroke-miterlimit="10"></path><path d="M101.701 116.692C101.876 115.861 102.947 110.29 104.339 108.936C104.884 108.409 105.741 107.578 107.044 107.446C108.849 107.263 110.18 108.556 110.483 108.85C111.766 110.097 112.117 111.75 112.448 113.321C112.581 113.955 112.647 114.558 112.775 115.774C112.922 117.168 112.979 118.253 113.022 119.191C113.05 119.83 113.097 120.839 113.102 122.172C113.102 123.246 113.083 124.362 113.102 124.362C113.149 124.362 113.476 118.233 115.234 112.53C115.504 111.648 116.493 110.589 117.464 110.361C118.09 110.214 118.743 109.423 120.439 110.624C123.281 112.642 122.77 113.585 122.916 114.162C123.328 115.754 123.148 114.603 123.319 118.522C123.409 120.595 122.788 122.582 122.462 124.098C122.4 124.377 122.566 125.578 122.357 126.906C122.201 127.895 122.206 128.133 122.192 128.133C122.144 128.133 121.746 123.992 123.584 120.332C124.157 119.191 124.816 117.878 126.204 117.265C128.193 116.383 130.533 117.432 131.854 118.74C133.991 120.854 134.114 124.27 133.82 125.7C133.664 126.445 133.564 127.058 133.365 128.29C133.228 129.132 133.195 129.405 133.214 129.745C133.271 130.794 132.02 132.204 132.399 132.68" fill="#0332F4"></path><path d="M101.701 116.692C101.876 115.861 102.947 110.29 104.339 108.936C104.884 108.409 105.741 107.578 107.044 107.446C108.849 107.263 110.18 108.556 110.483 108.85C111.766 110.097 112.117 111.75 112.448 113.321C112.581 113.955 112.647 114.558 112.775 115.774C112.922 117.168 112.979 118.253 113.022 119.191C113.05 119.83 113.097 120.839 113.102 122.172C113.102 123.246 113.083 124.362 113.102 124.362C113.149 124.362 113.476 118.233 115.234 112.53C115.504 111.648 116.493 110.589 117.464 110.361C118.09 110.214 118.743 109.423 120.439 110.624C123.281 112.642 122.77 113.585 122.916 114.162C123.328 115.754 123.148 114.603 123.319 118.522C123.409 120.595 122.788 122.582 122.462 124.098C122.4 124.377 122.566 125.578 122.357 126.906C122.201 127.895 122.206 128.133 122.192 128.133C122.144 128.133 121.746 123.992 123.584 120.332C124.157 119.191 124.816 117.878 126.204 117.265C128.193 116.383 130.533 117.432 131.854 118.74C133.991 120.854 134.114 124.27 133.82 125.7C133.664 126.445 133.564 127.058 133.365 128.29C133.228 129.132 133.195 129.405 133.214 129.745C133.271 130.794 132.02 132.204 132.399 132.68" stroke="black" stroke-width="5.39908" stroke-miterlimit="10"></path><path d="M196.09 75.503C194.134 79.3251 189.686 80.785 186.181 78.8942C182.865 77.1048 181.274 72.7859 182.614 68.9282" fill="#0332F4"></path><path d="M196.09 75.503C194.134 79.3251 189.686 80.785 186.181 78.8942C182.865 77.1048 181.274 72.7859 182.614 68.9282" stroke="black" stroke-width="5.39908" stroke-miterlimit="10" stroke-linecap="round"></path><path d="M184.805 88.4487C180.935 91.1607 177.434 92.717 172.745 91.9262Z" fill="#0332F4"></path><path d="M184.805 88.4487C180.935 91.1607 177.434 92.717 172.745 91.9262" stroke="black" stroke-width="5.39908" stroke-miterlimit="10" stroke-linecap="round"></path><path d="M144.8 136.932C140.627 135.33 136.459 133.733 132.286 132.131L129.69 137.185L138.898 154.365L124.731 175.843L156.13 197.068C170.601 169.471 177.104 155.951 178.795 159.926C181.05 165.228 183.683 172.244 193.199 182.666C200.176 190.31 211.199 193.403 216.968 194.781C217.702 194.959 218.45 194.563 218.773 193.833L224.125 181.657" fill="#0332F4"></path><path d="M144.8 136.932C140.627 135.33 136.459 133.733 132.286 132.131L129.69 137.185L138.898 154.365L124.731 175.843L156.13 197.068C170.601 169.471 177.104 155.951 178.795 159.926C181.05 165.228 183.683 172.244 193.199 182.666C200.176 190.31 211.199 193.403 216.968 194.781C217.702 194.959 218.45 194.563 218.773 193.833L224.125 181.657" stroke="black" stroke-width="5.39908" stroke-miterlimit="10"></path><path d="M191.718 147.491L199.5 143.623C197.463 139.953 193.953 137.134 191.917 133.464" fill="#0332F4"></path><path d="M191.718 147.491L199.5 143.623C197.463 139.953 193.953 137.134 191.917 133.464" stroke="black" stroke-width="5.39908" stroke-miterlimit="10"></path><path d="M125.516 106.04C129.367 104.676 137.339 99.4702 143.084 95.5618C151.686 89.7069 157.744 80.6736 159.355 84.6175C161.046 88.759 162.121 95.6734 168.947 105.827C171.4 109.477 173.873 112.123 175.602 113.811" fill="#0332F4"></path><path d="M125.516 106.04C129.367 104.676 137.339 99.4702 143.084 95.5618C151.686 89.7069 157.744 80.6736 159.355 84.6175C161.046 88.759 162.121 95.6734 168.947 105.827C171.4 109.477 173.873 112.123 175.602 113.811" stroke="black" stroke-width="5.39908" stroke-miterlimit="10"></path></mask><g mask="url(#mask0_34_79)"><rect width="277.994" height="205.453" transform="matrix(-1 0 0 1 274.719 32.3076)" fill="#0332F4"></rect></g></g><defs><clipPath id="clip0_34_79"><rect width="300" height="300" fill="white"></rect></clipPath></defs></svg>