<svg xmlns="http://www.w3.org/2000/svg" width="271" height="247" viewBox="0 0 271 247" fill="none"><mask id="mask0_18_120" style="mask-type:alpha" maskUnits="userSpaceOnUse" x="0" y="0" width="271" height="247"><path d="M129.385 144.919C134.157 147.717 139.502 147.782 143.161 144.919C145.325 143.222 147.98 139.641 147.192 136.248C146.343 132.587 141.935 130.999 139.468 130.107C133.092 127.802 128.873 129.897 127.707 127.577C127.04 126.243 128.28 125.25 129.722 119.624C130.747 115.622 131.259 113.621 130.733 111.671C129.823 108.322 126.271 104.9 121.998 105.168C118.19 105.407 114.996 108.503 114.274 111.671C113.513 114.999 115.798 116.971 114.611 120.704C114.072 122.401 112.738 125.605 111.922 124.677C105.048 116.818 85.529 105.748 81.9839 99.071C79.598 94.5834 95.1131 100.601 102.736 87.4278C103.39 86.3041 106.793 77.2274 104.704 65.287C103.686 59.48 107.225 57.6095 107.784 56.986C116.438 47.3873 125.901 39.7533 123.569 37.4841C118.817 32.8515 92.3699 36.0487 85.5492 33.069C84.4911 32.605 86.6613 31.3943 88.0767 28.1754C89.8155 24.217 90.84 17.801 88.0767 11.8634C87.888 11.4502 83.7632 2.9897 74.934 2.07622C66.3205 1.19175 60.814 8.26753 59.7694 9.68849C53.8855 17.6922 54.0944 30.4954 58.2529 33.0618C60.4366 34.4102 64.1166 33.185 65.3297 30.8868C66.9001 27.8999 64.3861 22.9121 61.2858 20.5559C55.6985 16.3148 46.2358 16.5903 42.8052 18.1707C38.5658 20.1209 33.1403 26.682 30.9633 33.6055C27.3036 45.2414 38.6872 60.6399 45.117 59.6975C48.2105 59.248 51.0076 54.8909 50.1718 52.6289C48.8576 49.091 37.7773 48.54 29.9591 53.7164C29.2446 54.1876 23.0238 59.9729 23.8123 71.5363C24.5537 82.4908 33.8817 89.5448 41.2281 88.8561C45.4539 88.4573 52.1736 83.3172 51.904 86.0721C47.9949 125.924 61.9868 135.226 52.2005 160.81C45.6224 178.007 24.7222 178.558 18.434 179.283C18.3868 179.283 18.3598 179.341 18.38 179.391L30.2961 208.862L23.6101 242.783C23.4012 243.842 22.4913 244.574 21.4871 244.48L20.1189 244.357C19.5662 244.306 19.081 243.922 18.8788 243.363L2.13029 197.632C1.88765 196.979 1.98875 196.232 2.39314 195.674L3.57261 194.043C3.91635 193.572 4.37465 193.217 4.90036 193.014L19.546 187.533" stroke="black" stroke-width="3.36992" stroke-miterlimit="10" stroke-linecap="round"></path><path d="M67.9062 131.543L98.4781 156.475C108.21 168.597 117.754 171.736 122.667 172.736C124.298 173.07 132.433 174.592 133.754 171.649C135.385 168.009 125.566 159.81 126.698 158.28C127.385 157.352 130.823 160.528 135.433 160.448C139.2 160.383 144.996 158.766 146.183 154.307C147.005 151.233 145.266 148.217 144.525 147.079" stroke="black" stroke-width="3.36992" stroke-miterlimit="10" stroke-linecap="round"></path><path d="M97.125 173.686L118.645 188.41L130.71 196.479L134.639 196.254L151.556 169.851" stroke="black" stroke-width="3.36992" stroke-miterlimit="10"></path><path d="M89.1162 148.971C83.2997 153.023 74.5446 159.439 71.0332 162.463C63.9698 168.552 61.5502 171.634 60.5999 175.788C60.2427 177.339 59.4137 180.949 61.2537 183.501C62.1973 184.814 64.6371 186.568 72.6642 184.908C78.3257 183.733 93.4903 178.115 108.17 166.218" stroke="black" stroke-width="4.0439" stroke-miterlimit="10"></path><path d="M129.543 122.481C140.428 116.449 153.813 108.38 161.119 104.639C179.424 95.2505 187.067 92.0678 191.866 90.1829C198.397 87.6165 203.924 85.7678 207.813 84.5498" stroke="black" stroke-width="3.36992" stroke-miterlimit="10"></path><path d="M138.496 224.274C141.933 230.168 147.116 237.817 150.028 242.645C150.567 243.53 151.248 244.632 152.468 245.009C155.696 246.002 158.527 240.659 163.939 235.555C170.598 229.277 173.2 230.857 184.691 222.687C191.384 217.931 194.417 216.93 194.214 215.074C193.931 212.493 187.434 211.072 185.183 210.608C178.935 209.318 166.844 208.339 153.041 212.82" stroke="black" stroke-width="3.36992" stroke-miterlimit="10"></path><path d="M211.277 88.8196C209.841 84.622 208.716 84.5785 208.48 82.8023C207.57 75.973 222.923 66.4033 236.666 62.6696C238.209 62.2492 244.936 61.6184 258.395 60.357C263.538 59.8712 268.296 59.4725 268.936 61.2849C269.401 62.5971 267.312 63.9456 264.421 68.2302C261.866 72.0146 262.136 72.9788 259.258 78.4162C257.074 82.5413 255.214 86.0574 251.945 89.7548C250.22 91.705 246.89 95.4024 241.404 98.0848C236.706 100.383 232.696 100.825 230 101.093C224.494 101.652 220.827 100.774 219.459 100.397C216.716 99.6508 215.307 99.2665 214.081 97.8528C212.207 95.6851 212.908 93.5754 211.284 88.8268L211.277 88.8196Z" stroke="black" stroke-width="3.36992" stroke-miterlimit="10"></path><path d="M204.493 115.971C205.774 122.467 202.727 135.538 198.158 140.888C193.507 146.326 187.556 147.848 185.676 148.297C174.824 150.864 164.748 144.977 164.661 145.282C164.634 145.369 165.449 145.789 170.187 147.609" stroke="black" stroke-width="3.36992" stroke-miterlimit="10"></path><path d="M216.932 99.5205C212.403 102.094 204.356 107.923 202.934 109.699" stroke="black" stroke-width="3.36992" stroke-miterlimit="10"></path><path d="M204.487 115.971C204.238 114.782 202.714 106.815 200.733 104.879C199.958 104.125 198.738 102.936 196.884 102.748C194.317 102.487 192.423 104.335 191.991 104.756C190.165 106.539 189.666 108.903 189.194 111.15C189.006 112.056 188.911 112.919 188.729 114.659C188.52 116.653 188.439 118.204 188.379 119.546C188.338 120.459 188.271 121.902 188.264 123.808C188.264 125.345 188.291 126.94 188.264 126.94C188.197 126.94 187.732 118.175 185.231 110.019C184.847 108.758 183.438 107.243 182.057 106.916C181.167 106.706 180.237 105.575 177.824 107.293C173.78 110.179 174.508 111.527 174.299 112.354C173.713 114.63 173.969 112.984 173.726 118.589C173.598 121.554 174.481 124.396 174.946 126.563C175.034 126.962 174.798 128.68 175.095 130.58C175.317 131.993 175.31 132.334 175.33 132.334C175.398 132.334 175.964 126.411 173.349 121.177C172.533 119.546 171.597 117.668 169.622 116.791C166.791 115.529 163.462 117.03 161.581 118.9C158.542 121.923 158.366 126.81 158.784 128.854C159.007 129.92 159.148 130.797 159.431 132.559C159.627 133.762 159.674 134.154 159.647 134.64C159.566 136.14 161.345 138.156 160.806 138.837" stroke="black" stroke-width="3.36992" stroke-miterlimit="10"></path><path d="M70.1562 57.067C72.9398 62.5333 79.2685 64.6213 84.256 61.9171C88.9739 59.3579 91.2385 53.1811 89.3311 47.6641" stroke="black" stroke-width="3.36992" stroke-miterlimit="10" stroke-linecap="round"></path><path d="M86.2188 75.582C91.7252 79.4607 96.7059 81.6863 103.378 80.5554" stroke="black" stroke-width="3.36992" stroke-miterlimit="10" stroke-linecap="round"></path><path d="M143.157 144.918C149.095 142.627 155.026 140.344 160.964 138.053L164.657 145.281L151.555 169.85L171.714 200.568L127.035 230.922C106.445 191.455 97.1915 172.119 94.7854 177.803C91.5772 185.387 87.8299 195.42 74.2895 210.326C64.3618 221.258 48.6782 225.681 40.469 227.653C39.4244 227.906 38.3595 227.341 37.9012 226.297L30.2852 208.883" stroke="black" stroke-width="3.36992" stroke-miterlimit="10"></path><path d="M76.39 160.02L65.3164 154.489C68.2145 149.24 73.2088 145.209 76.1069 139.96" stroke="black" stroke-width="3.36992" stroke-miterlimit="10"></path><path d="M170.591 100.738C165.112 98.7881 153.769 91.3425 145.593 85.753C133.354 77.3795 124.733 64.4604 122.442 70.1007C120.036 76.0238 118.506 85.9125 108.794 100.434C105.302 105.654 101.784 109.438 99.3242 111.852" stroke="black" stroke-width="3.36992" stroke-miterlimit="10"></path></mask><g mask="url(#mask0_18_120)"><rect x="-87" y="-96" width="481" height="453" fill="white"></rect></g></svg>