<svg xmlns="http://www.w3.org/2000/svg" width="312" height="313" viewBox="0 0 312 313" fill="none"><path d="M156.209 0.846191L196.811 72.4987L278.146 59.568L247.441 135.986L308.262 191.515L229.372 215.154L223.879 297.328L156.209 250.388L88.5395 297.328L83.0472 215.154L4.15642 191.515L64.9776 135.986L34.2724 59.568L115.607 72.4987L156.209 0.846191Z" fill="#FB7558"></path><path d="M220.309 16.3083L226.013 98.4671L304.964 121.904L244.286 177.588L275.187 253.928L193.819 241.206L153.402 312.963L112.616 241.415L31.3141 254.555L61.8227 178.058L0.858825 122.686L79.6885 98.8434L84.9694 16.6564L152.76 63.4223L220.309 16.3083Z" fill="#FB7558"></path></svg>