<svg xmlns="http://www.w3.org/2000/svg" width="347" height="400" viewBox="0 0 347 400" fill="none"><g clip-path="url(#clip0_18_1340)"><path d="M220.949 399.978V289.607" stroke="white" stroke-linecap="round" stroke-linejoin="round"></path><path d="M100.703 83.4482C100.223 88.0655 97.9483 92.3094 94.3689 95.2652C88.5786 100.33 88.0352 104.83 88.0352 104.83L92.809 131.562L100.703 136.343" stroke="white" stroke-width="3" stroke-linecap="round" stroke-linejoin="round"></path><path d="M93.5117 136.347H123.196" stroke="white" stroke-width="3" stroke-linecap="round" stroke-linejoin="round"></path><path d="M100.703 83.4482C100.929 85.7378 101.605 87.9602 102.692 89.988C103.779 92.0158 105.256 93.8091 107.037 95.2652C112.804 100.33 113.347 104.83 113.347 104.83L108.597 131.562L100.703 136.343" stroke="white" stroke-width="3" stroke-linecap="round" stroke-linejoin="round"></path><path d="M145.504 83.4482C145.729 85.7407 146.406 87.9657 147.498 89.9942C148.589 92.0227 150.072 93.8144 151.862 95.2652C157.605 100.33 158.172 104.83 158.172 104.83L153.398 131.562L145.504 136.343" stroke="white" stroke-width="3" stroke-linecap="round" stroke-linejoin="round"></path><path d="M152.68 136.347H122.996" stroke="white" stroke-width="3" stroke-linecap="round" stroke-linejoin="round"></path><path d="M145.492 83.4482C145.27 85.7364 144.598 87.9582 143.515 89.9861C142.432 92.014 140.96 93.8081 139.181 95.2652C133.391 100.33 132.848 104.83 132.848 104.83L137.621 131.562L145.492 136.343" stroke="white" stroke-width="3" stroke-linecap="round" stroke-linejoin="round"></path><path d="M122.996 120.875V326.974" stroke="white" stroke-width="3" stroke-linecap="round" stroke-linejoin="round"></path><path d="M122.993 326.97H117.297L107.867 399.987H122.993" stroke="white" stroke-width="3" stroke-linecap="round" stroke-linejoin="round"></path><path d="M118.863 246.503H127.159" stroke="white" stroke-width="3" stroke-linecap="round" stroke-linejoin="round"></path><path d="M118.863 253.677H127.159" stroke="white" stroke-width="3" stroke-linecap="round" stroke-linejoin="round"></path><path d="M122.996 326.97H128.692L138.122 399.987H122.996" stroke="white" stroke-width="3" stroke-linecap="round" stroke-linejoin="round"></path><path d="M109.465 387.753H136.644" stroke="white" stroke-linecap="round" stroke-linejoin="round"></path><path d="M120.562 354.269L118.742 381.275" stroke="white" stroke-linecap="round" stroke-linejoin="round"></path><path d="M125.5 354.269L127.344 381.28" stroke="white" stroke-linecap="round" stroke-linejoin="round"></path><path d="M114.746 346.689H131.243" stroke="white" stroke-linecap="round" stroke-linejoin="round"></path><path d="M88.0352 104.838H113.347" stroke="white" stroke-linecap="round" stroke-linejoin="round"></path><path d="M132.848 104.838H158.159" stroke="white" stroke-linecap="round" stroke-linejoin="round"></path><path d="M95.9023 104.838L100.7 136.352" stroke="white" stroke-linecap="round" stroke-linejoin="round"></path><path d="M105.477 104.838L100.703 136.352" stroke="white" stroke-linecap="round" stroke-linejoin="round"></path><path d="M140.734 104.838L145.508 136.352" stroke="white" stroke-linecap="round" stroke-linejoin="round"></path><path d="M150.278 104.838L145.504 136.352" stroke="white" stroke-linecap="round" stroke-linejoin="round"></path><path d="M95.7812 145.206C96.7502 141.971 100.201 138.877 107.031 138.877C113.838 138.877 123.008 147.317 123.008 160.259" stroke="white" stroke-linecap="round" stroke-linejoin="round"></path><path d="M150.246 145.206C149.253 141.971 145.779 138.877 138.973 138.877C132.142 138.877 122.996 147.317 122.996 160.259" stroke="white" stroke-linecap="round" stroke-linejoin="round"></path><path d="M335.527 281.145C335.527 266.187 346.517 253.321 361.288 250.972" stroke="white" stroke-linecap="round" stroke-linejoin="round"></path><path d="M366.085 146.382L275.094 198.377H264.246L268.595 205.42H366.085" stroke="white" stroke-linecap="round" stroke-linejoin="round"></path><path d="M366.096 153.371L287.301 198.384" stroke="white" stroke-linecap="round" stroke-linejoin="round"></path><path d="M353.738 180.997C353.738 182.812 352.249 184.305 350.43 184.305C348.61 184.305 347.121 182.812 347.121 180.997C347.121 179.182 348.61 177.688 350.43 177.688C352.249 177.688 353.738 179.182 353.738 180.997Z" stroke="white" stroke-linecap="round" stroke-linejoin="round"></path><path d="M305.958 205.421L305.296 210.97H303.003V224.914H305.154L304.469 230.194H290.809" stroke="white" stroke-linecap="round" stroke-linejoin="round"></path><path d="M303.003 224.919H290.809" stroke="white" stroke-linecap="round" stroke-linejoin="round"></path><path d="M275.629 205.421L276.314 210.97H278.63V224.914H276.432L277.118 230.194H290.802" stroke="white" stroke-linecap="round" stroke-linejoin="round"></path><path d="M278.621 224.919H290.816" stroke="white" stroke-linecap="round" stroke-linejoin="round"></path><path d="M294.844 205.421L295.529 210.97H302.997" stroke="white" stroke-linecap="round" stroke-linejoin="round"></path><path d="M286.728 205.421L286.042 210.97H278.621" stroke="white" stroke-linecap="round" stroke-linejoin="round"></path><path d="M304.461 230.2V355.719H366.075" stroke="white" stroke-linecap="round" stroke-linejoin="round"></path><path d="M277.125 230.2V264.32" stroke="white" stroke-linecap="round" stroke-linejoin="round"></path><path d="M281.059 246.57V246.601C281.059 251.942 285.454 256.335 290.796 256.335H290.819C296.161 256.328 300.557 251.932 300.557 246.586C300.557 241.24 296.161 236.842 290.819 236.837H290.796C285.454 236.837 281.059 241.231 281.059 246.57Z" stroke="white" stroke-linecap="round" stroke-linejoin="round"></path><path d="M323.971 205.421L323.31 210.97H313.549L312.863 205.421" stroke="white" stroke-linecap="round" stroke-linejoin="round"></path><path d="M255.027 177.688L254.341 183.24H251.103L250.418 177.688" stroke="white" stroke-linecap="round" stroke-linejoin="round"></path><path d="M246.769 177.688L246.107 183.24H242.869L242.184 177.688" stroke="white" stroke-linecap="round" stroke-linejoin="round"></path><path d="M178.061 232.789L177.4 238.334H174.138L173.477 232.785" stroke="white" stroke-linecap="round" stroke-linejoin="round"></path><path d="M158.159 232.785L157.497 238.334H154.259L153.574 232.785" stroke="white" stroke-linecap="round" stroke-linejoin="round"></path><path d="M147.589 232.785L146.927 238.334H143.689L143.004 232.785" stroke="white" stroke-linecap="round" stroke-linejoin="round"></path><path d="M154.86 257.009L153.111 270.084H148.077L146.328 257.009H154.86Z" stroke="white" stroke-linecap="round" stroke-linejoin="round"></path><path d="M343.608 205.421L342.946 210.97H333.185L332.5 205.421" stroke="white" stroke-linecap="round" stroke-linejoin="round"></path><path d="M277.135 264.321L275.48 269.195L272.526 270.008L273.991 282.061H277.135V333.786L273.991 344.755V366.148L269.406 375.365H277.135" stroke="white" stroke-linecap="round" stroke-linejoin="round"></path><path d="M221.457 270.008H272.507" stroke="white" stroke-linecap="round" stroke-linejoin="round"></path><path d="M277.12 375.353H284.848L280.24 366.136V344.743L277.12 333.774V282.061H280.24L281.705 270.008L278.751 269.195L277.12 264.321H220.848" stroke="white" stroke-linecap="round" stroke-linejoin="round"></path><path d="M291.054 280.569L289.446 285.443L286.469 286.256L287.957 298.309H291.054" stroke="white" stroke-linecap="round" stroke-linejoin="round"></path><path d="M291.043 280.569L292.673 285.443L295.675 286.256L294.186 298.309H291.043C291.043 305.971 284.827 300.2 282.629 299.453" stroke="white" stroke-linecap="round" stroke-linejoin="round"></path><path d="M277.125 301.419C277.125 303.128 278.519 304.532 280.245 304.534C281.067 304.528 281.854 304.197 282.434 303.614C283.014 303.03 283.34 302.242 283.341 301.419V301.417C283.339 300.595 283.013 299.807 282.433 299.224C281.853 298.641 281.067 298.31 280.245 298.304C278.543 298.304 277.125 299.71 277.125 301.417V301.419Z" stroke="white" stroke-linecap="round" stroke-linejoin="round"></path><path d="M263.176 280.569L264.783 285.443L267.761 286.256L266.272 298.309H263.176" stroke="white" stroke-linecap="round" stroke-linejoin="round"></path><path d="M263.179 280.569L261.548 285.443L258.57 286.256L260.059 298.309H263.179C263.179 305.971 269.395 300.2 271.616 299.453" stroke="white" stroke-linecap="round" stroke-linejoin="round"></path><path d="M277.118 301.419C277.118 303.133 275.7 304.536 273.999 304.534C273.177 304.525 272.392 304.194 271.812 303.611C271.233 303.028 270.906 302.241 270.902 301.419C270.902 299.718 272.297 298.311 273.999 298.304C275.7 298.302 277.118 299.706 277.118 301.419Z" stroke="white" stroke-linecap="round" stroke-linejoin="round"></path><path d="M234.723 275.695H272.513" stroke="white" stroke-linecap="round" stroke-linejoin="round"></path><path d="M272.507 270.008H221.457" stroke="white" stroke-linecap="round" stroke-linejoin="round"></path><path d="M277.115 252.541C269.741 252.541 246.154 254.399 230.414 259.832" stroke="white" stroke-linecap="round" stroke-linejoin="round"></path><path d="M232.473 363.03H273.998" stroke="white" stroke-linecap="round" stroke-linejoin="round"></path><path d="M182.679 355.109C184.853 355.109 186.625 356.891 186.625 359.058V359.077C186.625 361.244 184.853 363.029 182.679 363.029H175.777" stroke="white" stroke-linecap="round" stroke-linejoin="round"></path><path d="M220.867 399.995H366.097" stroke="white" stroke-linecap="round" stroke-linejoin="round"></path><path d="M265.492 375.345H288.727V399.991H265.492V375.345Z" stroke="white" stroke-linecap="round" stroke-linejoin="round"></path><path d="M280.245 355.714H304.469V331.068H277.125" stroke="white" stroke-linecap="round" stroke-linejoin="round"></path><path d="M284.839 381.512H269.406" stroke="white" stroke-linecap="round" stroke-linejoin="round"></path><path d="M298.523 337.235H283.09" stroke="white" stroke-linecap="round" stroke-linejoin="round"></path><path d="M366.09 361.811H304.996" stroke="white" stroke-linecap="round" stroke-linejoin="round"></path><path d="M366.093 368.228H301.738" stroke="white" stroke-linecap="round" stroke-linejoin="round"></path><path d="M366.081 374.644H298.488" stroke="white" stroke-linecap="round" stroke-linejoin="round"></path><path d="M366.085 381.06H295.23" stroke="white" stroke-linecap="round" stroke-linejoin="round"></path><path d="M366.081 387.485H291.988" stroke="white" stroke-linecap="round" stroke-linejoin="round"></path><path d="M366.092 393.901H288.738" stroke="white" stroke-linecap="round" stroke-linejoin="round"></path><path d="M248.497 343.392H259.274V311.746H242.305" stroke="white" stroke-linecap="round" stroke-linejoin="round"></path><path d="M248.988 311.746V343.392" stroke="white" stroke-linecap="round" stroke-linejoin="round"></path><path d="M259.265 322.206H240.547" stroke="white" stroke-linecap="round" stroke-linejoin="round"></path><path d="M259.27 311.749L262.72 307.481H244.215" stroke="white" stroke-linecap="round" stroke-linejoin="round"></path><path d="M312.863 233.846H335.531V270.006H312.863V233.846Z" stroke="white" stroke-linecap="round" stroke-linejoin="round"></path><path d="M312.863 281.151H335.531V355.716H312.863V281.151Z" stroke="white" stroke-linecap="round" stroke-linejoin="round"></path><path d="M318.41 233.846H329.991V270.006H318.41V233.846Z" stroke="white" stroke-linecap="round" stroke-linejoin="round"></path><path d="M312.863 239.422H335.531V264.446H312.863V239.422Z" stroke="white" stroke-linecap="round" stroke-linejoin="round"></path><path d="M312.863 303.456H335.528" stroke="white" stroke-linecap="round" stroke-linejoin="round"></path><path d="M331.945 316.585C331.935 314.538 331.117 312.575 329.67 311.127C328.223 309.679 326.264 308.86 324.217 308.847H324.193C322.146 308.86 320.187 309.679 318.74 311.127C317.293 312.575 316.475 314.535 316.465 316.583V355.718H331.945V316.585Z" stroke="white" stroke-linecap="round" stroke-linejoin="round"></path><path d="M335.534 281.152L329.98 270.008H353.047" stroke="white" stroke-linecap="round" stroke-linejoin="round"></path><path d="M311.652 224.919H366.081" stroke="white" stroke-linecap="round" stroke-linejoin="round"></path><path d="M366.093 128.509C360.917 128.509 356.876 131.286 356.876 141.777H305.969V159.385H286.258" stroke="white" stroke-linecap="round" stroke-linejoin="round"></path><path d="M356.864 146.585H310.778V164.188H266.086" stroke="white" stroke-linecap="round" stroke-linejoin="round"></path><path d="M244.5 159.381H261.28V171.704" stroke="white" stroke-linecap="round" stroke-linejoin="round"></path><path d="M244.5 172.269H264.235L261.28 177.705H244.5" stroke="white" stroke-linecap="round" stroke-linejoin="round"></path><path d="M258.57 177.688V227.352" stroke="white" stroke-linecap="round" stroke-linejoin="round"></path><path d="M244.5 227.356H264.235L261.28 232.792H244.5" stroke="white" stroke-linecap="round" stroke-linejoin="round"></path><path d="M258.57 232.785V253.928" stroke="white" stroke-linecap="round" stroke-linejoin="round"></path><path d="M244.5 121.068C249.321 121.073 253.292 125.039 253.292 129.86V129.867H249.203C247.998 129.867 247.738 130.137 247.738 133.389H244.5" stroke="white" stroke-linecap="round" stroke-linejoin="round"></path><path d="M253.289 133.384V159.381" stroke="white" stroke-linecap="round" stroke-linejoin="round"></path><path d="M250.316 243.361C250.316 244.682 251.404 245.769 252.727 245.767C254.051 245.767 255.138 244.684 255.138 243.37V243.352C255.138 242.038 254.051 240.955 252.727 240.955C252.089 240.957 251.478 241.211 251.026 241.662C250.575 242.112 250.32 242.723 250.316 243.361Z" stroke="white" stroke-linecap="round" stroke-linejoin="round"></path><path d="M242.082 243.356V243.366C242.082 244.682 243.169 245.767 244.493 245.767C245.816 245.767 246.903 244.684 246.903 243.37V243.352C246.903 242.038 245.816 240.955 244.493 240.955C243.169 240.955 242.082 242.04 242.082 243.356Z" stroke="white" stroke-linecap="round" stroke-linejoin="round"></path><path d="M244.5 115.446H248.092V109.353H244.5" stroke="white" stroke-linecap="round" stroke-linejoin="round"></path><path d="M233.957 177.688L234.619 183.24H237.88L238.542 177.688" stroke="white" stroke-linecap="round" stroke-linejoin="round"></path><path d="M244.5 159.381H230.414" stroke="white" stroke-linecap="round" stroke-linejoin="round"></path><path d="M230.414 177.688H244.5" stroke="white" stroke-linecap="round" stroke-linejoin="round"></path><path d="M244.511 172.269H227.707" stroke="white" stroke-linecap="round" stroke-linejoin="round"></path><path d="M230.414 232.785H244.5" stroke="white" stroke-linecap="round" stroke-linejoin="round"></path><path d="M244.5 227.356H230.414" stroke="white" stroke-linecap="round" stroke-linejoin="round"></path><path d="M175.777 227.356H190.667L187.689 232.792H175.777" stroke="white" stroke-linecap="round" stroke-linejoin="round"></path><path d="M175.786 227.356H162.527L165.505 232.792H175.786" stroke="white" stroke-linecap="round" stroke-linejoin="round"></path><path d="M244.507 121.068H244.483C239.662 121.068 235.691 125.039 235.691 129.865L239.756 129.867C240.962 129.867 241.245 130.137 241.245 133.389H244.507" stroke="white" stroke-linecap="round" stroke-linejoin="round"></path><path d="M235.691 133.384V159.381" stroke="white" stroke-linecap="round" stroke-linejoin="round"></path><path d="M244.501 97.2314C242.599 97.2377 240.777 97.9953 239.431 99.3393C238.085 100.683 237.325 102.505 237.316 104.407H251.662V104.388C251.662 100.465 248.424 97.2362 244.501 97.2314Z" stroke="white" stroke-linecap="round" stroke-linejoin="round"></path><path d="M238.65 243.356V243.366C238.65 244.682 237.562 245.767 236.239 245.767H236.215C235.582 245.758 234.977 245.501 234.53 245.052C234.084 244.602 233.832 243.995 233.828 243.361C233.828 242.045 234.915 240.962 236.215 240.955H236.239C237.562 240.955 238.65 242.04 238.65 243.356Z" stroke="white" stroke-linecap="round" stroke-linejoin="round"></path><path d="M244.514 115.446H240.898V109.353H244.514" stroke="white" stroke-linecap="round" stroke-linejoin="round"></path><path d="M320.995 115.446L318.348 121.066V141.782" stroke="white" stroke-linecap="round" stroke-linejoin="round"></path><path d="M307.387 115.446L310.01 121.066V141.782" stroke="white" stroke-linecap="round" stroke-linejoin="round"></path><path d="M286.258 141.785H301.076" stroke="white" stroke-linecap="round" stroke-linejoin="round"></path><path d="M325.66 121.068H366.098" stroke="white" stroke-linecap="round" stroke-linejoin="round"></path><path d="M304.338 121.068H286.258" stroke="white" stroke-linecap="round" stroke-linejoin="round"></path><path d="M313.684 115.445C313.684 84.3046 322.192 65.2793 322.192 65.2793" stroke="white" stroke-linecap="round" stroke-linejoin="round"></path><path d="M327.488 105.892C327.494 107.075 327.966 108.208 328.803 109.045C329.639 109.882 330.772 110.355 331.955 110.361C334.413 110.361 336.422 108.348 336.446 105.892C336.446 103.439 334.413 101.423 331.979 101.423H331.955C330.772 101.429 329.639 101.902 328.803 102.739C327.966 103.576 327.494 104.709 327.488 105.892Z" stroke="white" stroke-linecap="round" stroke-linejoin="round"></path><path d="M296.625 105.883V105.901C296.625 108.348 298.634 110.361 301.092 110.361C303.55 110.361 305.559 108.348 305.559 105.901V105.883C305.559 103.436 303.55 101.423 301.092 101.423C298.634 101.423 296.625 103.436 296.625 105.883Z" stroke="white" stroke-linecap="round" stroke-linejoin="round"></path><path d="M366.091 71.1694H320.359" stroke="white" stroke-linecap="round" stroke-linejoin="round"></path><path d="M182.672 227.355V212.327" stroke="white" stroke-linecap="round" stroke-linejoin="round"></path><path d="M168.871 227.355V212.327" stroke="white" stroke-linecap="round" stroke-linejoin="round"></path><path d="M176.449 212.327H175.102" stroke="white" stroke-linecap="round" stroke-linejoin="round"></path><path d="M175.777 355.104H182.679V232.785" stroke="white" stroke-linecap="round" stroke-linejoin="round"></path><path d="M182.679 363.03V399.993H175.777" stroke="white" stroke-linecap="round" stroke-linejoin="round"></path><path d="M182.679 247.805H175.777" stroke="white" stroke-linecap="round" stroke-linejoin="round"></path><path d="M182.679 250.917H175.777" stroke="white" stroke-linecap="round" stroke-linejoin="round"></path><path d="M182.679 262.022H175.777" stroke="white" stroke-linecap="round" stroke-linejoin="round"></path><path d="M182.679 274.07H175.777" stroke="white" stroke-linecap="round" stroke-linejoin="round"></path><path d="M182.679 286.127H175.777" stroke="white" stroke-linecap="round" stroke-linejoin="round"></path><path d="M182.679 298.175H175.777" stroke="white" stroke-linecap="round" stroke-linejoin="round"></path><path d="M182.679 310.223H175.777" stroke="white" stroke-linecap="round" stroke-linejoin="round"></path><path d="M182.679 322.271H175.777" stroke="white" stroke-linecap="round" stroke-linejoin="round"></path><path d="M182.679 334.318H175.777" stroke="white" stroke-linecap="round" stroke-linejoin="round"></path><path d="M182.679 346.375H175.777" stroke="white" stroke-linecap="round" stroke-linejoin="round"></path><path d="M168.873 355.109C167.823 355.112 166.817 355.53 166.073 356.271C165.329 357.012 164.909 358.018 164.902 359.068C164.902 361.244 166.699 363.031 168.873 363.029H175.774" stroke="white" stroke-linecap="round" stroke-linejoin="round"></path><path d="M175.772 355.104H168.871V232.785" stroke="white" stroke-linecap="round" stroke-linejoin="round"></path><path d="M168.871 363.03V399.993H175.772" stroke="white" stroke-linecap="round" stroke-linejoin="round"></path><path d="M168.871 247.805H175.772" stroke="white" stroke-linecap="round" stroke-linejoin="round"></path><path d="M168.871 250.917H175.772" stroke="white" stroke-linecap="round" stroke-linejoin="round"></path><path d="M168.871 262.022H175.772" stroke="white" stroke-linecap="round" stroke-linejoin="round"></path><path d="M168.871 274.07H175.772" stroke="white" stroke-linecap="round" stroke-linejoin="round"></path><path d="M168.871 286.127H175.772" stroke="white" stroke-linecap="round" stroke-linejoin="round"></path><path d="M168.871 298.175H175.772" stroke="white" stroke-linecap="round" stroke-linejoin="round"></path><path d="M168.871 310.223H175.772" stroke="white" stroke-linecap="round" stroke-linejoin="round"></path><path d="M168.871 322.271H175.772" stroke="white" stroke-linecap="round" stroke-linejoin="round"></path><path d="M168.871 334.318H175.772" stroke="white" stroke-linecap="round" stroke-linejoin="round"></path><path d="M168.871 346.375H175.772" stroke="white" stroke-linecap="round" stroke-linejoin="round"></path><path d="M126.069 232.785L125.408 238.334H122.17L121.484 232.785" stroke="white" stroke-linecap="round" stroke-linejoin="round"></path><path d="M130.706 355.109C132.88 355.116 134.653 356.903 134.629 359.068V359.082C134.629 361.242 132.857 363.022 130.706 363.029H123.781" stroke="white" stroke-linecap="round" stroke-linejoin="round"></path><path d="M123.781 227.356H138.671L135.693 232.792H123.781" stroke="white" stroke-linecap="round" stroke-linejoin="round"></path><path d="M123.79 227.356H110.508L113.486 232.792H123.79" stroke="white" stroke-linecap="round" stroke-linejoin="round"></path><path d="M130.699 227.355V212.327" stroke="white" stroke-linecap="round" stroke-linejoin="round"></path><path d="M116.879 227.355V212.327" stroke="white" stroke-linecap="round" stroke-linejoin="round"></path><path d="M124.445 212.327H123.098" stroke="white" stroke-linecap="round" stroke-linejoin="round"></path><path d="M123.781 355.104H130.706V232.785" stroke="white" stroke-linecap="round" stroke-linejoin="round"></path><path d="M130.706 363.03V399.993H123.781" stroke="white" stroke-linecap="round" stroke-linejoin="round"></path><path d="M130.706 247.805H123.781" stroke="white" stroke-linecap="round" stroke-linejoin="round"></path><path d="M130.706 250.917H123.781" stroke="white" stroke-linecap="round" stroke-linejoin="round"></path><path d="M162.511 247.805H138.664" stroke="white" stroke-linecap="round" stroke-linejoin="round"></path><path d="M162.511 250.917H138.664" stroke="white" stroke-linecap="round" stroke-linejoin="round"></path><path d="M162.511 290.835H138.664" stroke="white" stroke-linecap="round" stroke-linejoin="round"></path><path d="M162.511 293.947H138.664" stroke="white" stroke-linecap="round" stroke-linejoin="round"></path><path d="M130.706 262.022H123.781" stroke="white" stroke-linecap="round" stroke-linejoin="round"></path><path d="M130.706 274.07H123.781" stroke="white" stroke-linecap="round" stroke-linejoin="round"></path><path d="M130.706 286.127H123.781" stroke="white" stroke-linecap="round" stroke-linejoin="round"></path><path d="M130.706 298.175H123.781" stroke="white" stroke-linecap="round" stroke-linejoin="round"></path><path d="M130.706 310.223H123.781" stroke="white" stroke-linecap="round" stroke-linejoin="round"></path><path d="M130.706 322.271H123.781" stroke="white" stroke-linecap="round" stroke-linejoin="round"></path><path d="M130.706 334.318H123.781" stroke="white" stroke-linecap="round" stroke-linejoin="round"></path><path d="M130.706 346.375H123.781" stroke="white" stroke-linecap="round" stroke-linejoin="round"></path><path d="M116.873 355.109C114.722 355.109 112.926 356.893 112.926 359.06V359.077C112.926 361.244 114.722 363.029 116.873 363.029H123.774" stroke="white" stroke-linecap="round" stroke-linejoin="round"></path><path d="M123.78 355.104H116.879V232.785" stroke="white" stroke-linecap="round" stroke-linejoin="round"></path><path d="M116.879 363.03V399.993H123.78" stroke="white" stroke-linecap="round" stroke-linejoin="round"></path><path d="M116.879 247.805H123.78" stroke="white" stroke-linecap="round" stroke-linejoin="round"></path><path d="M116.879 250.917H123.78" stroke="white" stroke-linecap="round" stroke-linejoin="round"></path><path d="M116.879 262.022H123.78" stroke="white" stroke-linecap="round" stroke-linejoin="round"></path><path d="M116.879 274.07H123.78" stroke="white" stroke-linecap="round" stroke-linejoin="round"></path><path d="M116.879 286.127H123.78" stroke="white" stroke-linecap="round" stroke-linejoin="round"></path><path d="M116.879 298.175H123.78" stroke="white" stroke-linecap="round" stroke-linejoin="round"></path><path d="M116.879 310.223H123.78" stroke="white" stroke-linecap="round" stroke-linejoin="round"></path><path d="M116.879 322.271H123.78" stroke="white" stroke-linecap="round" stroke-linejoin="round"></path><path d="M116.879 334.318H123.78" stroke="white" stroke-linecap="round" stroke-linejoin="round"></path><path d="M116.879 346.375H123.78" stroke="white" stroke-linecap="round" stroke-linejoin="round"></path><path d="M168.868 220.599H130.699" stroke="white" stroke-linecap="round" stroke-linejoin="round"></path><path d="M158.153 227.356H143.004" stroke="white" stroke-linecap="round" stroke-linejoin="round"></path><path d="M160.505 232.785H140.676" stroke="white" stroke-linecap="round" stroke-linejoin="round"></path><path d="M168.859 214.247L163.258 220.581" stroke="white" stroke-linecap="round" stroke-linejoin="round"></path><path d="M162.494 212.327L155.191 220.587" stroke="white" stroke-linecap="round" stroke-linejoin="round"></path><path d="M154.448 212.327L147.121 220.587" stroke="white" stroke-linecap="round" stroke-linejoin="round"></path><path d="M146.373 212.327L139.07 220.587" stroke="white" stroke-linecap="round" stroke-linejoin="round"></path><path d="M138.315 212.327L131.012 220.587" stroke="white" stroke-linecap="round" stroke-linejoin="round"></path><path d="M147.527 266.075H138.664V282.052H162.511V266.075H153.648" stroke="white" stroke-linecap="round" stroke-linejoin="round"></path><path d="M157.214 293.947V296.951C156.869 296.907 156.518 296.937 156.186 297.039C155.854 297.141 155.547 297.312 155.285 297.541C155.024 297.77 154.814 298.052 154.67 298.369C154.526 298.685 154.45 299.028 154.448 299.375V304.802H150.785" stroke="white" stroke-linecap="round" stroke-linejoin="round"></path><path d="M144.359 293.947V296.951C144.704 296.907 145.054 296.937 145.386 297.039C145.719 297.141 146.026 297.312 146.287 297.541C146.548 297.77 146.758 298.052 146.903 298.369C147.047 298.685 147.122 299.028 147.124 299.375V304.802H150.788" stroke="white" stroke-linecap="round" stroke-linejoin="round"></path><path d="M149.789 340.144H156.43C156.43 340.144 156.95 346.373 149.789 346.373" stroke="white" stroke-linecap="round" stroke-linejoin="round"></path><path d="M154.02 345.692C155.083 346.637 158.463 349.473 158.463 349.473C157.409 350.725 156.073 351.709 154.565 352.344C153.058 352.98 151.421 353.249 149.789 353.129" stroke="white" stroke-linecap="round" stroke-linejoin="round"></path><path d="M168.881 342.445C164.627 342.36 160.42 341.583 156.426 340.144C156.426 340.144 162.381 348.538 168.881 348.538" stroke="white" stroke-linecap="round" stroke-linejoin="round"></path><path d="M168.868 399.995H130.699" stroke="white" stroke-linecap="round" stroke-linejoin="round"></path><path d="M159.116 363.03H140.445" stroke="white" stroke-linecap="round" stroke-linejoin="round"></path><path d="M149.798 340.144H143.133C143.133 340.144 142.614 346.373 149.798 346.373" stroke="white" stroke-linecap="round" stroke-linejoin="round"></path><path d="M145.545 345.692C144.505 346.637 141.102 349.473 141.102 349.473C142.153 350.728 143.488 351.716 144.996 352.353C146.504 352.991 148.142 353.261 149.775 353.141" stroke="white" stroke-linecap="round" stroke-linejoin="round"></path><path d="M130.699 342.445C134.953 342.36 139.137 341.583 143.131 340.144C143.131 340.144 137.199 348.538 130.699 348.538" stroke="white" stroke-linecap="round" stroke-linejoin="round"></path><path d="M106.163 232.785L105.501 238.334H102.263L101.578 232.785" stroke="white" stroke-linecap="round" stroke-linejoin="round"></path><path d="M95.6163 232.785L94.9311 238.334H91.6933L91.0078 232.785" stroke="white" stroke-linecap="round" stroke-linejoin="round"></path><path d="M102.864 257.009L101.139 270.084H96.0809L94.332 257.009H102.864Z" stroke="white" stroke-linecap="round" stroke-linejoin="round"></path><path d="M110.518 247.805H86.6719" stroke="white" stroke-linecap="round" stroke-linejoin="round"></path><path d="M110.518 250.917H86.6719" stroke="white" stroke-linecap="round" stroke-linejoin="round"></path><path d="M110.518 290.835H86.6719" stroke="white" stroke-linecap="round" stroke-linejoin="round"></path><path d="M110.518 293.947H86.6719" stroke="white" stroke-linecap="round" stroke-linejoin="round"></path><path d="M116.872 220.599H78.7031" stroke="white" stroke-linecap="round" stroke-linejoin="round"></path><path d="M106.157 227.356H91.0078" stroke="white" stroke-linecap="round" stroke-linejoin="round"></path><path d="M108.524 232.785H88.6719" stroke="white" stroke-linecap="round" stroke-linejoin="round"></path><path d="M116.843 214.247L111.266 220.581" stroke="white" stroke-linecap="round" stroke-linejoin="round"></path><path d="M110.498 212.327L103.195 220.587" stroke="white" stroke-linecap="round" stroke-linejoin="round"></path><path d="M102.447 212.327L95.1445 220.587" stroke="white" stroke-linecap="round" stroke-linejoin="round"></path><path d="M94.3812 212.327L87.0781 220.587" stroke="white" stroke-linecap="round" stroke-linejoin="round"></path><path d="M86.3301 212.327L79.0273 220.587" stroke="white" stroke-linecap="round" stroke-linejoin="round"></path><path d="M95.5346 266.075H86.6719V282.052H110.495V266.075H101.656" stroke="white" stroke-linecap="round" stroke-linejoin="round"></path><path d="M105.221 293.947V296.951C104.876 296.907 104.526 296.937 104.194 297.039C103.862 297.141 103.555 297.312 103.294 297.541C103.032 297.77 102.822 298.052 102.678 298.369C102.534 298.685 102.458 299.028 102.456 299.375V304.802H98.793" stroke="white" stroke-linecap="round" stroke-linejoin="round"></path><path d="M92.3555 293.947V296.951C92.7029 296.906 93.0557 296.935 93.3909 297.037C93.7261 297.139 94.036 297.311 94.2997 297.542C94.5634 297.772 94.7749 298.056 94.9205 298.375C95.0661 298.693 95.1423 299.039 95.1441 299.39V304.802H98.7838" stroke="white" stroke-linecap="round" stroke-linejoin="round"></path><path d="M97.7852 340.144H104.426C104.426 340.144 104.946 346.373 97.7852 346.373" stroke="white" stroke-linecap="round" stroke-linejoin="round"></path><path d="M101.992 345.692C103.055 346.637 106.459 349.473 106.459 349.473C105.404 350.724 104.069 351.708 102.561 352.343C101.053 352.979 99.4169 353.248 97.7852 353.129" stroke="white" stroke-linecap="round" stroke-linejoin="round"></path><path d="M116.877 342.445C112.623 342.36 108.416 341.583 104.422 340.144C104.422 340.144 110.377 348.538 116.877 348.538" stroke="white" stroke-linecap="round" stroke-linejoin="round"></path><path d="M107.124 363.03H88.4531" stroke="white" stroke-linecap="round" stroke-linejoin="round"></path><path d="M97.8029 340.144H91.1382C91.1382 340.144 90.5945 346.373 97.8029 346.373" stroke="white" stroke-linecap="round" stroke-linejoin="round"></path><path d="M93.5487 345.692C92.5088 346.637 89.1055 349.473 89.1055 349.473C90.1569 350.728 91.4922 351.714 93.0005 352.35C94.5089 352.985 96.147 353.253 97.7792 353.129" stroke="white" stroke-linecap="round" stroke-linejoin="round"></path><path d="M78.7031 342.445C82.9445 342.359 87.1435 341.582 91.1346 340.144C91.1346 340.144 85.2024 348.538 78.7031 348.538" stroke="white" stroke-linecap="round" stroke-linejoin="round"></path><path d="M74.0734 232.785L73.4116 238.334H70.1501L69.4883 232.785" stroke="white" stroke-linecap="round" stroke-linejoin="round"></path><path d="M78.7022 355.109C80.8765 355.116 82.6489 356.903 82.6252 359.068V359.082C82.6252 361.242 80.8529 363.022 78.7022 363.029H71.7773" stroke="white" stroke-linecap="round" stroke-linejoin="round"></path><path d="M71.7773 227.356H86.6668L83.6889 232.792H71.7773" stroke="white" stroke-linecap="round" stroke-linejoin="round"></path><path d="M71.794 227.356H58.5117L61.5133 232.792H71.794" stroke="white" stroke-linecap="round" stroke-linejoin="round"></path><path d="M78.7031 227.355V212.327" stroke="white" stroke-linecap="round" stroke-linejoin="round"></path><path d="M64.8828 227.355V212.327" stroke="white" stroke-linecap="round" stroke-linejoin="round"></path><path d="M72.4525 212.327H71.1055" stroke="white" stroke-linecap="round" stroke-linejoin="round"></path><path d="M71.7773 355.104H78.7022V232.785" stroke="white" stroke-linecap="round" stroke-linejoin="round"></path><path d="M78.7022 247.805H71.7773" stroke="white" stroke-linecap="round" stroke-linejoin="round"></path><path d="M78.7022 250.917H71.7773" stroke="white" stroke-linecap="round" stroke-linejoin="round"></path><path d="M78.7022 262.022H71.7773" stroke="white" stroke-linecap="round" stroke-linejoin="round"></path><path d="M78.7022 274.07H71.7773" stroke="white" stroke-linecap="round" stroke-linejoin="round"></path><path d="M78.7022 286.127H71.7773" stroke="white" stroke-linecap="round" stroke-linejoin="round"></path><path d="M78.7022 298.175H71.7773" stroke="white" stroke-linecap="round" stroke-linejoin="round"></path><path d="M78.7022 310.223H71.7773" stroke="white" stroke-linecap="round" stroke-linejoin="round"></path><path d="M78.7022 322.271H71.7773" stroke="white" stroke-linecap="round" stroke-linejoin="round"></path><path d="M78.7022 334.318H71.7773" stroke="white" stroke-linecap="round" stroke-linejoin="round"></path><path d="M78.7022 346.375H71.7773" stroke="white" stroke-linecap="round" stroke-linejoin="round"></path><path d="M64.8764 355.109C62.702 355.109 60.9297 356.893 60.9297 359.06V359.077C60.9297 361.244 62.702 363.029 64.8764 363.029H71.7776" stroke="white" stroke-linecap="round" stroke-linejoin="round"></path><path d="M71.784 355.104H64.8828V232.785" stroke="white" stroke-linecap="round" stroke-linejoin="round"></path><path d="M64.8828 247.805H71.784" stroke="white" stroke-linecap="round" stroke-linejoin="round"></path><path d="M64.8828 250.917H71.784" stroke="white" stroke-linecap="round" stroke-linejoin="round"></path><path d="M64.8828 262.022H71.784" stroke="white" stroke-linecap="round" stroke-linejoin="round"></path><path d="M64.8828 274.07H71.784" stroke="white" stroke-linecap="round" stroke-linejoin="round"></path><path d="M64.8828 286.127H71.784" stroke="white" stroke-linecap="round" stroke-linejoin="round"></path><path d="M64.8828 298.175H71.784" stroke="white" stroke-linecap="round" stroke-linejoin="round"></path><path d="M64.8828 310.223H71.784" stroke="white" stroke-linecap="round" stroke-linejoin="round"></path><path d="M64.8828 322.271H71.784" stroke="white" stroke-linecap="round" stroke-linejoin="round"></path><path d="M64.8828 334.318H71.784" stroke="white" stroke-linecap="round" stroke-linejoin="round"></path><path d="M64.8828 346.375H71.784" stroke="white" stroke-linecap="round" stroke-linejoin="round"></path><path d="M20.4677 232.785L19.8059 238.334H13.2829L12.6211 232.785" stroke="white" stroke-linecap="round" stroke-linejoin="round"></path><path d="M26.7098 355.109C28.8605 355.116 30.6565 356.9 30.6565 359.068C30.6565 361.237 28.8605 363.022 26.7098 363.029H16.5234" stroke="white" stroke-linecap="round" stroke-linejoin="round"></path><path d="M16.5234 227.356H34.6744L31.6965 232.792H16.5234" stroke="white" stroke-linecap="round" stroke-linejoin="round"></path><path d="M6.37109 232.785H16.5335" stroke="white" stroke-linecap="round" stroke-linejoin="round"></path><path d="M16.5255 227.356H6.38672" stroke="white" stroke-linecap="round" stroke-linejoin="round"></path><path d="M16.5234 355.104H26.7098V232.785" stroke="white" stroke-linecap="round" stroke-linejoin="round"></path><path d="M26.7098 247.805H16.5234" stroke="white" stroke-linecap="round" stroke-linejoin="round"></path><path d="M26.7098 250.917H16.5234" stroke="white" stroke-linecap="round" stroke-linejoin="round"></path><path d="M26.7098 274.07H16.5234" stroke="white" stroke-linecap="round" stroke-linejoin="round"></path><path d="M26.7098 286.127H16.5234" stroke="white" stroke-linecap="round" stroke-linejoin="round"></path><path d="M26.7098 298.175H16.5234" stroke="white" stroke-linecap="round" stroke-linejoin="round"></path><path d="M26.7098 310.223H16.5234" stroke="white" stroke-linecap="round" stroke-linejoin="round"></path><path d="M26.7098 322.271H16.5234" stroke="white" stroke-linecap="round" stroke-linejoin="round"></path><path d="M26.7098 334.318H16.5234" stroke="white" stroke-linecap="round" stroke-linejoin="round"></path><path d="M26.7098 346.375H16.5234" stroke="white" stroke-linecap="round" stroke-linejoin="round"></path><path d="M6.37109 363.03H16.5335" stroke="white" stroke-linecap="round" stroke-linejoin="round"></path><path d="M16.5335 355.109H6.37109" stroke="white" stroke-linecap="round" stroke-linejoin="round"></path><path d="M6.37109 247.805H16.5335" stroke="white" stroke-linecap="round" stroke-linejoin="round"></path><path d="M6.37109 250.917H16.5335" stroke="white" stroke-linecap="round" stroke-linejoin="round"></path><path d="M6.37109 274.07H16.5335" stroke="white" stroke-linecap="round" stroke-linejoin="round"></path><path d="M6.37109 286.127H16.5335" stroke="white" stroke-linecap="round" stroke-linejoin="round"></path><path d="M6.37109 298.175H16.5335" stroke="white" stroke-linecap="round" stroke-linejoin="round"></path><path d="M6.37109 310.223H16.5335" stroke="white" stroke-linecap="round" stroke-linejoin="round"></path><path d="M6.37109 322.271H16.5335" stroke="white" stroke-linecap="round" stroke-linejoin="round"></path><path d="M6.37109 334.318H16.5335" stroke="white" stroke-linecap="round" stroke-linejoin="round"></path><path d="M6.37109 346.375H16.5335" stroke="white" stroke-linecap="round" stroke-linejoin="round"></path><path d="M54.1708 232.789L53.5092 238.334H50.2478L49.5859 232.785" stroke="white" stroke-linecap="round" stroke-linejoin="round"></path><path d="M43.6244 232.785L42.9389 238.334H39.7248L39.0156 232.785" stroke="white" stroke-linecap="round" stroke-linejoin="round"></path><path d="M50.8599 257.009L49.1347 270.084H44.077L42.3281 257.009H50.8599Z" stroke="white" stroke-linecap="round" stroke-linejoin="round"></path><path d="M58.5223 247.805H34.6758" stroke="white" stroke-linecap="round" stroke-linejoin="round"></path><path d="M58.5223 250.917H34.6758" stroke="white" stroke-linecap="round" stroke-linejoin="round"></path><path d="M58.5223 290.835H34.6758" stroke="white" stroke-linecap="round" stroke-linejoin="round"></path><path d="M58.5223 293.947H34.6758" stroke="white" stroke-linecap="round" stroke-linejoin="round"></path><path d="M64.8758 220.599H26.707" stroke="white" stroke-linecap="round" stroke-linejoin="round"></path><path d="M54.165 227.356H39.0156" stroke="white" stroke-linecap="round" stroke-linejoin="round"></path><path d="M56.5322 232.785H36.6797" stroke="white" stroke-linecap="round" stroke-linejoin="round"></path><path d="M64.8708 214.247L59.2695 220.581" stroke="white" stroke-linecap="round" stroke-linejoin="round"></path><path d="M58.502 212.327L51.1992 220.587" stroke="white" stroke-linecap="round" stroke-linejoin="round"></path><path d="M50.4512 212.327L43.1484 220.587" stroke="white" stroke-linecap="round" stroke-linejoin="round"></path><path d="M42.3848 212.327L35.082 220.587" stroke="white" stroke-linecap="round" stroke-linejoin="round"></path><path d="M34.334 212.327L27.0312 220.587" stroke="white" stroke-linecap="round" stroke-linejoin="round"></path><path d="M43.5385 266.075H34.6758V282.052H58.5223V266.075H49.6596" stroke="white" stroke-linecap="round" stroke-linejoin="round"></path><path d="M53.2252 293.947V296.951C52.8804 296.907 52.5302 296.937 52.1979 297.039C51.8656 297.141 51.5588 297.312 51.2975 297.541C51.0362 297.77 50.8264 298.052 50.6821 298.369C50.5378 298.685 50.4619 299.028 50.46 299.375V304.802H46.7969" stroke="white" stroke-linecap="round" stroke-linejoin="round"></path><path d="M40.3633 293.947V296.951C40.7107 296.906 41.0635 296.935 41.3987 297.037C41.7339 297.139 42.0438 297.311 42.3075 297.542C42.5712 297.772 42.7827 298.056 42.9283 298.375C43.0739 298.693 43.1501 299.039 43.1519 299.39V304.802H46.7916" stroke="white" stroke-linecap="round" stroke-linejoin="round"></path><path d="M45.7891 340.144H52.43C52.43 340.144 52.9501 346.373 45.7891 346.373" stroke="white" stroke-linecap="round" stroke-linejoin="round"></path><path d="M50.0193 345.692C51.0829 346.637 54.4389 349.473 54.4389 349.473C53.3907 350.726 52.0595 351.71 50.5554 352.346C49.0512 352.982 47.4176 353.25 45.7891 353.129" stroke="white" stroke-linecap="round" stroke-linejoin="round"></path><path d="M64.8848 342.445C60.6307 342.36 56.4238 341.583 52.4297 340.144C52.4297 340.144 58.3855 348.538 64.8848 348.538" stroke="white" stroke-linecap="round" stroke-linejoin="round"></path><path d="M55.1279 363.03H36.457" stroke="white" stroke-linecap="round" stroke-linejoin="round"></path><path d="M45.8027 340.144H39.1617C39.1617 340.144 38.618 346.373 45.8027 346.373" stroke="white" stroke-linecap="round" stroke-linejoin="round"></path><path d="M41.5565 345.692C40.5166 346.637 37.1133 349.473 37.1133 349.473C38.1647 350.728 39.4997 351.714 41.008 352.35C42.5164 352.985 44.1545 353.253 45.7867 353.129" stroke="white" stroke-linecap="round" stroke-linejoin="round"></path><path d="M26.707 342.445C30.9611 342.36 35.168 341.583 39.1621 340.144C39.1621 340.144 33.2064 348.538 26.707 348.538" stroke="white" stroke-linecap="round" stroke-linejoin="round"></path><path d="M210.155 232.785L209.493 238.334H206.255L205.57 232.785" stroke="white" stroke-linecap="round" stroke-linejoin="round"></path><path d="M199.593 232.785L198.931 238.334H195.693L195.008 232.785" stroke="white" stroke-linecap="round" stroke-linejoin="round"></path><path d="M206.852 257.009L205.103 270.084H200.069L198.32 257.009H206.852Z" stroke="white" stroke-linecap="round" stroke-linejoin="round"></path><path d="M214.507 247.805H190.66" stroke="white" stroke-linecap="round" stroke-linejoin="round"></path><path d="M214.507 250.917H190.66" stroke="white" stroke-linecap="round" stroke-linejoin="round"></path><path d="M199.588 290.835H190.676" stroke="white" stroke-width="0.611343" stroke-linecap="round" stroke-linejoin="round"></path><path d="M199.588 293.947H190.676" stroke="white" stroke-width="0.611343" stroke-linecap="round" stroke-linejoin="round"></path><path d="M230.412 220.599H182.672" stroke="white" stroke-linecap="round" stroke-linejoin="round"></path><path d="M210.157 227.356H195.008" stroke="white" stroke-linecap="round" stroke-linejoin="round"></path><path d="M212.501 232.785H192.672" stroke="white" stroke-linecap="round" stroke-linejoin="round"></path><path d="M214.486 212.327L207.184 220.587" stroke="white" stroke-linecap="round" stroke-linejoin="round"></path><path d="M206.42 212.327L199.117 220.587" stroke="white" stroke-linecap="round" stroke-linejoin="round"></path><path d="M198.377 212.327L191.074 220.587" stroke="white" stroke-linecap="round" stroke-linejoin="round"></path><path d="M230.419 212.567L223.305 220.588" stroke="white" stroke-linecap="round" stroke-linejoin="round"></path><path d="M222.537 212.327L215.234 220.587" stroke="white" stroke-linecap="round" stroke-linejoin="round"></path><path d="M190.307 212.327L183.004 220.587" stroke="white" stroke-linecap="round" stroke-linejoin="round"></path><path d="M199.499 266.075H190.66V282.052H205.644M214.507 270.951V266.075H205.644" stroke="white" stroke-linecap="round" stroke-linejoin="round"></path><path d="M211.116 363.03H192.422" stroke="white" stroke-linecap="round" stroke-linejoin="round"></path><path d="M197.541 345.692C196.501 346.637 193.098 349.473 193.098 349.473C194.149 350.727 195.485 351.713 196.993 352.349C198.501 352.985 200.139 353.252 201.771 353.129" stroke="white" stroke-linecap="round" stroke-linejoin="round"></path><path d="M182.672 342.445C186.926 342.363 191.133 341.585 195.127 340.144C195.127 340.144 189.195 348.538 182.672 348.538" stroke="white" stroke-linecap="round" stroke-linejoin="round"></path><path d="M182.672 399.995H220.864" stroke="white" stroke-linecap="round" stroke-linejoin="round"></path><path d="M16.5234 206.64H21.6048V212.326" stroke="white" stroke-linecap="round" stroke-linejoin="round"></path><path d="M16.5234 212.327H25.6224L26.7098 227.355" stroke="white" stroke-linecap="round" stroke-linejoin="round"></path><path d="M16.5234 195.266H21.6048L23.59 191.61H16.5234" stroke="white" stroke-linecap="round" stroke-linejoin="round"></path><path d="M16.5225 206.64H11.4648V212.326" stroke="white" stroke-linecap="round" stroke-linejoin="round"></path><path d="M16.5366 212.327H7.46094" stroke="white" stroke-linecap="round" stroke-linejoin="round"></path><path d="M11.4648 206.639C13.3545 203.159 14.2305 199.219 13.9935 195.266H19.0749C18.8379 199.219 19.7139 203.159 21.6036 206.639" stroke="white" stroke-linecap="round" stroke-linejoin="round"></path><path d="M16.5233 195.266H11.4656L9.48047 191.61H16.5233" stroke="white" stroke-linecap="round" stroke-linejoin="round"></path><path d="M78.7086 363.03V399.993H64.8828V363.03" stroke="white" stroke-linecap="round" stroke-linejoin="round"></path><path d="M26.707 363.03V399.993" stroke="white" stroke-linecap="round" stroke-linejoin="round"></path><path d="M10.2188 262.019C10.2188 265.486 13.0546 268.341 16.5288 268.348H16.5525C20.0267 268.348 22.8865 265.49 22.8865 262.019C22.8778 260.342 22.2075 258.734 21.0213 257.55C19.8352 256.365 18.229 255.696 16.5525 255.689H16.5288C14.8565 255.698 13.2551 256.366 12.0732 257.549C10.8914 258.732 10.225 260.334 10.2188 262.007V262.019Z" stroke="white" stroke-linecap="round" stroke-linejoin="round"></path><path d="M366.096 115.446H287.301" stroke="white" stroke-linecap="round" stroke-linejoin="round"></path><path d="M240.531 355.109H273.997" stroke="white" stroke-linecap="round" stroke-linejoin="round"></path><path d="M230.414 232.785V259.836" stroke="white" stroke-width="3" stroke-linecap="round" stroke-linejoin="round"></path><path d="M230.414 212.327V227.355" stroke="white" stroke-width="3" stroke-linecap="round" stroke-linejoin="round"></path><path d="M230.41 227.356H224.715L227.693 232.792H230.41" stroke="white" stroke-width="3" stroke-linecap="round" stroke-linejoin="round"></path><path d="M230.415 259.834C227.054 260.918 223.845 262.427 220.867 264.325" stroke="white" stroke-width="3" stroke-linecap="round" stroke-linejoin="round"></path><path d="M220.857 264.321H219.25" stroke="white" stroke-width="3" stroke-linecap="round" stroke-linejoin="round"></path><path d="M220.867 363.03V399.993" stroke="white" stroke-width="3" stroke-linecap="round" stroke-linejoin="round"></path><path d="M725.774 355.095V232.788H729.153L732.131 227.352H725.774L724.71 212.323H667.303L660.378 205.824L653.478 212.323H615.309L608.384 205.824L601.483 212.323H563.29L556.389 205.824L549.465 212.323H501.748V177.687H504.466L507.42 172.252H504.466V159.376H501.748V125.525C501.718 123.746 501.333 121.992 500.614 120.365C499.896 118.737 498.859 117.27 497.564 116.05V104.403H477.783V116.05C476.476 117.262 475.429 118.727 474.706 120.355C473.983 121.984 473.599 123.743 473.576 125.525V159.376H445.901V147.393L448.524 141.773H445.901V121.058L448.524 115.438H444.837C435.856 76.4422 409.954 65.2728 409.954 65.2728H380.695V52.137H377.315V29.9212C377.315 24.9108 376.913 22.6112 372.565 20.3092C368.24 18.0073 369.043 11.7798 369.043 11.7798H363.088C363.088 11.7798 363.915 18.0073 359.566 20.3092C355.241 22.6112 354.839 24.9131 354.839 29.9212V52.137H351.436V65.2728H322.201C322.201 65.2728 296.275 76.4422 287.294 115.438H283.607L286.254 121.058V141.773H283.607L286.254 147.393V159.376H258.578V125.525C258.551 123.744 258.164 121.987 257.441 120.359C256.718 118.731 255.674 117.265 254.372 116.05V104.403H234.59V116.05C233.291 117.267 232.251 118.733 231.533 120.361C230.814 121.989 230.431 123.746 230.407 125.525V159.376H227.689C227.689 159.376 227.689 172.252 227.713 172.252H224.711L227.689 177.687H230.407V212.323H182.666L175.765 205.824L168.864 212.323H130.695L123.771 205.824L116.87 212.323H78.7007L71.7762 205.824L64.875 212.323H7.44445C7.44445 212.323 6.35741 227.352 6.38104 227.352H0L2.97761 232.788H6.35738V355.095C4.18306 355.102 2.41039 356.887 2.38676 359.054C2.41039 361.224 4.18306 363.008 6.35738 363.015V400H725.774V363.036C727.924 363.036 729.72 361.252 729.72 359.085V359.047C729.715 358.001 729.298 357 728.559 356.26C727.82 355.52 726.819 355.102 725.774 355.095Z" stroke="white" stroke-width="3" stroke-linecap="round" stroke-linejoin="round"></path><path d="M175.772 191.61C173.952 193.371 171.99 194.999 169.934 196.483C169.915 198.435 170.454 200.352 171.489 202.007C172.523 203.662 174.009 204.987 175.772 205.826C177.531 204.985 179.013 203.659 180.043 202.004C181.074 200.348 181.609 198.433 181.585 196.483C179.534 194.999 177.591 193.37 175.772 191.61Z" stroke="white" stroke-linecap="round" stroke-linejoin="round"></path><path d="M117.966 196.483C117.942 198.433 118.477 200.348 119.508 202.004C120.538 203.659 122.02 204.985 123.779 205.826C125.539 204.985 127.021 203.659 128.051 202.004C129.081 200.348 129.616 198.433 129.593 196.483C127.542 194.999 125.599 193.37 123.779 191.61C121.96 193.368 120.022 194.997 117.966 196.483Z" stroke="white" stroke-linecap="round" stroke-linejoin="round"></path><path d="M65.9617 196.483C65.9385 198.433 66.4735 200.348 67.5037 202.004C68.5339 203.659 70.0161 204.985 71.7755 205.826C73.5384 204.988 75.0248 203.663 76.0591 202.007C77.0935 200.352 77.6326 198.435 77.613 196.483C75.5569 194.999 73.5953 193.371 71.7755 191.61C69.9557 193.368 68.0178 194.997 65.9617 196.483Z" stroke="white" stroke-linecap="round" stroke-linejoin="round"></path><path d="M220.959 371.968C220.959 371.968 175.015 340.062 201.792 327.3C190.306 295.394 207.18 267.331 220.959 267.331" stroke="white" stroke-width="3" stroke-linecap="round" stroke-linejoin="round"></path><path d="M220.949 371.968C220.949 371.968 266.894 340.062 240.093 327.3C251.555 295.394 234.704 267.331 220.949 267.331" stroke="white" stroke-width="3" stroke-linecap="round" stroke-linejoin="round"></path></g><defs><clipPath id="clip0_18_1340"><rect width="347" height="400" fill="white"></rect></clipPath></defs></svg>